<svg width="24" height="92" viewBox="0 0 24 92" fill="none" xmlns="http://www.w3.org/2000/svg">
<g style="mix-blend-mode:overlay" filter="url(#filter0_d_9_15)">
<path d="M4.49219 13.1445L4.74609 12.9492L4.76562 12.5391C5.09115 11.7448 5.42318 10.9831 5.76172 10.2539C6.11328 9.52474 6.47786 8.77604 6.85547 8.00781C6.97266 7.76042 7.08984 7.51302 7.20703 7.26562C7.33724 7.01823 7.46094 6.76432 7.57812 6.50391C7.5651 6.45182 7.55859 6.39974 7.55859 6.34766C7.55859 6.28255 7.57161 6.21094 7.59766 6.13281C7.77995 5.8724 7.92318 5.63802 8.02734 5.42969C8.14453 5.22135 8.25521 5.00651 8.35938 4.78516C8.47656 4.52474 8.60026 4.26432 8.73047 4.00391C8.8737 3.74349 9.04948 3.48958 9.25781 3.24219L9.39453 3.04688L9.60938 3.06641C9.66146 3.04036 9.71354 3.02083 9.76562 3.00781C9.83073 2.98177 9.90885 2.96875 10 2.96875L10.3516 3.02734C10.7812 2.83203 11.1589 2.55208 11.4844 2.1875C11.8229 1.8099 12.1615 1.36068 12.5 0.839844L12.7344 0.507812L13.0469 0.703125C13.112 0.742188 13.2161 0.78125 13.3594 0.820312C13.5026 0.859375 13.6523 0.904948 13.8086 0.957031C14.082 1.02214 14.349 1.10026 14.6094 1.19141C14.8698 1.26953 15.0716 1.38021 15.2148 1.52344L15.3125 1.69922C15.3385 1.84245 15.3581 1.97266 15.3711 2.08984C15.3971 2.20703 15.4232 2.32422 15.4492 2.44141C15.5013 2.71484 15.5469 2.98828 15.5859 3.26172C15.625 3.52214 15.651 3.8151 15.6641 4.14062C15.7292 4.40104 15.7878 4.66797 15.8398 4.94141C15.9049 5.20182 15.9635 5.46224 16.0156 5.72266C16.0807 6.10026 16.1523 6.46484 16.2305 6.81641C16.3086 7.15495 16.4128 7.48047 16.543 7.79297C16.6732 7.79297 16.7513 7.79948 16.7773 7.8125C16.9336 7.7474 17.1159 7.70833 17.3242 7.69531L17.5781 7.67578L17.6562 7.91016C17.6823 7.94922 17.7148 7.98828 17.7539 8.02734C17.793 8.06641 17.8385 8.10547 17.8906 8.14453C18.099 8.15755 18.2487 8.20312 18.3398 8.28125C18.444 8.34635 18.5286 8.41146 18.5938 8.47656C18.6198 8.5026 18.6523 8.53516 18.6914 8.57422C18.7305 8.60026 18.763 8.61979 18.7891 8.63281L19.1406 8.76953L18.9453 9.14062C18.8021 9.41406 18.5807 9.68099 18.2812 9.94141C17.9948 10.2018 17.6693 10.4167 17.3047 10.5859C17.3307 10.6771 17.3438 10.7617 17.3438 10.8398C17.3568 10.918 17.3763 11.0091 17.4023 11.1133C17.4544 11.3737 17.4935 11.6471 17.5195 11.9336C17.5586 12.207 17.5586 12.4935 17.5195 12.793C17.3893 13.1315 17.2331 13.4375 17.0508 13.7109C16.8815 13.9714 16.6732 14.2122 16.4258 14.4336C16.1914 14.6419 15.9245 14.8177 15.625 14.9609C15.3255 15.0911 15.013 15.1628 14.6875 15.1758C14.5052 15.1367 14.3685 15.0911 14.2773 15.0391C14.1992 14.987 14.1276 14.9349 14.0625 14.8828C13.9583 14.8047 13.8737 14.7526 13.8086 14.7266L13.5547 14.6094L13.6328 14.3164C13.6719 14.2122 13.6654 14.1211 13.6133 14.043C13.5742 13.9648 13.4831 13.8607 13.3398 13.7305C13.2878 13.6914 13.2422 13.6523 13.2031 13.6133C13.1641 13.5612 13.1185 13.5091 13.0664 13.457L12.6758 13.0078L13.3203 12.832C13.7109 12.7279 13.9714 12.5977 14.1016 12.4414C14.2318 12.2721 14.2839 11.9792 14.2578 11.5625C13.9323 11.4974 13.6654 11.4909 13.457 11.543C13.2487 11.582 13.0404 11.6276 12.832 11.6797C12.5326 11.7578 12.2396 11.8294 11.9531 11.8945C11.6667 11.9466 11.3542 11.9727 11.0156 11.9727C10.7943 11.9727 10.5599 11.9531 10.3125 11.9141L10.0977 11.8945L10.0391 11.6797C10.0391 11.6536 10.0195 11.6276 9.98047 11.6016C9.95443 11.5625 9.92839 11.5299 9.90234 11.5039C9.83724 11.4258 9.75911 11.3216 9.66797 11.1914C9.57682 11.0612 9.55729 10.8984 9.60938 10.7031C9.51823 10.5599 9.46615 10.4102 9.45312 10.2539C9.40104 10.3581 9.35547 10.4622 9.31641 10.5664C9.29036 10.6576 9.26432 10.7487 9.23828 10.8398L9.16016 11.0938L8.90625 11.1328C8.88021 11.1589 8.85417 11.1979 8.82812 11.25C8.8151 11.3021 8.8151 11.3411 8.82812 11.3672L8.90625 11.582L8.71094 11.7578C8.6849 11.7969 8.65234 11.8294 8.61328 11.8555C8.57422 11.8815 8.54167 11.9076 8.51562 11.9336C8.48958 12.0768 8.45052 12.2135 8.39844 12.3438C8.35938 12.474 8.3138 12.6042 8.26172 12.7344C8.19661 12.9427 8.13151 13.1445 8.06641 13.3398C8.01432 13.5352 7.98828 13.7305 7.98828 13.9258L7.91016 14.1797C7.84505 14.2839 7.76042 14.362 7.65625 14.4141C7.5651 14.4661 7.47396 14.5117 7.38281 14.5508C7.2526 14.6029 7.16146 14.6549 7.10938 14.707L7.05078 14.9609L6.75781 15C6.58854 15.0391 6.46484 15.0651 6.38672 15.0781C6.32161 15.0911 6.24349 15.0977 6.15234 15.0977L5.89844 15.0781C5.74219 14.9219 5.61198 14.8047 5.50781 14.7266C5.41667 14.6354 5.30599 14.5573 5.17578 14.4922L5.05859 14.3359C5.00651 14.2318 4.97396 14.1406 4.96094 14.0625C4.94792 13.9714 4.92839 13.8802 4.90234 13.7891C4.8763 13.6198 4.83724 13.5026 4.78516 13.4375L4.49219 13.1445ZM10.7227 8.06641C10.5404 8.32682 10.3646 8.60026 10.1953 8.88672C10.2865 8.8737 10.3711 8.86719 10.4492 8.86719C10.5404 8.86719 10.6315 8.86068 10.7227 8.84766C11.1784 8.82161 11.6016 8.78906 11.9922 8.75C12.3828 8.71094 12.806 8.64583 13.2617 8.55469C13.1576 8.07292 13.0404 7.58464 12.9102 7.08984C12.793 6.58203 12.6628 6.07422 12.5195 5.56641L12.4219 5.76172C12.0964 6.11328 11.7839 6.49089 11.4844 6.89453C11.1849 7.29818 10.9375 7.68229 10.7422 8.04688L10.7227 8.06641ZM15.5273 28.8164C15.6055 28.8555 15.651 28.9206 15.6641 29.0117C15.6771 29.1029 15.6771 29.1745 15.6641 29.2266C15.4297 29.526 15.2669 29.7344 15.1758 29.8516C15.0846 29.9688 15.0195 30.0599 14.9805 30.125C14.9414 30.1771 14.8958 30.2227 14.8438 30.2617C14.8047 30.3008 14.707 30.3854 14.5508 30.5156C13.9648 30.8672 13.3594 31.1797 12.7344 31.4531C12.1224 31.7266 11.4779 31.9154 10.8008 32.0195C10.6966 32.1628 10.4948 32.2604 10.1953 32.3125C9.90885 32.3776 9.64193 32.4362 9.39453 32.4883C9.34245 32.4622 9.3099 32.4232 9.29688 32.3711C9.29688 32.332 9.27083 32.2995 9.21875 32.2734C9.20573 32.4036 9.14714 32.4688 9.04297 32.4688C8.9388 32.4818 8.80859 32.4557 8.65234 32.3906C8.50911 32.3385 8.35286 32.2604 8.18359 32.1562C8.02734 32.0651 7.89062 31.9805 7.77344 31.9023C7.70833 32.0065 7.63672 32.1107 7.55859 32.2148C7.49349 32.319 7.40885 32.3906 7.30469 32.4297C7.16146 32.4036 7.05078 32.3841 6.97266 32.3711C6.90755 32.3581 6.84245 32.3841 6.77734 32.4492C6.69922 32.4102 6.63411 32.3646 6.58203 32.3125C6.54297 32.2604 6.4974 32.2083 6.44531 32.1562C6.40625 32.1172 6.35417 32.0781 6.28906 32.0391C6.23698 32 6.15885 31.9674 6.05469 31.9414C6.08073 31.8893 6.06771 31.8112 6.01562 31.707C5.96354 31.5898 5.88542 31.5182 5.78125 31.4922C5.83333 31.401 5.80729 31.2904 5.70312 31.1602C5.61198 31.0169 5.54036 30.8607 5.48828 30.6914C5.51432 30.5482 5.53385 30.3919 5.54688 30.2227C5.5599 30.0534 5.63802 29.9557 5.78125 29.9297C5.76823 29.8385 5.7487 29.7604 5.72266 29.6953C5.69661 29.6302 5.67057 29.5651 5.64453 29.5C5.73568 29.4219 5.80078 29.3307 5.83984 29.2266C5.87891 29.1094 5.91146 28.9922 5.9375 28.875C5.96354 28.7578 5.99609 28.6406 6.03516 28.5234C6.07422 28.4062 6.14583 28.3086 6.25 28.2305C6.36719 27.8398 6.45833 27.5534 6.52344 27.3711C6.58854 27.1758 6.63411 26.987 6.66016 26.8047C6.69922 26.6224 6.73828 26.4271 6.77734 26.2188C6.82943 26.0104 6.91406 25.75 7.03125 25.4375C7.01823 25.2422 7.03776 25.0729 7.08984 24.9297C7.14193 24.7734 7.19401 24.6237 7.24609 24.4805C7.3112 24.3242 7.36328 24.168 7.40234 24.0117C7.44141 23.8424 7.4349 23.6471 7.38281 23.4258C7.20052 23.4388 7.07031 23.5039 6.99219 23.6211C6.91406 23.7253 6.86198 23.8685 6.83594 24.0508C6.73177 24.1549 6.60156 24.207 6.44531 24.207C6.30208 24.194 6.17188 24.207 6.05469 24.2461C5.59896 24.0638 5.22135 23.8034 4.92188 23.4648C4.6224 23.1263 4.38151 22.7292 4.19922 22.2734C4.31641 21.974 4.49219 21.7266 4.72656 21.5312C4.96094 21.3229 5.22786 21.1536 5.52734 21.0234C5.82682 20.8802 6.14583 20.7695 6.48438 20.6914C6.82292 20.6003 7.14844 20.5156 7.46094 20.4375C7.96875 20.3464 8.47656 20.2422 8.98438 20.125C9.49219 20.0078 10.0391 19.9688 10.625 20.0078C10.7031 19.9688 10.7943 19.9492 10.8984 19.9492C11.0156 19.9362 11.1328 19.9297 11.25 19.9297C11.3672 19.9297 11.4779 19.9297 11.582 19.9297C11.6992 19.9167 11.7969 19.8906 11.875 19.8516C11.9401 19.9297 12.0312 19.9818 12.1484 20.0078C12.2786 20.0208 12.4154 20.0794 12.5586 20.1836C12.7148 20.0664 12.8451 20.0404 12.9492 20.1055C13.0664 20.1706 13.1706 20.2422 13.2617 20.3203C13.3529 20.3984 13.4375 20.4701 13.5156 20.5352C13.6068 20.6003 13.6979 20.6328 13.7891 20.6328C13.8802 20.75 13.9909 20.8607 14.1211 20.9648C14.2643 21.069 14.3945 21.1797 14.5117 21.2969C14.6419 21.401 14.7461 21.5182 14.8242 21.6484C14.9154 21.7786 14.9609 21.9284 14.9609 22.0977C14.9479 22.1628 14.9674 22.2018 15.0195 22.2148C15.0716 22.2279 15.1107 22.2539 15.1367 22.293C15.1497 22.6966 15.0846 23.0482 14.9414 23.3477C14.8112 23.6341 14.6419 23.901 14.4336 24.1484C14.2383 24.3958 14.0169 24.6302 13.7695 24.8516C13.5352 25.0729 13.3203 25.3073 13.125 25.5547C13.2552 25.724 13.4049 25.8737 13.5742 26.0039C13.7435 26.1341 13.9128 26.2643 14.082 26.3945C14.2643 26.5247 14.4336 26.6615 14.5898 26.8047C14.7461 26.9479 14.8763 27.1172 14.9805 27.3125C15.0065 27.3385 15.0391 27.3646 15.0781 27.3906C15.1172 27.4036 15.1562 27.4232 15.1953 27.4492C15.2344 27.5794 15.2865 27.7161 15.3516 27.8594C15.4167 27.9896 15.4688 28.1198 15.5078 28.25C15.5599 28.3672 15.5924 28.4779 15.6055 28.582C15.6185 28.6732 15.5924 28.7513 15.5273 28.8164ZM12.0898 22.293C11.4258 22.2669 10.7617 22.3255 10.0977 22.4688C9.44661 22.612 8.89974 22.8138 8.45703 23.0742C8.67839 23.2565 8.89974 23.4193 9.12109 23.5625C9.35547 23.7057 9.53776 23.901 9.66797 24.1484C10.1758 23.9401 10.625 23.6797 11.0156 23.3672C11.4062 23.0417 11.7643 22.6836 12.0898 22.293ZM12.3438 28.5234C12.3828 28.3932 12.4544 28.2891 12.5586 28.2109C12.6628 28.1328 12.7669 28.0612 12.8711 27.9961C12.9753 27.918 13.0664 27.8398 13.1445 27.7617C13.2227 27.6706 13.2552 27.5469 13.2422 27.3906C12.8255 27.1693 12.4414 27.0391 12.0898 27C11.7513 26.9479 11.4258 26.9479 11.1133 27C10.8138 27.0391 10.5208 27.1042 10.2344 27.1953C9.96094 27.2865 9.68099 27.3516 9.39453 27.3906C9.2513 27.7682 9.10156 28.1784 8.94531 28.6211C8.78906 29.0638 8.63932 29.4935 8.49609 29.9102C8.88672 29.8581 9.24479 29.7799 9.57031 29.6758C9.89583 29.5586 10.2083 29.4349 10.5078 29.3047C10.8203 29.1745 11.1198 29.0443 11.4062 28.9141C11.7057 28.7708 12.0182 28.6406 12.3438 28.5234ZM16.3867 43.1406C16.3737 43.2969 16.3867 43.4466 16.4258 43.5898C16.4648 43.7331 16.5104 43.8763 16.5625 44.0195C16.6276 44.1497 16.6862 44.2865 16.7383 44.4297C16.7904 44.5729 16.8294 44.7161 16.8555 44.8594C16.8815 45.0417 16.8815 45.2435 16.8555 45.4648C16.8294 45.6732 16.7839 45.8815 16.7188 46.0898C16.6536 46.2852 16.569 46.4674 16.4648 46.6367C16.3607 46.793 16.237 46.9102 16.0938 46.9883C15.9115 47.2227 15.6901 47.4049 15.4297 47.5352C15.1693 47.6654 14.9284 47.8216 14.707 48.0039C14.5638 48.0951 14.401 48.1602 14.2188 48.1992C14.0495 48.2383 13.8737 48.2773 13.6914 48.3164C13.5482 48.3945 13.3789 48.4792 13.1836 48.5703C12.9883 48.6484 12.7865 48.7266 12.5781 48.8047C12.3698 48.8698 12.1615 48.9219 11.9531 48.9609C11.7448 48.987 11.5625 48.9935 11.4062 48.9805C11.0156 49.1237 10.6315 49.2148 10.2539 49.2539C9.88932 49.306 9.45964 49.2799 8.96484 49.1758C8.49609 49.2409 8.0599 49.2214 7.65625 49.1172C7.26562 49.013 6.91406 48.8503 6.60156 48.6289C6.30208 48.3945 6.03516 48.1211 5.80078 47.8086C5.57943 47.4831 5.39714 47.1445 5.25391 46.793C5.14974 46.0508 5.17578 45.3802 5.33203 44.7812C5.48828 44.1693 5.70964 43.6094 5.99609 43.1016C6.29557 42.5807 6.63411 42.1055 7.01172 41.6758C7.38932 41.2331 7.75391 40.8034 8.10547 40.3867C8.18359 40.4128 8.24219 40.4128 8.28125 40.3867C8.33333 40.3477 8.37891 40.3021 8.41797 40.25C8.45703 40.1849 8.49609 40.1263 8.53516 40.0742C8.58724 40.0221 8.64583 39.9896 8.71094 39.9766C8.80208 39.7812 8.93229 39.638 9.10156 39.5469C9.28385 39.4427 9.42708 39.2995 9.53125 39.1172C9.64844 39.0911 9.74609 39.0521 9.82422 39C9.90234 38.9479 9.97396 38.8893 10.0391 38.8242C10.1172 38.7591 10.1953 38.7005 10.2734 38.6484C10.3516 38.5833 10.4427 38.5378 10.5469 38.5117V38.2969C10.7812 38.1927 10.9505 38.0755 11.0547 37.9453C11.1719 37.8021 11.3086 37.6328 11.4648 37.4375C11.582 37.4245 11.6732 37.418 11.7383 37.418C11.8164 37.418 11.9271 37.4049 12.0703 37.3789C12.1745 37.1966 12.2656 37.0599 12.3438 36.9688C12.4349 36.8776 12.5651 36.7799 12.7344 36.6758C12.8906 36.7539 13.0599 36.806 13.2422 36.832C13.4375 36.8581 13.6068 36.9427 13.75 37.0859C13.763 37.2161 13.8021 37.3203 13.8672 37.3984C13.9323 37.4635 14.0039 37.5286 14.082 37.5938C14.1602 37.6458 14.2318 37.7044 14.2969 37.7695C14.375 37.8346 14.4271 37.9258 14.4531 38.043C14.5052 38.056 14.5378 38.0495 14.5508 38.0234C14.5768 37.9974 14.6159 37.9909 14.668 38.0039C14.707 38.1862 14.7526 38.3099 14.8047 38.375C14.8568 38.4271 14.9089 38.5378 14.9609 38.707C14.8958 38.8372 14.8438 38.974 14.8047 39.1172C14.7786 39.2474 14.7005 39.3451 14.5703 39.4102C14.5573 39.5013 14.5833 39.5534 14.6484 39.5664C14.7135 39.5664 14.7526 39.599 14.7656 39.6641C14.7786 39.7812 14.7591 39.8659 14.707 39.918C15.0195 40.4258 15.2995 40.9661 15.5469 41.5391C15.7943 42.099 16.0742 42.6328 16.3867 43.1406ZM13.9453 44.9961C13.9974 44.8529 14.0625 44.7357 14.1406 44.6445C14.2318 44.5534 14.2839 44.4167 14.2969 44.2344C14.2318 44.1302 14.1927 44.0521 14.1797 44C14.1667 43.9349 14.1602 43.8372 14.1602 43.707C13.8737 43.3034 13.6263 42.8737 13.418 42.418C13.2096 41.9492 12.9753 41.513 12.7148 41.1094C12.6888 41.1615 12.6432 41.2135 12.5781 41.2656C12.513 41.3177 12.4414 41.3047 12.3633 41.2266C12.3372 41.3307 12.2917 41.4089 12.2266 41.4609C12.1615 41.5 12.0898 41.5195 12.0117 41.5195C11.9336 41.5065 11.849 41.487 11.7578 41.4609C11.6797 41.4219 11.6081 41.3763 11.543 41.3242C11.1654 41.6237 10.7878 41.9167 10.4102 42.2031C10.0326 42.4896 9.69401 42.8216 9.39453 43.1992C9.34245 43.2253 9.3099 43.2383 9.29688 43.2383C9.28385 43.2253 9.24479 43.2318 9.17969 43.2578C9.07552 43.5052 8.94531 43.7331 8.78906 43.9414C8.64583 44.1367 8.5026 44.3385 8.35938 44.5469C8.21615 44.7552 8.09245 44.9766 7.98828 45.2109C7.88411 45.4453 7.82552 45.7188 7.8125 46.0312C8.03385 46.2135 8.29427 46.3242 8.59375 46.3633C8.89323 46.4023 9.19922 46.4089 9.51172 46.3828C9.83724 46.3568 10.1497 46.3177 10.4492 46.2656C10.7617 46.2005 11.0482 46.168 11.3086 46.168C11.8555 46.0378 12.3242 45.8685 12.7148 45.6602C13.1055 45.4388 13.5156 45.2174 13.9453 44.9961ZM16.3281 54.8867C16.3542 55.1732 16.3997 55.4206 16.4648 55.6289C16.5299 55.8372 16.6016 56.0391 16.6797 56.2344C16.7448 56.4167 16.8034 56.599 16.8555 56.7812C16.9206 56.9505 16.9661 57.1589 16.9922 57.4062C16.888 57.7448 16.8099 58.0573 16.7578 58.3438C16.7188 58.6302 16.6732 58.9297 16.6211 59.2422C16.4128 59.6979 16.2109 60.1016 16.0156 60.4531C15.8203 60.8047 15.6641 61.1107 15.5469 61.3711C15.4818 61.4362 15.4232 61.5143 15.3711 61.6055C15.332 61.6836 15.2865 61.7682 15.2344 61.8594C15.2083 61.8984 15.1758 61.957 15.1367 62.0352C15.0977 62.1133 15.0651 62.1654 15.0391 62.1914L14.6484 62.0547L14.5703 62.543L14.2969 62.6211L14.1016 62.8555C13.8542 63.2852 13.5938 63.6497 13.3203 63.9492C13.0469 64.2357 12.7344 64.4961 12.3828 64.7305C12.0443 64.9518 11.6536 65.1602 11.2109 65.3555C10.7812 65.5508 10.293 65.7656 9.74609 66C9.52474 65.974 9.32943 65.9609 9.16016 65.9609C9.00391 65.9479 8.85417 65.9349 8.71094 65.9219C8.46354 65.9219 8.15755 65.9023 7.79297 65.8633C7.75391 65.7591 7.69531 65.6875 7.61719 65.6484C7.53906 65.6094 7.46745 65.5898 7.40234 65.5898C7.18099 65.4857 7.01172 65.3359 6.89453 65.1406C6.79036 64.9323 6.6862 64.7109 6.58203 64.4766C6.51693 64.3333 6.45182 64.2031 6.38672 64.0859C6.32161 63.9557 6.25 63.8255 6.17188 63.6953L6.50391 63.5977L6.07422 63.1289C6.04818 63.0898 6.01562 63.0573 5.97656 63.0312C5.9375 62.9922 5.90495 62.9531 5.87891 62.9141L5.85938 62.6016C5.82031 61.7031 5.80078 60.8828 5.80078 60.1406C5.8138 59.3854 5.91797 58.7148 6.11328 58.1289V57.9141C6.15234 57.6276 6.19141 57.3932 6.23047 57.2109C6.26953 57.0156 6.30208 56.8333 6.32812 56.6641C6.36719 56.3776 6.42578 56.1107 6.50391 55.8633C6.6862 55.8242 6.82292 55.7526 6.91406 55.6484C7.00521 55.5312 7.08333 55.4271 7.14844 55.3359C7.33073 55.3229 7.45443 55.349 7.51953 55.4141C7.58464 55.4792 7.64974 55.5833 7.71484 55.7266C7.77995 55.8438 7.85807 55.974 7.94922 56.1172C8.05339 56.2604 8.20312 56.3711 8.39844 56.4492C8.42448 56.5534 8.45703 56.6641 8.49609 56.7812C8.54818 56.8854 8.60026 57.0026 8.65234 57.1328C8.75651 57.3542 8.84766 57.5885 8.92578 57.8359C9.01693 58.0703 9.06901 58.2982 9.08203 58.5195C8.95182 58.7669 8.84766 59.0534 8.76953 59.3789C8.70443 59.7044 8.65885 60.0365 8.63281 60.375C8.61979 60.7005 8.6263 61.0195 8.65234 61.332C8.69141 61.6315 8.75 61.8854 8.82812 62.0938L8.94531 62.3477L9.27734 62.3086C9.66797 62.2044 10.0195 62.0938 10.332 61.9766C10.6576 61.8464 10.957 61.6966 11.2305 61.5273C11.5039 61.3581 11.7643 61.1628 12.0117 60.9414C12.2591 60.707 12.5195 60.4401 12.793 60.1406C13.0664 59.8411 13.3008 59.5026 13.4961 59.125C13.7044 58.7344 13.8737 58.3307 14.0039 57.9141C14.1471 57.4974 14.2513 57.0872 14.3164 56.6836C14.3945 56.2669 14.4466 55.8763 14.4727 55.5117C14.694 55.4336 14.8047 55.2773 14.8047 55.043L14.7656 54.8281C14.7135 54.75 14.7135 54.6589 14.7656 54.5547C14.8438 54.3073 15.026 54.1185 15.3125 53.9883C15.5208 54.1185 15.7031 54.2617 15.8594 54.418C16.0286 54.5742 16.1849 54.7305 16.3281 54.8867ZM16.1133 73.6055C15.7878 73.6055 15.4362 73.6315 15.0586 73.6836C14.681 73.7227 14.3099 73.7682 13.9453 73.8203C13.6849 73.8594 13.431 73.8919 13.1836 73.918C12.9492 73.944 12.7344 73.9635 12.5391 73.9766C12.4479 74.263 12.3568 74.5169 12.2656 74.7383C12.1745 74.9596 12.0768 75.1745 11.9727 75.3828C11.8685 75.6042 11.7708 75.832 11.6797 76.0664C11.6016 76.2878 11.5234 76.5286 11.4453 76.7891C11.3151 76.9974 11.2044 77.1927 11.1133 77.375C11.0352 77.5443 10.9701 77.7396 10.918 77.9609C10.7617 78.1562 10.6445 78.3646 10.5664 78.5859C10.4883 78.7943 10.4297 78.9766 10.3906 79.1328L10.3125 79.3672C10.2344 79.4453 10.1888 79.5104 10.1758 79.5625C10.1628 79.6016 10.1302 79.6406 10.0781 79.6797C10.0651 79.8229 10.0195 79.9661 9.94141 80.1094C9.91536 80.1745 9.89583 80.2396 9.88281 80.3047C9.86979 80.3568 9.86328 80.3958 9.86328 80.4219C9.86328 80.5521 9.83073 80.6367 9.76562 80.6758C9.77865 80.7409 9.77865 80.8125 9.76562 80.8906C9.7526 80.9557 9.73958 81.0208 9.72656 81.0859C9.6875 81.2422 9.67448 81.3659 9.6875 81.457C9.72656 81.5091 9.75911 81.5547 9.78516 81.5938C9.82422 81.6328 9.85026 81.6849 9.86328 81.75C9.94141 81.8021 10 81.8346 10.0391 81.8477C10.0911 81.8867 10.1693 81.9323 10.2734 81.9844L10.4492 82.1797C10.5143 82.5573 10.4557 82.8568 10.2734 83.0781C10.0781 83.3255 9.74609 83.4492 9.27734 83.4492H9.04297C8.97786 83.3841 8.9388 83.332 8.92578 83.293C8.82161 83.2539 8.73698 83.2214 8.67188 83.1953C8.60677 83.1693 8.54818 83.1172 8.49609 83.0391C8.32682 82.9609 8.1901 82.8958 8.08594 82.8438L7.91016 82.7461C7.91016 82.6029 7.91016 82.5247 7.91016 82.5117C7.81901 82.3945 7.7474 82.2643 7.69531 82.1211C7.65625 81.9779 7.6237 81.8346 7.59766 81.6914C7.57161 81.5742 7.53906 81.4635 7.5 81.3594C7.47396 81.2552 7.4349 81.1641 7.38281 81.0859C7.35677 80.3307 7.42839 79.6927 7.59766 79.1719C7.76693 78.651 7.94271 78.1497 8.125 77.668C8.22917 77.4076 8.33333 77.1471 8.4375 76.8867C8.54167 76.6133 8.63281 76.3333 8.71094 76.0469L8.88672 75.8516C8.97786 75.6432 9.04948 75.474 9.10156 75.3438C9.16667 75.2005 9.23177 75.0573 9.29688 74.9141C9.33594 74.8229 9.36849 74.7383 9.39453 74.6602C9.43359 74.569 9.46615 74.4909 9.49219 74.4258C9.41406 74.4258 9.34245 74.4323 9.27734 74.4453C9.21224 74.4453 9.14714 74.4518 9.08203 74.4648C9.00391 74.4779 8.93229 74.4909 8.86719 74.5039C8.80208 74.5039 8.73698 74.5039 8.67188 74.5039C8.58073 74.5039 8.51562 74.4974 8.47656 74.4844C8.33333 74.5495 8.17708 74.582 8.00781 74.582H7.8125C7.77344 74.582 7.73438 74.582 7.69531 74.582C7.66927 74.569 7.64323 74.5625 7.61719 74.5625C7.48698 74.5625 7.38281 74.582 7.30469 74.6211C7.14844 74.6211 6.9987 74.6211 6.85547 74.6211H6.66016C6.63411 74.6211 6.60156 74.6276 6.5625 74.6406C6.52344 74.6406 6.49089 74.6406 6.46484 74.6406C6.3737 74.6406 6.27604 74.6341 6.17188 74.6211C6.06771 74.5951 5.95703 74.5495 5.83984 74.4844C5.68359 74.276 5.57943 74.1654 5.52734 74.1523L5.35156 73.918C5.33854 73.8398 5.31901 73.7682 5.29297 73.7031C5.26693 73.625 5.24089 73.5404 5.21484 73.4492C5.16276 73.319 5.11068 73.1823 5.05859 73.0391C5.01953 72.8828 5 72.7005 5 72.4922C5.01302 72.388 5.03906 72.3099 5.07812 72.2578C5.11719 72.2057 5.14974 72.1602 5.17578 72.1211L5.23438 71.8281L5.48828 71.8477H6.03516C6.45182 71.8477 6.875 71.8346 7.30469 71.8086C7.73438 71.7695 8.17708 71.7305 8.63281 71.6914C8.89323 71.6654 9.15365 71.6393 9.41406 71.6133C9.6875 71.5872 9.96745 71.5612 10.2539 71.5352C10.306 71.418 10.3581 71.3073 10.4102 71.2031L10.6055 71.1055C10.8398 71.0924 11.0026 71.125 11.0938 71.2031C11.1979 71.2682 11.2826 71.3333 11.3477 71.3984C11.6341 71.3724 11.9206 71.3464 12.207 71.3203C12.5065 71.2812 12.806 71.2357 13.1055 71.1836C13.5482 71.1185 13.9909 71.0599 14.4336 71.0078C14.8893 70.9557 15.3255 70.9297 15.7422 70.9297C15.9245 70.9297 16.1003 70.9362 16.2695 70.9492C16.4388 70.9622 16.5951 70.9818 16.7383 71.0078L16.9336 71.1445C16.9727 71.2227 17.0247 71.2943 17.0898 71.3594C17.168 71.4245 17.2461 71.4896 17.3242 71.5547C17.4805 71.6979 17.6367 71.8672 17.793 72.0625C17.9492 72.2578 18.0078 72.5443 17.9688 72.9219C17.8646 73.0781 17.7865 73.1693 17.7344 73.1953L17.5586 73.4297L17.3633 73.4102C17.2852 73.4102 17.2135 73.4232 17.1484 73.4492C17.0833 73.4622 17.0182 73.4818 16.9531 73.5078C16.901 73.5339 16.849 73.5599 16.7969 73.5859C16.7448 73.599 16.6862 73.612 16.6211 73.625C16.5039 73.625 16.4062 73.625 16.3281 73.625C16.263 73.612 16.1914 73.6055 16.1133 73.6055Z" fill="white"/>
</g>
<defs>
<filter id="filter0_d_9_15" x="0.199219" y="0.507812" width="22.9414" height="90.9414" filterUnits="userSpaceOnUse" color-interpolation-filters="sRGB">
<feFlood flood-opacity="0" result="BackgroundImageFix"/>
<feColorMatrix in="SourceAlpha" type="matrix" values="0 0 0 0 0 0 0 0 0 0 0 0 0 0 0 0 0 0 127 0" result="hardAlpha"/>
<feOffset dy="4"/>
<feGaussianBlur stdDeviation="2"/>
<feComposite in2="hardAlpha" operator="out"/>
<feColorMatrix type="matrix" values="0 0 0 0 0 0 0 0 0 0 0 0 0 0 0 0 0 0 0.25 0"/>
<feBlend mode="normal" in2="BackgroundImageFix" result="effect1_dropShadow_9_15"/>
<feBlend mode="normal" in="SourceGraphic" in2="effect1_dropShadow_9_15" result="shape"/>
</filter>
</defs>
</svg>
