<svg width="163" height="36" viewBox="0 0 163 36" fill="none" xmlns="http://www.w3.org/2000/svg">
<g filter="url(#filter0_d_5_2)">
<path d="M4.08594 23.6602L4.54297 23.3086L4.57812 22.5703C5.16406 21.1406 5.76172 19.7695 6.37109 18.457C7.00391 17.1445 7.66016 15.7969 8.33984 14.4141C8.55078 13.9688 8.76172 13.5234 8.97266 13.0781C9.20703 12.6328 9.42969 12.1758 9.64062 11.707C9.61719 11.6133 9.60547 11.5195 9.60547 11.4258C9.60547 11.3086 9.62891 11.1797 9.67578 11.0391C10.0039 10.5703 10.2617 10.1484 10.4492 9.77344C10.6602 9.39844 10.8594 9.01172 11.0469 8.61328C11.2578 8.14453 11.4805 7.67578 11.7148 7.20703C11.9727 6.73828 12.2891 6.28125 12.6641 5.83594L12.9102 5.48438L13.2969 5.51953C13.3906 5.47266 13.4844 5.4375 13.5781 5.41406C13.6953 5.36719 13.8359 5.34375 14 5.34375L14.6328 5.44922C15.4062 5.09766 16.0859 4.59375 16.6719 3.9375C17.2812 3.25781 17.8906 2.44922 18.5 1.51172L18.9219 0.914062L19.4844 1.26562C19.6016 1.33594 19.7891 1.40625 20.0469 1.47656C20.3047 1.54688 20.5742 1.62891 20.8555 1.72266C21.3477 1.83984 21.8281 1.98047 22.2969 2.14453C22.7656 2.28516 23.1289 2.48437 23.3867 2.74219L23.5625 3.05859C23.6094 3.31641 23.6445 3.55078 23.668 3.76172C23.7148 3.97266 23.7617 4.18359 23.8086 4.39453C23.9023 4.88672 23.9844 5.37891 24.0547 5.87109C24.125 6.33984 24.1719 6.86719 24.1953 7.45312C24.3125 7.92188 24.418 8.40234 24.5117 8.89453C24.6289 9.36328 24.7344 9.83203 24.8281 10.3008C24.9453 10.9805 25.0742 11.6367 25.2148 12.2695C25.3555 12.8789 25.543 13.4648 25.7773 14.0273C26.0117 14.0273 26.1523 14.0391 26.1992 14.0625C26.4805 13.9453 26.8086 13.875 27.1836 13.8516L27.6406 13.8164L27.7812 14.2383C27.8281 14.3086 27.8867 14.3789 27.957 14.4492C28.0273 14.5195 28.1094 14.5898 28.2031 14.6602C28.5781 14.6836 28.8477 14.7656 29.0117 14.9062C29.1992 15.0234 29.3516 15.1406 29.4688 15.2578C29.5156 15.3047 29.5742 15.3633 29.6445 15.4336C29.7148 15.4805 29.7734 15.5156 29.8203 15.5391L30.4531 15.7852L30.1016 16.4531C29.8438 16.9453 29.4453 17.4258 28.9062 17.8945C28.3906 18.3633 27.8047 18.75 27.1484 19.0547C27.1953 19.2188 27.2188 19.3711 27.2188 19.5117C27.2422 19.6523 27.2773 19.8164 27.3242 20.0039C27.418 20.4727 27.4883 20.9648 27.5352 21.4805C27.6055 21.9727 27.6055 22.4883 27.5352 23.0273C27.3008 23.6367 27.0195 24.1875 26.6914 24.6797C26.3867 25.1484 26.0117 25.582 25.5664 25.9805C25.1445 26.3555 24.6641 26.6719 24.125 26.9297C23.5859 27.1641 23.0234 27.293 22.4375 27.3164C22.1094 27.2461 21.8633 27.1641 21.6992 27.0703C21.5586 26.9766 21.4297 26.8828 21.3125 26.7891C21.125 26.6484 20.9727 26.5547 20.8555 26.5078L20.3984 26.2969L20.5391 25.7695C20.6094 25.582 20.5977 25.418 20.5039 25.2773C20.4336 25.1367 20.2695 24.9492 20.0117 24.7148C19.918 24.6445 19.8359 24.5742 19.7656 24.5039C19.6953 24.4102 19.6133 24.3164 19.5195 24.2227L18.8164 23.4141L19.9766 23.0977C20.6797 22.9102 21.1484 22.6758 21.3828 22.3945C21.6172 22.0898 21.7109 21.5625 21.6641 20.8125C21.0781 20.6953 20.5977 20.6836 20.2227 20.7773C19.8477 20.8477 19.4727 20.9297 19.0977 21.0234C18.5586 21.1641 18.0312 21.293 17.5156 21.4102C17 21.5039 16.4375 21.5508 15.8281 21.5508C15.4297 21.5508 15.0078 21.5156 14.5625 21.4453L14.1758 21.4102L14.0703 21.0234C14.0703 20.9766 14.0352 20.9297 13.9648 20.8828C13.918 20.8125 13.8711 20.7539 13.8242 20.707C13.707 20.5664 13.5664 20.3789 13.4023 20.1445C13.2383 19.9102 13.2031 19.6172 13.2969 19.2656C13.1328 19.0078 13.0391 18.7383 13.0156 18.457C12.9219 18.6445 12.8398 18.832 12.7695 19.0195C12.7227 19.1836 12.6758 19.3477 12.6289 19.5117L12.4883 19.9688L12.0312 20.0391C11.9844 20.0859 11.9375 20.1562 11.8906 20.25C11.8672 20.3438 11.8672 20.4141 11.8906 20.4609L12.0312 20.8477L11.6797 21.1641C11.6328 21.2344 11.5742 21.293 11.5039 21.3398C11.4336 21.3867 11.375 21.4336 11.3281 21.4805C11.2812 21.7383 11.2109 21.9844 11.1172 22.2188C11.0469 22.4531 10.9648 22.6875 10.8711 22.9219C10.7539 23.2969 10.6367 23.6602 10.5195 24.0117C10.4258 24.3633 10.3789 24.7148 10.3789 25.0664L10.2383 25.5234C10.1211 25.7109 9.96875 25.8516 9.78125 25.9453C9.61719 26.0391 9.45312 26.1211 9.28906 26.1914C9.05469 26.2852 8.89062 26.3789 8.79688 26.4727L8.69141 26.9297L8.16406 27C7.85938 27.0703 7.63672 27.1172 7.49609 27.1406C7.37891 27.1641 7.23828 27.1758 7.07422 27.1758L6.61719 27.1406C6.33594 26.8594 6.10156 26.6484 5.91406 26.5078C5.75 26.3438 5.55078 26.2031 5.31641 26.0859L5.10547 25.8047C5.01172 25.6172 4.95312 25.4531 4.92969 25.3125C4.90625 25.1484 4.87109 24.9844 4.82422 24.8203C4.77734 24.5156 4.70703 24.3047 4.61328 24.1875L4.08594 23.6602ZM15.3008 14.5195C14.9727 14.9883 14.6562 15.4805 14.3516 15.9961C14.5156 15.9727 14.668 15.9609 14.8086 15.9609C14.9727 15.9609 15.1367 15.9492 15.3008 15.9258C16.1211 15.8789 16.8828 15.8203 17.5859 15.75C18.2891 15.6797 19.0508 15.5625 19.8711 15.3984C19.6836 14.5312 19.4727 13.6523 19.2383 12.7617C19.0273 11.8477 18.793 10.9336 18.5352 10.0195L18.3594 10.3711C17.7734 11.0039 17.2109 11.6836 16.6719 12.4102C16.1328 13.1367 15.6875 13.8281 15.3359 14.4844L15.3008 14.5195ZM38.7922 10.0195C37.8078 9.62109 36.9875 9.05859 36.3312 8.33203C35.6984 7.60547 35.1828 6.75 34.7844 5.76562C35.0187 5.13281 35.3937 4.60547 35.9094 4.18359C36.425 3.73828 36.9992 3.36328 37.632 3.05859C38.2883 2.75391 38.9797 2.50781 39.7062 2.32031C40.4328 2.13281 41.1359 1.96875 41.8156 1.82812C41.9562 1.875 42.0266 1.875 42.0266 1.82812C42.0266 1.78125 42.0852 1.80469 42.2023 1.89844C43.0461 1.64062 44.0187 1.39453 45.1203 1.16016C46.2219 0.902344 47.3937 0.808594 48.6359 0.878906C48.8 0.785156 48.9992 0.738281 49.2336 0.738281C49.468 0.714844 49.7141 0.703125 49.9719 0.703125C50.2297 0.703125 50.4758 0.703125 50.7102 0.703125C50.9445 0.679688 51.1437 0.632812 51.3078 0.5625C51.4484 0.726562 51.6594 0.832031 51.9406 0.878906C52.2219 0.902344 52.5148 1.01953 52.8195 1.23047C52.9133 1.25391 52.9133 1.21875 52.8195 1.125C52.7258 1.00781 52.7375 0.925781 52.8547 0.878906C53.1594 0.878906 53.4289 0.949219 53.6633 1.08984C53.8977 1.23047 54.1086 1.39453 54.2961 1.58203C54.507 1.74609 54.6945 1.89844 54.8586 2.03906C55.0461 2.17969 55.2453 2.25 55.4562 2.25C55.6672 2.50781 55.9133 2.75391 56.1945 2.98828C56.4992 3.19922 56.7805 3.42188 57.0383 3.65625C57.3195 3.89062 57.5422 4.14844 57.7062 4.42969C57.8937 4.71094 57.9875 5.02734 57.9875 5.37891C57.9641 5.51953 58.0109 5.60156 58.1281 5.625C58.2453 5.64844 58.3273 5.71875 58.3742 5.83594C58.3977 6.70312 58.257 7.45312 57.9523 8.08594C57.6711 8.71875 57.3078 9.30469 56.8625 9.84375C56.4172 10.3594 55.9367 10.8516 55.4211 11.3203C54.9289 11.7891 54.4719 12.293 54.05 12.832C54.3312 13.1836 54.6477 13.5117 54.9992 13.8164C55.3742 14.0977 55.7492 14.3789 56.1242 14.6602C56.4992 14.9414 56.8508 15.2461 57.1789 15.5742C57.5305 15.8789 57.8234 16.2305 58.0578 16.6289C58.1281 16.7695 58.2805 16.8633 58.5148 16.9102C58.5852 17.1914 58.6789 17.4844 58.7961 17.7891C58.9367 18.0703 59.0656 18.3516 59.1828 18.6328C59.3 18.8906 59.3703 19.125 59.3937 19.3359C59.4172 19.5469 59.3586 19.7227 59.218 19.8633C59.382 19.957 59.4758 20.1094 59.4992 20.3203C59.5227 20.5078 59.5227 20.6602 59.4992 20.7773C58.9836 21.4102 58.632 21.8555 58.4445 22.1133C58.257 22.3711 58.1164 22.5586 58.0227 22.6758C57.9289 22.793 57.8352 22.8984 57.7414 22.9922C57.6477 23.0859 57.4367 23.2734 57.1086 23.5547C55.8664 24.3047 54.5656 24.9844 53.2062 25.5938C51.8703 26.1797 50.4758 26.5781 49.0227 26.7891C48.9055 26.9531 48.7297 27.082 48.4953 27.1758C48.2844 27.293 48.0383 27.3867 47.757 27.457C47.4758 27.5273 47.1711 27.5859 46.843 27.6328C46.5383 27.6797 46.257 27.7266 45.9992 27.7734C45.882 27.7266 45.8117 27.6445 45.7883 27.5273C45.7883 27.4336 45.7297 27.3633 45.6125 27.3164C45.5891 27.5977 45.4602 27.7383 45.2258 27.7383C45.0148 27.7617 44.7453 27.7148 44.4172 27.5977C44.0891 27.4805 43.7492 27.3164 43.3977 27.1055C43.0461 26.8945 42.7414 26.6953 42.4836 26.5078C42.3664 26.7188 42.2141 26.9414 42.0266 27.1758C41.8625 27.4102 41.6867 27.5742 41.4992 27.668C41.1711 27.6211 40.925 27.5859 40.7609 27.5625C40.6203 27.5391 40.4797 27.5977 40.3391 27.7383C40.1516 27.6445 40.0109 27.5391 39.9172 27.4219C39.8234 27.3281 39.7297 27.2227 39.6359 27.1055C39.5422 27.0117 39.4367 26.9297 39.3195 26.8594C39.2023 26.7656 39.0266 26.6836 38.7922 26.6133C38.8391 26.4961 38.8039 26.3203 38.6867 26.0859C38.5695 25.8281 38.4055 25.6758 38.1945 25.6289C38.3117 25.4414 38.2648 25.207 38.0539 24.9258C37.843 24.6211 37.6789 24.2812 37.5617 23.9062C37.5852 23.7422 37.5969 23.5781 37.5969 23.4141C37.6203 23.2266 37.6437 23.0625 37.6672 22.9219C37.7141 22.7578 37.7727 22.6172 37.843 22.5C37.9133 22.3828 38.0305 22.3008 38.1945 22.2539C38.1711 21.9492 38.0773 21.6562 37.9133 21.375C38.1242 21.2109 38.2648 21.0117 38.3352 20.7773C38.4055 20.5195 38.4641 20.2617 38.5109 20.0039C38.5812 19.7461 38.6633 19.5 38.757 19.2656C38.8508 19.0078 39.0031 18.7969 39.2141 18.6328C39.1672 18.5625 39.1203 18.5039 39.0734 18.457C39.0266 18.4102 39.0031 18.3281 39.0031 18.2109C39.3547 17.625 39.6008 17.1328 39.7414 16.7344C39.882 16.3125 39.9875 15.9141 40.0578 15.5391C40.1516 15.1406 40.2453 14.7188 40.3391 14.2734C40.4328 13.8281 40.6203 13.2656 40.9016 12.5859C40.8781 12.1641 40.925 11.7891 41.0422 11.4609C41.1594 11.1328 41.2766 10.8164 41.3937 10.5117C41.5344 10.1836 41.6398 9.84375 41.7102 9.49219C41.7805 9.14062 41.7687 8.73047 41.675 8.26172C41.2766 8.30859 40.9836 8.44922 40.7961 8.68359C40.632 8.91797 40.5266 9.23438 40.4797 9.63281C40.2687 9.82031 39.9992 9.91406 39.6711 9.91406C39.343 9.89062 39.05 9.92578 38.7922 10.0195ZM54.2609 16.8047C53.3703 16.3125 52.55 16.0195 51.8 15.9258C51.0734 15.832 50.3703 15.8438 49.6906 15.9609C49.0344 16.0547 48.4016 16.1953 47.7922 16.3828C47.1828 16.5703 46.5734 16.7109 45.9641 16.8047C45.6594 17.6016 45.343 18.4805 45.0148 19.4414C44.6867 20.4023 44.3703 21.3398 44.0656 22.2539C44.9094 22.1367 45.6828 21.9609 46.3859 21.7266C47.0891 21.4922 47.7687 21.2344 48.425 20.9531C49.0812 20.6484 49.7258 20.3555 50.3586 20.0742C50.9914 19.7695 51.6477 19.4883 52.3273 19.2305C52.3977 18.9492 52.55 18.7266 52.7844 18.5625C53.0187 18.3984 53.2531 18.2461 53.4875 18.1055C53.7219 17.9414 53.9211 17.7656 54.0852 17.5781C54.2492 17.3906 54.3078 17.1328 54.2609 16.8047ZM51.8 5.80078C50.3469 5.75391 48.9172 5.88281 47.5109 6.1875C46.1047 6.49219 44.9211 6.9375 43.9602 7.52344C44.4289 7.92188 44.9094 8.27344 45.4016 8.57812C45.9172 8.88281 46.3039 9.29297 46.5617 9.80859C47.6867 9.36328 48.6711 8.80078 49.5148 8.12109C50.3586 7.41797 51.1203 6.64453 51.8 5.80078ZM75.3617 27.1406C74.3305 27.2812 73.393 27.2344 72.5492 27C71.7055 26.7656 70.9437 26.4023 70.2641 25.9102C69.6078 25.418 69.0336 24.832 68.5414 24.1523C68.0727 23.4727 67.6859 22.7461 67.3812 21.9727C67.1703 20.3789 67.2289 18.9375 67.557 17.6484C67.8852 16.3359 68.3656 15.1289 68.9984 14.0273C69.6312 12.9258 70.3461 11.8945 71.143 10.9336C71.9633 9.97266 72.7484 9.04688 73.4984 8.15625C73.6625 8.22656 73.7914 8.22656 73.8852 8.15625C74.0023 8.08594 74.0961 7.99219 74.1664 7.875C74.2602 7.75781 74.3539 7.64063 74.4477 7.52344C74.5648 7.40625 74.6937 7.32422 74.8344 7.27734C74.9281 7.06641 75.0453 6.89062 75.1859 6.75C75.35 6.60938 75.5141 6.48047 75.6781 6.36328C75.8656 6.22266 76.0297 6.08203 76.1703 5.94141C76.3344 5.80078 76.475 5.625 76.5922 5.41406C76.8266 5.36719 77.0258 5.28516 77.1898 5.16797C77.3773 5.05078 77.5414 4.92188 77.682 4.78125C77.8461 4.64062 78.0102 4.51172 78.1742 4.39453C78.3383 4.27734 78.5375 4.18359 78.7719 4.11328V3.65625C79.2875 3.42188 79.6625 3.16406 79.8969 2.88281C80.1312 2.60156 80.4125 2.23828 80.7406 1.79297C80.9984 1.76953 81.1977 1.75781 81.3383 1.75781C81.5023 1.75781 81.7484 1.73438 82.0766 1.6875C82.2875 1.28906 82.4867 0.996094 82.6742 0.808594C82.8617 0.621094 83.1312 0.410156 83.4828 0.175781C83.8344 0.363281 84.2094 0.480469 84.6078 0.527344C85.0062 0.550781 85.3695 0.726562 85.6977 1.05469C85.7211 1.33594 85.8031 1.55859 85.9437 1.72266C86.0844 1.86328 86.2367 2.00391 86.4008 2.14453C86.5648 2.26172 86.7289 2.39062 86.893 2.53125C87.057 2.67188 87.1625 2.87109 87.2094 3.12891C87.3266 3.12891 87.3969 3.10547 87.4203 3.05859C87.4672 3.01172 87.5492 3 87.6664 3.02344C87.7133 3.21094 87.7602 3.36328 87.807 3.48047C87.8539 3.59766 87.9008 3.70313 87.9477 3.79688C88.018 3.89062 88.0766 3.99609 88.1234 4.11328C88.1937 4.23047 88.2523 4.37109 88.2992 4.53516C88.182 4.81641 88.0766 5.12109 87.9828 5.44922C87.8891 5.75391 87.7016 5.96484 87.4203 6.08203C87.4203 6.26953 87.4906 6.375 87.6312 6.39844C87.7719 6.39844 87.8539 6.48047 87.8773 6.64453C87.9008 6.85547 87.8656 7.03125 87.7719 7.17188C88.4281 8.27344 89.0258 9.43359 89.5648 10.6523C90.1039 11.8477 90.7133 12.9961 91.393 14.0977C91.3461 14.4258 91.3578 14.7539 91.4281 15.082C91.5219 15.3867 91.6273 15.6914 91.7445 15.9961C91.8852 16.3008 92.0141 16.6055 92.1312 16.9102C92.2484 17.2148 92.3305 17.5195 92.3773 17.8242C92.4242 18.2227 92.4242 18.6562 92.3773 19.125C92.3305 19.5703 92.2367 20.0039 92.0961 20.4258C91.9555 20.8477 91.768 21.2461 91.5336 21.6211C91.2992 21.9727 91.0297 22.2422 90.725 22.4297C90.35 22.8984 89.8812 23.2852 89.3187 23.5898C88.7562 23.8711 88.2406 24.2109 87.7719 24.6094C87.4437 24.7969 87.0922 24.9375 86.7172 25.0312C86.3422 25.1016 85.9555 25.1836 85.557 25.2773C85.2523 25.4648 84.8891 25.6523 84.4672 25.8398C84.0453 26.0039 83.6117 26.1562 83.1664 26.2969C82.7211 26.4375 82.2758 26.5547 81.8305 26.6484C81.3852 26.7188 80.9867 26.7305 80.6352 26.6836C79.7914 26.9883 78.9711 27.1992 78.1742 27.3164C77.3773 27.4336 76.4398 27.375 75.3617 27.1406ZM75.8187 14.3438C75.5844 14.8828 75.3031 15.375 74.975 15.8203C74.6703 16.2422 74.3656 16.6758 74.0609 17.1211C73.7562 17.5664 73.4867 18.0469 73.2523 18.5625C73.0414 19.0547 72.9242 19.6406 72.9008 20.3203C73.3695 20.7188 73.9203 20.9648 74.5531 21.0586C75.2094 21.1289 75.8773 21.1406 76.557 21.0938C77.2367 21.0234 77.9164 20.9297 78.5961 20.8125C79.2758 20.6953 79.8852 20.6367 80.4242 20.6367C80.4242 20.4258 80.518 20.3203 80.7055 20.3203C81.6898 20.2266 82.6039 19.957 83.4477 19.5117C84.2914 19.043 85.1703 18.5742 86.0844 18.1055C86.2016 17.8242 86.3539 17.5781 86.5414 17.3672C86.7289 17.1562 86.8344 16.8516 86.8578 16.4531C86.7406 16.2422 86.6586 16.0664 86.6117 15.9258C86.5883 15.7852 86.5766 15.5742 86.5766 15.293C85.9672 14.4492 85.4398 13.5352 84.9945 12.5508C84.5492 11.543 84.0336 10.5938 83.4477 9.70312C83.4008 9.82031 83.307 9.9375 83.1664 10.0547C83.0258 10.1719 82.8734 10.1484 82.7094 9.98438C82.6391 10.2188 82.5336 10.3828 82.393 10.4766C82.2523 10.5469 82.0883 10.582 81.9008 10.582C81.7367 10.582 81.5609 10.5469 81.3734 10.4766C81.2094 10.4062 81.057 10.3125 80.9164 10.1953C80.0961 10.8516 79.2758 11.4844 78.4555 12.0938C77.6586 12.7031 76.932 13.418 76.2758 14.2383C76.1586 14.3086 76.0883 14.332 76.0648 14.3086C76.0414 14.2852 75.9594 14.2969 75.8187 14.3438ZM101.806 9.59766C101.759 9.29297 101.701 9.10547 101.63 9.03516C101.795 8.61328 101.912 8.20313 101.982 7.80469C102.076 7.38281 102.146 6.98437 102.193 6.60938C102.24 6.28125 102.287 5.97656 102.334 5.69531C102.404 5.41406 102.486 5.14453 102.58 4.88672C102.978 4.79297 103.271 4.62891 103.459 4.39453C103.67 4.13672 103.834 3.91406 103.951 3.72656C104.373 3.70313 104.642 3.76172 104.759 3.90234C104.9 4.04297 105.052 4.27734 105.216 4.60547C105.334 4.86328 105.498 5.14453 105.709 5.44922C105.92 5.73047 106.236 5.95313 106.658 6.11719C106.728 6.375 106.81 6.62109 106.904 6.85547C106.998 7.08984 107.103 7.33594 107.22 7.59375C107.431 8.08594 107.63 8.60156 107.818 9.14062C108.005 9.65625 108.111 10.1484 108.134 10.6172C107.853 11.1562 107.63 11.7773 107.466 12.4805C107.326 13.1836 107.232 13.8984 107.185 14.625C107.162 15.3281 107.185 16.0078 107.255 16.6641C107.326 17.3203 107.443 17.8711 107.607 18.3164L107.818 18.8789L108.591 18.8086C109.435 18.5977 110.197 18.3633 110.877 18.1055C111.556 17.8242 112.189 17.4961 112.775 17.1211C113.361 16.7461 113.923 16.3242 114.463 15.8555C115.002 15.3633 115.564 14.7891 116.15 14.1328C116.713 13.4766 117.216 12.7383 117.662 11.918C118.107 11.0742 118.47 10.207 118.752 9.31641C119.056 8.42578 119.291 7.53516 119.455 6.64453C119.619 5.75391 119.724 4.92188 119.771 4.14844C120.216 3.9375 120.463 3.59766 120.509 3.12891L120.404 2.67188C120.334 2.55469 120.298 2.44922 120.298 2.35547C120.322 2.23828 120.357 2.13281 120.404 2.03906C120.591 1.5 120.99 1.10156 121.599 0.84375C122.021 1.125 122.408 1.42969 122.759 1.75781C123.134 2.08594 123.474 2.41406 123.779 2.74219C123.826 3.375 123.92 3.92578 124.06 4.39453C124.201 4.83984 124.353 5.27344 124.517 5.69531C124.681 6.09375 124.822 6.48047 124.939 6.85547C125.08 7.23047 125.173 7.6875 125.22 8.22656C124.986 8.92969 124.81 9.59766 124.693 10.2305C124.599 10.8398 124.505 11.4844 124.412 12.1641L124.341 12.5508C123.92 13.2773 123.498 14.0273 123.076 14.8008C122.677 15.5508 122.349 16.207 122.091 16.7695C121.951 16.9102 121.822 17.0742 121.705 17.2617C121.611 17.4492 121.517 17.6367 121.423 17.8242C121.377 17.8945 121.306 18.0117 121.213 18.1758C121.142 18.3398 121.072 18.457 121.002 18.5273L120.158 18.2109L119.947 19.3008L119.384 19.4414L118.963 19.9336C118.423 20.8711 117.849 21.6562 117.24 22.2891C116.654 22.9219 115.986 23.4844 115.236 23.9766C114.509 24.4688 113.677 24.9375 112.74 25.3828C111.826 25.8047 110.771 26.2617 109.576 26.7539C109.107 26.6836 108.697 26.6484 108.345 26.6484C108.017 26.625 107.689 26.6016 107.361 26.5781C107.033 26.5781 106.716 26.5664 106.412 26.543C106.107 26.5195 105.755 26.4844 105.357 26.4375C105.263 26.2266 105.134 26.0742 104.97 25.9805C104.806 25.8867 104.654 25.8398 104.513 25.8398C104.045 25.6055 103.693 25.2773 103.459 24.8555C103.224 24.4336 102.978 23.9648 102.72 23.4492C102.603 23.168 102.474 22.8867 102.334 22.6055C102.216 22.3242 102.064 22.0547 101.877 21.7969L102.58 21.5859L101.666 20.5312C101.595 20.4609 101.513 20.3906 101.42 20.3203C101.349 20.25 101.279 20.168 101.209 20.0742V19.4062C101.115 17.4844 101.068 15.7148 101.068 14.0977C101.091 12.457 101.314 11.0156 101.736 9.77344L101.806 9.59766ZM131.38 7.17188C131.356 6.98437 131.309 6.82031 131.239 6.67969C131.192 6.51563 131.134 6.33984 131.063 6.15234C130.946 5.87109 130.841 5.56641 130.747 5.23828C130.653 4.91016 130.606 4.52344 130.606 4.07812C130.653 3.84375 130.712 3.67969 130.782 3.58594C130.852 3.46875 130.923 3.375 130.993 3.30469L131.134 2.67188H131.661C131.848 2.69531 132.036 2.70703 132.223 2.70703C132.434 2.70703 132.634 2.70703 132.821 2.70703C133.712 2.70703 134.626 2.67188 135.563 2.60156C136.501 2.53125 137.462 2.44922 138.446 2.35547C139.524 2.21484 140.684 2.10938 141.927 2.03906C142.044 1.78125 142.114 1.61719 142.137 1.54688C142.184 1.47656 142.231 1.39453 142.278 1.30078L142.665 1.08984C143.204 1.06641 143.579 1.13672 143.79 1.30078C144.001 1.44141 144.165 1.58203 144.282 1.72266C144.891 1.67578 145.512 1.61719 146.145 1.54688C146.778 1.45313 147.434 1.35937 148.114 1.26562C149.052 1.14844 150.001 1.03125 150.962 0.914062C151.923 0.796875 152.86 0.738281 153.774 0.738281C154.173 0.738281 154.548 0.75 154.899 0.773438C155.251 0.796875 155.591 0.832031 155.919 0.878906L156.341 1.19531C156.434 1.35937 156.552 1.51172 156.692 1.65234C156.833 1.79297 156.997 1.93359 157.184 2.07422C157.536 2.35547 157.876 2.70703 158.204 3.12891C158.555 3.55078 158.684 4.17187 158.591 4.99219L158.415 5.34375C158.321 5.4375 158.204 5.53125 158.063 5.625L157.712 6.08203H157.325C157.091 6.08203 156.915 6.10547 156.798 6.15234C156.68 6.17578 156.54 6.22266 156.376 6.29297C156.282 6.33984 156.177 6.38672 156.059 6.43359C155.942 6.45703 155.813 6.49219 155.673 6.53906C155.415 6.51563 155.216 6.50391 155.075 6.50391C154.934 6.50391 154.77 6.50391 154.583 6.50391C153.88 6.50391 153.118 6.55078 152.298 6.64453C151.477 6.73828 150.68 6.84375 149.907 6.96094C149.345 7.03125 148.805 7.10156 148.29 7.17188C147.774 7.21875 147.305 7.26562 146.884 7.3125C146.649 7.92188 146.438 8.46094 146.251 8.92969C146.063 9.39844 145.864 9.86719 145.653 10.3359C145.442 10.8047 145.243 11.2852 145.055 11.7773C144.868 12.2461 144.692 12.7734 144.528 13.3594C144.247 13.7812 144.012 14.1914 143.825 14.5898C143.637 14.9648 143.485 15.3984 143.368 15.8906C143.016 16.2891 142.759 16.7227 142.595 17.1914C142.454 17.6602 142.325 18.0586 142.208 18.3867L142.067 18.9141C141.903 19.0781 141.798 19.207 141.751 19.3008C141.727 19.3945 141.669 19.5 141.575 19.6172C141.505 19.9219 141.411 20.2148 141.294 20.4961C141.247 20.6133 141.2 20.7422 141.153 20.8828C141.106 21 141.095 21.0938 141.118 21.1641C141.071 21.4219 141.001 21.6211 140.907 21.7617C140.907 21.9023 140.895 22.043 140.872 22.1836C140.848 22.3242 140.825 22.4648 140.802 22.6055C140.755 22.7695 140.72 22.9219 140.696 23.0625C140.673 23.1797 140.684 23.2969 140.731 23.4141C140.802 23.5078 140.872 23.6016 140.942 23.6953C141.012 23.7891 141.071 23.9062 141.118 24.0469C141.165 24.0938 141.223 24.1289 141.294 24.1523C141.364 24.1758 141.423 24.2109 141.47 24.2578C141.657 24.4219 141.833 24.5156 141.997 24.5391L142.348 24.9609C142.489 25.8047 142.36 26.4609 141.962 26.9297C141.54 27.4688 140.837 27.7383 139.852 27.7383L139.36 27.7031C139.196 27.5391 139.102 27.4336 139.079 27.3867C138.868 27.293 138.692 27.2109 138.552 27.1406C138.411 27.0938 138.282 26.9883 138.165 26.8242C138.118 26.7773 138.059 26.7539 137.989 26.7539C137.919 26.7305 137.86 26.6953 137.813 26.6484C137.579 26.5781 137.391 26.4961 137.251 26.4023L136.864 26.1914C136.887 25.957 136.899 25.793 136.899 25.6992C136.712 25.4414 136.559 25.1602 136.442 24.8555C136.348 24.5508 136.266 24.2344 136.196 23.9062C136.126 23.6484 136.055 23.4141 135.985 23.2031C135.938 22.9922 135.856 22.8047 135.739 22.6406C135.692 21 135.845 19.6289 136.196 18.5273C136.548 17.4023 136.934 16.3125 137.356 15.2578C137.591 14.6953 137.813 14.1211 138.024 13.5352C138.235 12.9492 138.423 12.3516 138.587 11.7422L138.973 11.3555C139.137 11.2148 139.243 11.1328 139.29 11.1094C139.29 10.8047 139.348 10.5117 139.466 10.2305C139.583 9.92578 139.712 9.62109 139.852 9.31641C139.946 9.12891 140.028 8.94141 140.098 8.75391C140.192 8.56641 140.251 8.40234 140.274 8.26172C140.11 8.26172 139.958 8.27344 139.817 8.29688C139.7 8.29688 139.571 8.30859 139.43 8.33203C139.126 8.40234 138.833 8.4375 138.552 8.4375C138.341 8.4375 138.188 8.42578 138.095 8.40234C137.907 8.49609 137.731 8.55469 137.567 8.57812C137.403 8.57812 137.239 8.57812 137.075 8.57812H136.653H136.231C135.95 8.57812 135.727 8.61328 135.563 8.68359C135.235 8.68359 135.024 8.68359 134.93 8.68359C134.837 8.68359 134.731 8.68359 134.614 8.68359H134.192H133.77C133.583 8.68359 133.372 8.67187 133.137 8.64844C132.903 8.60156 132.657 8.50781 132.399 8.36719L132.153 8.08594C132.012 7.82812 131.884 7.6875 131.766 7.66406L131.38 7.55859V7.17188Z" fill="black"/>
</g>
<defs>
<filter id="filter0_d_5_2" x="0.0859375" y="0.175781" width="162.645" height="35.5977" filterUnits="userSpaceOnUse" color-interpolation-filters="sRGB">
<feFlood flood-opacity="0" result="BackgroundImageFix"/>
<feColorMatrix in="SourceAlpha" type="matrix" values="0 0 0 0 0 0 0 0 0 0 0 0 0 0 0 0 0 0 127 0" result="hardAlpha"/>
<feOffset dy="4"/>
<feGaussianBlur stdDeviation="2"/>
<feComposite in2="hardAlpha" operator="out"/>
<feColorMatrix type="matrix" values="0 0 0 0 0 0 0 0 0 0 0 0 0 0 0 0 0 0 0.25 0"/>
<feBlend mode="normal" in2="BackgroundImageFix" result="effect1_dropShadow_5_2"/>
<feBlend mode="normal" in="SourceGraphic" in2="effect1_dropShadow_5_2" result="shape"/>
</filter>
</defs>
</svg>
