<svg width="22" height="99" viewBox="0 0 22 99" fill="none" xmlns="http://www.w3.org/2000/svg">
<g style="mix-blend-mode:overlay" filter="url(#filter0_d_9_15)">
<path d="M6.45312 10.6406C6.15104 10.4115 5.90104 10.125 5.70312 9.78125C5.51562 9.4375 5.36458 9.07292 5.25 8.6875C5.14583 8.30208 5.07292 7.90625 5.03125 7.5C5 7.08333 4.98958 6.6875 5 6.3125C5.09375 6.03125 5.20833 5.77604 5.34375 5.54688C5.47917 5.30729 5.63021 5.08333 5.79688 4.875C5.96354 4.65625 6.13542 4.45312 6.3125 4.26562C6.5 4.06771 6.68229 3.86979 6.85938 3.67188C6.92188 3.67188 6.97917 3.6875 7.03125 3.71875C7.07292 3.60417 7.13542 3.50521 7.21875 3.42188C7.30208 3.33854 7.39062 3.26562 7.48438 3.20312C7.57812 3.13021 7.67188 3.0625 7.76562 3C7.85938 2.92708 7.9375 2.84375 8 2.75C8.26042 2.6875 8.48958 2.59896 8.6875 2.48438C8.89583 2.36979 9.09375 2.24479 9.28125 2.10938C9.46875 1.97396 9.66146 1.84896 9.85938 1.73438C10.0573 1.61979 10.2865 1.53125 10.5469 1.46875C10.6406 1.36458 10.7552 1.27604 10.8906 1.20312C11.0365 1.13021 11.1771 1.0625 11.3125 1C11.4583 0.9375 11.5938 0.869792 11.7188 0.796875C11.8542 0.723958 11.9635 0.625 12.0469 0.5C12.1094 0.583333 12.1979 0.614583 12.3125 0.59375C12.4271 0.5625 12.5312 0.53125 12.625 0.5C12.6875 0.489583 12.7396 0.5 12.7812 0.53125C12.8229 0.5625 12.8594 0.598958 12.8906 0.640625C12.9323 0.671875 12.9635 0.692708 12.9844 0.703125C13.0156 0.713542 13.0469 0.682292 13.0781 0.609375C13.1615 0.619792 13.1823 0.65625 13.1406 0.71875C13.1094 0.78125 13.0885 0.822917 13.0781 0.84375C13.1823 0.822917 13.2656 0.84375 13.3281 0.90625C13.401 0.958333 13.5104 0.994792 13.6562 1.01562C13.7083 1.06771 13.724 1.10938 13.7031 1.14062C13.6823 1.17188 13.6667 1.22396 13.6562 1.29688C14.0312 1.41146 14.2708 1.59375 14.375 1.84375C14.4792 2.08333 14.4896 2.33854 14.4062 2.60938C14.3229 2.86979 14.1667 3.11458 13.9375 3.34375C13.7188 3.5625 13.474 3.70833 13.2031 3.78125C12.8802 3.86458 12.5781 3.94792 12.2969 4.03125C12.026 4.11458 11.7604 4.20833 11.5 4.3125C11.25 4.41667 11.0104 4.54167 10.7812 4.6875C10.5625 4.82292 10.3698 4.98438 10.2031 5.17188C9.91146 5.25521 9.64583 5.36979 9.40625 5.51562C9.17708 5.66146 8.95833 5.82292 8.75 6C8.55208 6.17708 8.35938 6.36458 8.17188 6.5625C7.98438 6.75 7.79688 6.9375 7.60938 7.125C7.60938 7.30208 7.57812 7.4375 7.51562 7.53125C7.45312 7.625 7.38542 7.71875 7.3125 7.8125C7.33333 8.01042 7.375 8.18229 7.4375 8.32812C7.51042 8.46354 7.58333 8.60417 7.65625 8.75C8.48958 9 9.36979 9.15625 10.2969 9.21875C11.2344 9.27083 12.1615 9.30208 13.0781 9.3125C13.1719 9.4375 13.276 9.55729 13.3906 9.67188C13.5156 9.77604 13.625 9.88542 13.7188 10C13.8229 10.1146 13.901 10.25 13.9531 10.4062C14.0156 10.5521 14.0312 10.7292 14 10.9375C13.8229 11.1146 13.6302 11.2865 13.4219 11.4531C13.2135 11.6094 13.0052 11.7656 12.7969 11.9219C12.7031 11.9323 12.5885 11.9323 12.4531 11.9219C12.3281 11.9115 12.1927 11.9062 12.0469 11.9062C11.9115 11.9062 11.7708 11.9167 11.625 11.9375C11.4896 11.9479 11.3594 11.9792 11.2344 12.0312C10.5781 12.0104 9.90625 11.9323 9.21875 11.7969C8.53125 11.651 7.89583 11.4792 7.3125 11.2812C7.19792 11.1458 7.07812 11.0208 6.95312 10.9062C6.82812 10.7812 6.66146 10.6927 6.45312 10.6406ZM8.76562 25.0625C8.30729 25.125 7.89062 25.1042 7.51562 25C7.14062 24.8958 6.80208 24.7344 6.5 24.5156C6.20833 24.2969 5.95312 24.0365 5.73438 23.7344C5.52604 23.4323 5.35417 23.1094 5.21875 22.7656C5.125 22.0573 5.15104 21.4167 5.29688 20.8438C5.44271 20.2604 5.65625 19.724 5.9375 19.2344C6.21875 18.7448 6.53646 18.2865 6.89062 17.8594C7.25521 17.4323 7.60417 17.0208 7.9375 16.625C8.01042 16.6562 8.06771 16.6562 8.10938 16.625C8.16146 16.5938 8.20312 16.5521 8.23438 16.5C8.27604 16.4479 8.31771 16.3958 8.35938 16.3438C8.41146 16.2917 8.46875 16.2552 8.53125 16.2344C8.57292 16.1406 8.625 16.0625 8.6875 16C8.76042 15.9375 8.83333 15.8802 8.90625 15.8281C8.98958 15.7656 9.0625 15.7031 9.125 15.6406C9.19792 15.5781 9.26042 15.5 9.3125 15.4062C9.41667 15.3854 9.50521 15.349 9.57812 15.2969C9.66146 15.2448 9.73438 15.1875 9.79688 15.125C9.86979 15.0625 9.94271 15.0052 10.0156 14.9531C10.0885 14.901 10.1771 14.8594 10.2812 14.8281V14.625C10.5104 14.5208 10.6771 14.4062 10.7812 14.2812C10.8854 14.1562 11.0104 13.9948 11.1562 13.7969C11.2708 13.7865 11.3594 13.7812 11.4219 13.7812C11.4948 13.7812 11.6042 13.7708 11.75 13.75C11.8438 13.5729 11.9323 13.4427 12.0156 13.3594C12.099 13.276 12.2188 13.1823 12.375 13.0781C12.5312 13.1615 12.6979 13.2135 12.875 13.2344C13.0521 13.2448 13.2135 13.3229 13.3594 13.4688C13.3698 13.5938 13.4062 13.6927 13.4688 13.7656C13.5312 13.8281 13.599 13.8906 13.6719 13.9531C13.7448 14.0052 13.8177 14.0625 13.8906 14.125C13.9635 14.1875 14.0104 14.276 14.0312 14.3906C14.0833 14.3906 14.1146 14.3802 14.125 14.3594C14.1458 14.3385 14.1823 14.3333 14.2344 14.3438C14.2552 14.4271 14.276 14.4948 14.2969 14.5469C14.3177 14.599 14.3385 14.6458 14.3594 14.6875C14.3906 14.7292 14.4167 14.776 14.4375 14.8281C14.4688 14.8802 14.4948 14.9427 14.5156 15.0156C14.4635 15.1406 14.4167 15.276 14.375 15.4219C14.3333 15.5573 14.25 15.651 14.125 15.7031C14.125 15.7865 14.1562 15.8333 14.2188 15.8438C14.2812 15.8438 14.3177 15.8802 14.3281 15.9531C14.3385 16.0469 14.3229 16.125 14.2812 16.1875C14.5729 16.6771 14.8385 17.1927 15.0781 17.7344C15.3177 18.2656 15.5885 18.776 15.8906 19.2656C15.8698 19.4115 15.875 19.5573 15.9062 19.7031C15.9479 19.8385 15.9948 19.974 16.0469 20.1094C16.1094 20.2448 16.1667 20.3802 16.2188 20.5156C16.2708 20.651 16.3073 20.7865 16.3281 20.9219C16.349 21.099 16.349 21.2917 16.3281 21.5C16.3073 21.6979 16.2656 21.8906 16.2031 22.0781C16.1406 22.2656 16.0573 22.4427 15.9531 22.6094C15.849 22.7656 15.7292 22.8854 15.5938 22.9688C15.4271 23.1771 15.2188 23.349 14.9688 23.4844C14.7188 23.6094 14.4896 23.7604 14.2812 23.9375C14.1354 24.0208 13.9792 24.0833 13.8125 24.125C13.6458 24.1562 13.474 24.1927 13.2969 24.2344C13.1615 24.3177 13 24.401 12.8125 24.4844C12.625 24.5573 12.4323 24.625 12.2344 24.6875C12.0365 24.75 11.8385 24.8021 11.6406 24.8438C11.4427 24.875 11.2656 24.8802 11.1094 24.8594C10.7344 24.9948 10.3698 25.0885 10.0156 25.1406C9.66146 25.1927 9.24479 25.1667 8.76562 25.0625ZM8.96875 19.375C8.86458 19.6146 8.73958 19.8333 8.59375 20.0312C8.45833 20.2188 8.32292 20.4115 8.1875 20.6094C8.05208 20.8073 7.93229 21.0208 7.82812 21.25C7.73438 21.4688 7.68229 21.7292 7.67188 22.0312C7.88021 22.2083 8.125 22.3177 8.40625 22.3594C8.69792 22.3906 8.99479 22.3958 9.29688 22.375C9.59896 22.3438 9.90104 22.3021 10.2031 22.25C10.5052 22.1979 10.776 22.1719 11.0156 22.1719C11.0156 22.0781 11.0573 22.0312 11.1406 22.0312C11.5781 21.9896 11.9844 21.8698 12.3594 21.6719C12.7344 21.4635 13.125 21.2552 13.5312 21.0469C13.5833 20.9219 13.651 20.8125 13.7344 20.7188C13.8177 20.625 13.8646 20.4896 13.875 20.3125C13.8229 20.2188 13.7865 20.1406 13.7656 20.0781C13.7552 20.0156 13.75 19.9219 13.75 19.7969C13.4792 19.4219 13.2448 19.0156 13.0469 18.5781C12.849 18.1302 12.6198 17.7083 12.3594 17.3125C12.3385 17.3646 12.2969 17.4167 12.2344 17.4688C12.1719 17.5208 12.1042 17.5104 12.0312 17.4375C12 17.5417 11.9531 17.6146 11.8906 17.6562C11.8281 17.6875 11.7552 17.7031 11.6719 17.7031C11.599 17.7031 11.5208 17.6875 11.4375 17.6562C11.3646 17.625 11.2969 17.5833 11.2344 17.5312C10.8698 17.8229 10.5052 18.1042 10.1406 18.375C9.78646 18.6458 9.46354 18.9635 9.17188 19.3281C9.11979 19.3594 9.08854 19.3698 9.07812 19.3594C9.06771 19.349 9.03125 19.3542 8.96875 19.375ZM7.82812 36.5312C7.72396 36.6146 7.66146 36.724 7.64062 36.8594C7.61979 36.9844 7.59375 37.1094 7.5625 37.2344C7.53125 37.3594 7.47396 37.4688 7.39062 37.5625C7.31771 37.6458 7.18229 37.6823 6.98438 37.6719C6.94271 37.724 6.93229 37.7552 6.95312 37.7656C6.98438 37.776 7.01042 37.8229 7.03125 37.9062C6.88542 37.8854 6.78125 37.8958 6.71875 37.9375C6.65625 37.9792 6.57812 38.0104 6.48438 38.0312C6.24479 37.9583 6.04167 37.8281 5.875 37.6406C5.71875 37.4427 5.57812 37.2292 5.45312 37C5.33854 36.7708 5.23438 36.5365 5.14062 36.2969C5.05729 36.0573 4.96875 35.849 4.875 35.6719C4.875 35.6302 4.89583 35.6146 4.9375 35.625C4.96875 35.625 5 35.625 5.03125 35.625C4.97917 35.5208 4.94271 35.4062 4.92188 35.2812C4.89062 35.1458 4.83854 35.0365 4.76562 34.9531C5.06771 34.3073 5.39062 33.6354 5.73438 32.9375C6.07812 32.2292 6.42188 31.5156 6.76562 30.7969C7.11979 30.0677 7.46875 29.3385 7.8125 28.6094C8.16667 27.8698 8.50521 27.1458 8.82812 26.4375C9.11979 26.5417 9.40104 26.6667 9.67188 26.8125C9.95312 26.9479 10.2083 27.1094 10.4375 27.2969C10.6667 27.4844 10.8594 27.7031 11.0156 27.9531C11.1823 28.1927 11.2917 28.4688 11.3438 28.7812C11.3229 28.8438 11.2969 28.8646 11.2656 28.8438C11.2344 28.8229 11.2083 28.8333 11.1875 28.875C11.2396 28.9375 11.2656 28.9844 11.2656 29.0156C11.276 29.0365 11.276 29.0625 11.2656 29.0938C11.2552 29.1146 11.25 29.1458 11.25 29.1875C11.25 29.2292 11.276 29.2865 11.3281 29.3594C11.276 29.349 11.2396 29.3594 11.2188 29.3906C11.1979 29.4115 11.1615 29.4115 11.1094 29.3906C11.1615 29.5365 11.1771 29.651 11.1562 29.7344C11.1354 29.8177 11.1042 29.8958 11.0625 29.9688C11.0208 30.0312 10.9844 30.1042 10.9531 30.1875C10.9323 30.2604 10.9427 30.3646 10.9844 30.5C10.9427 30.5 10.9115 30.5104 10.8906 30.5312C10.8802 30.5417 10.8698 30.5573 10.8594 30.5781C10.849 30.599 10.8333 30.6198 10.8125 30.6406C10.8021 30.651 10.776 30.651 10.7344 30.6406C10.7656 30.9115 10.776 31.1875 10.7656 31.4688C10.7552 31.7396 10.7448 32.0208 10.7344 32.3125C10.724 32.5938 10.724 32.8854 10.7344 33.1875C10.7448 33.4896 10.7865 33.8021 10.8594 34.125C11.3073 33.8646 11.6667 33.526 11.9375 33.1094C12.2188 32.6927 12.4375 32.2292 12.5938 31.7188C12.7604 31.2083 12.8854 30.6615 12.9688 30.0781C13.0625 29.4948 13.1562 28.901 13.25 28.2969C13.3646 28.1823 13.4531 28.0417 13.5156 27.875C13.5885 27.7083 13.6458 27.5365 13.6875 27.3594C13.7396 27.1823 13.7865 27.0052 13.8281 26.8281C13.8802 26.6406 13.9479 26.474 14.0312 26.3281C14.2188 26.349 14.375 26.4062 14.5 26.5C14.6354 26.5833 14.7604 26.6823 14.875 26.7969C14.9896 26.901 15.1094 27 15.2344 27.0938C15.3594 27.1875 15.5156 27.25 15.7031 27.2812C15.849 27.4896 15.9844 27.6927 16.1094 27.8906C16.2344 28.0781 16.3177 28.2917 16.3594 28.5312C16.2969 28.6354 16.25 28.75 16.2188 28.875C16.1875 29 16.151 29.125 16.1094 29.25C16.0781 29.375 16.0312 29.4896 15.9688 29.5938C15.9062 29.6979 15.8177 29.7865 15.7031 29.8594C15.6719 30.1719 15.625 30.4635 15.5625 30.7344C15.5 31.0052 15.4427 31.2708 15.3906 31.5312C15.3385 31.7917 15.2917 32.0625 15.25 32.3438C15.2083 32.625 15.1927 32.9323 15.2031 33.2656C15.1094 33.5677 15.0052 33.8802 14.8906 34.2031C14.776 34.5156 14.6927 34.8073 14.6406 35.0781C14.4427 35.2344 14.2865 35.4271 14.1719 35.6562C14.0573 35.8854 13.9375 36.1146 13.8125 36.3438C13.7604 36.3854 13.7292 36.3958 13.7188 36.375C13.7083 36.3438 13.6615 36.3229 13.5781 36.3125C13.5885 36.4062 13.5677 36.4688 13.5156 36.5C13.474 36.5208 13.4792 36.5938 13.5312 36.7188C13.3542 36.8021 13.1979 36.9115 13.0625 37.0469C12.9271 37.1823 12.776 37.3073 12.6094 37.4219C12.4531 37.5365 12.2656 37.6146 12.0469 37.6562C11.8385 37.6875 11.5625 37.6406 11.2188 37.5156C10.7083 37.1406 10.25 36.7083 9.84375 36.2188C9.4375 35.7292 9.11458 35.151 8.875 34.4844C8.77083 34.5156 8.69271 34.5833 8.64062 34.6875C8.58854 34.7917 8.54167 34.901 8.5 35.0156C8.45833 35.1302 8.41667 35.2344 8.375 35.3281C8.33333 35.4219 8.27083 35.4688 8.1875 35.4688C8.16667 35.5625 8.125 35.651 8.0625 35.7344C8.01042 35.8073 7.95833 35.8854 7.90625 35.9688C7.85417 36.0417 7.8125 36.125 7.78125 36.2188C7.76042 36.3125 7.77604 36.4167 7.82812 36.5312ZM5.34375 42.1875C5.33333 42.1042 5.3125 42.0312 5.28125 41.9688C5.26042 41.8958 5.23438 41.8177 5.20312 41.7344C5.15104 41.6094 5.10417 41.474 5.0625 41.3281C5.02083 41.1823 5 41.0104 5 40.8125C5.02083 40.7083 5.04688 40.6354 5.07812 40.5938C5.10938 40.5417 5.14062 40.5 5.17188 40.4688L5.23438 40.1875H5.46875C5.55208 40.1979 5.63542 40.2031 5.71875 40.2031C5.8125 40.2031 5.90104 40.2031 5.98438 40.2031C6.38021 40.2031 6.78646 40.1875 7.20312 40.1562C7.61979 40.125 8.04688 40.0885 8.48438 40.0469C8.96354 39.9844 9.47917 39.9375 10.0312 39.9062C10.0833 39.7917 10.1146 39.7188 10.125 39.6875C10.1458 39.6562 10.1667 39.6198 10.1875 39.5781L10.3594 39.4844C10.599 39.474 10.7656 39.5052 10.8594 39.5781C10.9531 39.6406 11.026 39.7031 11.0781 39.7656C11.349 39.7448 11.625 39.7188 11.9062 39.6875C12.1875 39.6458 12.4792 39.6042 12.7812 39.5625C13.1979 39.5104 13.6198 39.4583 14.0469 39.4062C14.474 39.3542 14.8906 39.3281 15.2969 39.3281C15.474 39.3281 15.6406 39.3333 15.7969 39.3438C15.9531 39.3542 16.1042 39.3698 16.25 39.3906L16.4375 39.5312C16.4792 39.6042 16.5312 39.6719 16.5938 39.7344C16.6562 39.7969 16.7292 39.8594 16.8125 39.9219C16.9688 40.0469 17.1198 40.2031 17.2656 40.3906C17.4219 40.5781 17.4792 40.8542 17.4375 41.2188L17.3594 41.375C17.3177 41.4167 17.2656 41.4583 17.2031 41.5L17.0469 41.7031H16.875C16.7708 41.7031 16.6927 41.7135 16.6406 41.7344C16.5885 41.7448 16.526 41.7656 16.4531 41.7969C16.4115 41.8177 16.3646 41.8385 16.3125 41.8594C16.2604 41.8698 16.2031 41.8854 16.1406 41.9062C16.026 41.8958 15.9375 41.8906 15.875 41.8906C15.8125 41.8906 15.7396 41.8906 15.6562 41.8906C15.3438 41.8906 15.0052 41.9115 14.6406 41.9531C14.276 41.9948 13.9219 42.0417 13.5781 42.0938C13.3281 42.125 13.0885 42.1562 12.8594 42.1875C12.6302 42.2083 12.4219 42.2292 12.2344 42.25C12.1302 42.5208 12.0365 42.7604 11.9531 42.9688C11.8698 43.1771 11.7812 43.3854 11.6875 43.5938C11.5938 43.8021 11.5052 44.0156 11.4219 44.2344C11.3385 44.4427 11.2604 44.6771 11.1875 44.9375C11.0625 45.125 10.9583 45.3073 10.875 45.4844C10.7917 45.651 10.724 45.8438 10.6719 46.0625C10.5156 46.2396 10.401 46.4323 10.3281 46.6406C10.2656 46.849 10.2083 47.026 10.1562 47.1719L10.0938 47.4062C10.0208 47.4792 9.97396 47.5365 9.95312 47.5781C9.94271 47.6198 9.91667 47.6667 9.875 47.7188C9.84375 47.8542 9.80208 47.9844 9.75 48.1094C9.72917 48.1615 9.70833 48.2188 9.6875 48.2812C9.66667 48.3333 9.66146 48.375 9.67188 48.4062C9.65104 48.5208 9.61979 48.6094 9.57812 48.6719C9.57812 48.7344 9.57292 48.7969 9.5625 48.8594C9.55208 48.9219 9.54167 48.9844 9.53125 49.0469C9.51042 49.1198 9.49479 49.1875 9.48438 49.25C9.47396 49.3021 9.47917 49.3542 9.5 49.4062C9.53125 49.4479 9.5625 49.4896 9.59375 49.5312C9.625 49.5729 9.65104 49.625 9.67188 49.6875C9.69271 49.7083 9.71875 49.724 9.75 49.7344C9.78125 49.7448 9.80729 49.7604 9.82812 49.7812C9.91146 49.8542 9.98958 49.8958 10.0625 49.9062L10.2188 50.0938C10.2812 50.4688 10.224 50.7604 10.0469 50.9688C9.85938 51.2083 9.54688 51.3281 9.10938 51.3281L8.89062 51.3125C8.81771 51.2396 8.77604 51.1927 8.76562 51.1719C8.67188 51.1302 8.59375 51.0938 8.53125 51.0625C8.46875 51.0417 8.41146 50.9948 8.35938 50.9219C8.33854 50.901 8.3125 50.8906 8.28125 50.8906C8.25 50.8802 8.22396 50.8646 8.20312 50.8438C8.09896 50.8125 8.01562 50.776 7.95312 50.7344L7.78125 50.6406C7.79167 50.5365 7.79688 50.4635 7.79688 50.4219C7.71354 50.3073 7.64583 50.1823 7.59375 50.0469C7.55208 49.9115 7.51562 49.7708 7.48438 49.625C7.45312 49.5104 7.42188 49.4062 7.39062 49.3125C7.36979 49.2188 7.33333 49.1354 7.28125 49.0625C7.26042 48.3333 7.32812 47.724 7.48438 47.2344C7.64062 46.7344 7.8125 46.25 8 45.7812C8.10417 45.5312 8.20312 45.276 8.29688 45.0156C8.39062 44.7552 8.47396 44.4896 8.54688 44.2188L8.71875 44.0469C8.79167 43.9844 8.83854 43.9479 8.85938 43.9375C8.85938 43.8021 8.88542 43.6719 8.9375 43.5469C8.98958 43.4115 9.04688 43.276 9.10938 43.1406C9.15104 43.0573 9.1875 42.974 9.21875 42.8906C9.26042 42.8073 9.28646 42.7344 9.29688 42.6719C9.22396 42.6719 9.15625 42.6771 9.09375 42.6875C9.04167 42.6875 8.98438 42.6927 8.92188 42.7031C8.78646 42.7344 8.65625 42.75 8.53125 42.75C8.4375 42.75 8.36979 42.7448 8.32812 42.7344C8.24479 42.776 8.16667 42.8021 8.09375 42.8125C8.02083 42.8125 7.94792 42.8125 7.875 42.8125H7.6875H7.5C7.375 42.8125 7.27604 42.8281 7.20312 42.8594C7.05729 42.8594 6.96354 42.8594 6.92188 42.8594C6.88021 42.8594 6.83333 42.8594 6.78125 42.8594H6.59375H6.40625C6.32292 42.8594 6.22917 42.8542 6.125 42.8438C6.02083 42.8229 5.91146 42.7812 5.79688 42.7188L5.6875 42.5938C5.625 42.4792 5.56771 42.4167 5.51562 42.4062L5.34375 42.3594V42.1875ZM4.20312 62.5156L4.40625 62.3594L4.42188 62.0312C4.68229 61.3958 4.94792 60.7865 5.21875 60.2031C5.5 59.6198 5.79167 59.0208 6.09375 58.4062C6.1875 58.2083 6.28125 58.0104 6.375 57.8125C6.47917 57.6146 6.57812 57.4115 6.67188 57.2031C6.66146 57.1615 6.65625 57.1198 6.65625 57.0781C6.65625 57.026 6.66667 56.9688 6.6875 56.9062C6.83333 56.6979 6.94792 56.5104 7.03125 56.3438C7.125 56.1771 7.21354 56.0052 7.29688 55.8281C7.39062 55.6198 7.48958 55.4115 7.59375 55.2031C7.70833 54.9948 7.84896 54.7917 8.01562 54.5938L8.125 54.4375L8.29688 54.4531C8.33854 54.4323 8.38021 54.4167 8.42188 54.4062C8.47396 54.3854 8.53646 54.375 8.60938 54.375L8.89062 54.4219C9.23438 54.2656 9.53646 54.0417 9.79688 53.75C10.0677 53.4479 10.3385 53.0885 10.6094 52.6719L10.7969 52.4062L11.0469 52.5625C11.099 52.5938 11.1823 52.625 11.2969 52.6562C11.4115 52.6875 11.5312 52.724 11.6562 52.7656C11.875 52.8177 12.0885 52.8802 12.2969 52.9531C12.5052 53.0156 12.6667 53.1042 12.7812 53.2188L12.8594 53.3594C12.8802 53.474 12.8958 53.5781 12.9062 53.6719C12.9271 53.7656 12.9479 53.8594 12.9688 53.9531C13.0104 54.1719 13.0469 54.3906 13.0781 54.6094C13.1094 54.8177 13.1302 55.0521 13.1406 55.3125C13.1927 55.5208 13.2396 55.7344 13.2812 55.9531C13.3333 56.1615 13.3802 56.3698 13.4219 56.5781C13.474 56.8802 13.5312 57.1719 13.5938 57.4531C13.6562 57.724 13.7396 57.9844 13.8438 58.2344C13.9479 58.2344 14.0104 58.2396 14.0312 58.25C14.1562 58.1979 14.3021 58.1667 14.4688 58.1562L14.6719 58.1406L14.7344 58.3281C14.7552 58.3594 14.7812 58.3906 14.8125 58.4219C14.8438 58.4531 14.8802 58.4844 14.9219 58.5156C15.0885 58.526 15.2083 58.5625 15.2812 58.625C15.3646 58.6771 15.4323 58.7292 15.4844 58.7812C15.5052 58.8021 15.5312 58.8281 15.5625 58.8594C15.5938 58.8802 15.6198 58.8958 15.6406 58.9062L15.9219 59.0156L15.7656 59.3125C15.651 59.5312 15.474 59.7448 15.2344 59.9531C15.0052 60.1615 14.7448 60.3333 14.4531 60.4688C14.474 60.5417 14.4844 60.6094 14.4844 60.6719C14.4948 60.7344 14.5104 60.8073 14.5312 60.8906C14.5729 61.099 14.6042 61.3177 14.625 61.5469C14.6562 61.7656 14.6562 61.9948 14.625 62.2344C14.5208 62.5052 14.3958 62.75 14.25 62.9688C14.1146 63.1771 13.9479 63.3698 13.75 63.5469C13.5625 63.7135 13.349 63.8542 13.1094 63.9688C12.8698 64.0729 12.6198 64.1302 12.3594 64.1406C12.2135 64.1094 12.1042 64.0729 12.0312 64.0312C11.9688 63.9896 11.9115 63.9479 11.8594 63.9062C11.776 63.8438 11.7083 63.8021 11.6562 63.7812L11.4531 63.6875L11.5156 63.4531C11.5469 63.3698 11.5417 63.2969 11.5 63.2344C11.4688 63.1719 11.3958 63.0885 11.2812 62.9844C11.2396 62.9531 11.2031 62.9219 11.1719 62.8906C11.1406 62.849 11.1042 62.8073 11.0625 62.7656L10.75 62.4062L11.2656 62.2656C11.5781 62.1823 11.7865 62.0781 11.8906 61.9531C11.9948 61.8177 12.0365 61.5833 12.0156 61.25C11.7552 61.1979 11.5417 61.1927 11.375 61.2344C11.2083 61.2656 11.0417 61.3021 10.875 61.3438C10.6354 61.4062 10.401 61.4635 10.1719 61.5156C9.94271 61.5573 9.69271 61.5781 9.42188 61.5781C9.24479 61.5781 9.05729 61.5625 8.85938 61.5312L8.6875 61.5156L8.64062 61.3438C8.64062 61.3229 8.625 61.3021 8.59375 61.2812C8.57292 61.25 8.55208 61.224 8.53125 61.2031C8.47917 61.1406 8.41667 61.0573 8.34375 60.9531C8.27083 60.849 8.25521 60.7188 8.29688 60.5625C8.22396 60.4479 8.18229 60.3281 8.17188 60.2031C8.13021 60.2865 8.09375 60.3698 8.0625 60.4531C8.04167 60.526 8.02083 60.599 8 60.6719L7.9375 60.875L7.73438 60.9062C7.71354 60.9271 7.69271 60.9583 7.67188 61C7.66146 61.0417 7.66146 61.0729 7.67188 61.0938L7.73438 61.2656L7.57812 61.4062C7.55729 61.4375 7.53125 61.4635 7.5 61.4844C7.46875 61.5052 7.44271 61.526 7.42188 61.5469C7.40104 61.6615 7.36979 61.7708 7.32812 61.875C7.29688 61.9792 7.26042 62.0833 7.21875 62.1875C7.16667 62.3542 7.11458 62.5156 7.0625 62.6719C7.02083 62.8281 7 62.9844 7 63.1406L6.9375 63.3438C6.88542 63.4271 6.81771 63.4896 6.73438 63.5312C6.66146 63.5729 6.58854 63.6094 6.51562 63.6406C6.41146 63.6823 6.33854 63.724 6.29688 63.7656L6.25 63.9688L6.01562 64C5.88021 64.0312 5.78125 64.0521 5.71875 64.0625C5.66667 64.0729 5.60417 64.0781 5.53125 64.0781L5.32812 64.0625C5.20312 63.9375 5.09896 63.8438 5.01562 63.7812C4.94271 63.7083 4.85417 63.6458 4.75 63.5938L4.65625 63.4688C4.61458 63.3854 4.58854 63.3125 4.57812 63.25C4.56771 63.1771 4.55208 63.1042 4.53125 63.0312C4.51042 62.8958 4.47917 62.8021 4.4375 62.75L4.20312 62.5156ZM9.1875 58.4531C9.04167 58.6615 8.90104 58.8802 8.76562 59.1094C8.83854 59.099 8.90625 59.0938 8.96875 59.0938C9.04167 59.0938 9.11458 59.0885 9.1875 59.0781C9.55208 59.0573 9.89062 59.0312 10.2031 59C10.5156 58.9688 10.8542 58.9167 11.2188 58.8438C11.1354 58.4583 11.0417 58.0677 10.9375 57.6719C10.8438 57.2656 10.7396 56.8594 10.625 56.4531L10.5469 56.6094C10.2865 56.8906 10.0365 57.1927 9.79688 57.5156C9.55729 57.8385 9.35938 58.1458 9.20312 58.4375L9.1875 58.4531ZM6.45312 75.6406C6.15104 75.4115 5.90104 75.125 5.70312 74.7812C5.51562 74.4375 5.36458 74.0729 5.25 73.6875C5.14583 73.3021 5.07292 72.9062 5.03125 72.5C5 72.0833 4.98958 71.6875 5 71.3125C5.09375 71.0312 5.20833 70.776 5.34375 70.5469C5.47917 70.3073 5.63021 70.0833 5.79688 69.875C5.96354 69.6562 6.13542 69.4531 6.3125 69.2656C6.5 69.0677 6.68229 68.8698 6.85938 68.6719C6.92188 68.6719 6.97917 68.6875 7.03125 68.7188C7.07292 68.6042 7.13542 68.5052 7.21875 68.4219C7.30208 68.3385 7.39062 68.2656 7.48438 68.2031C7.57812 68.1302 7.67188 68.0625 7.76562 68C7.85938 67.9271 7.9375 67.8438 8 67.75C8.26042 67.6875 8.48958 67.599 8.6875 67.4844C8.89583 67.3698 9.09375 67.2448 9.28125 67.1094C9.46875 66.974 9.66146 66.849 9.85938 66.7344C10.0573 66.6198 10.2865 66.5312 10.5469 66.4688C10.6406 66.3646 10.7552 66.276 10.8906 66.2031C11.0365 66.1302 11.1771 66.0625 11.3125 66C11.4583 65.9375 11.5938 65.8698 11.7188 65.7969C11.8542 65.724 11.9635 65.625 12.0469 65.5C12.1094 65.5833 12.1979 65.6146 12.3125 65.5938C12.4271 65.5625 12.5312 65.5312 12.625 65.5C12.6875 65.4896 12.7396 65.5 12.7812 65.5312C12.8229 65.5625 12.8594 65.599 12.8906 65.6406C12.9323 65.6719 12.9635 65.6927 12.9844 65.7031C13.0156 65.7135 13.0469 65.6823 13.0781 65.6094C13.1615 65.6198 13.1823 65.6562 13.1406 65.7188C13.1094 65.7812 13.0885 65.8229 13.0781 65.8438C13.1823 65.8229 13.2656 65.8438 13.3281 65.9062C13.401 65.9583 13.5104 65.9948 13.6562 66.0156C13.7083 66.0677 13.724 66.1094 13.7031 66.1406C13.6823 66.1719 13.6667 66.224 13.6562 66.2969C14.0312 66.4115 14.2708 66.5938 14.375 66.8438C14.4792 67.0833 14.4896 67.3385 14.4062 67.6094C14.3229 67.8698 14.1667 68.1146 13.9375 68.3438C13.7188 68.5625 13.474 68.7083 13.2031 68.7812C12.8802 68.8646 12.5781 68.9479 12.2969 69.0312C12.026 69.1146 11.7604 69.2083 11.5 69.3125C11.25 69.4167 11.0104 69.5417 10.7812 69.6875C10.5625 69.8229 10.3698 69.9844 10.2031 70.1719C9.91146 70.2552 9.64583 70.3698 9.40625 70.5156C9.17708 70.6615 8.95833 70.8229 8.75 71C8.55208 71.1771 8.35938 71.3646 8.17188 71.5625C7.98438 71.75 7.79688 71.9375 7.60938 72.125C7.60938 72.3021 7.57812 72.4375 7.51562 72.5312C7.45312 72.625 7.38542 72.7188 7.3125 72.8125C7.33333 73.0104 7.375 73.1823 7.4375 73.3281C7.51042 73.4635 7.58333 73.6042 7.65625 73.75C8.48958 74 9.36979 74.1562 10.2969 74.2188C11.2344 74.2708 12.1615 74.3021 13.0781 74.3125C13.1719 74.4375 13.276 74.5573 13.3906 74.6719C13.5156 74.776 13.625 74.8854 13.7188 75C13.8229 75.1146 13.901 75.25 13.9531 75.4062C14.0156 75.5521 14.0312 75.7292 14 75.9375C13.8229 76.1146 13.6302 76.2865 13.4219 76.4531C13.2135 76.6094 13.0052 76.7656 12.7969 76.9219C12.7031 76.9323 12.5885 76.9323 12.4531 76.9219C12.3281 76.9115 12.1927 76.9062 12.0469 76.9062C11.9115 76.9062 11.7708 76.9167 11.625 76.9375C11.4896 76.9479 11.3594 76.9792 11.2344 77.0312C10.5781 77.0104 9.90625 76.9323 9.21875 76.7969C8.53125 76.651 7.89583 76.4792 7.3125 76.2812C7.19792 76.1458 7.07812 76.0208 6.95312 75.9062C6.82812 75.7812 6.66146 75.6927 6.45312 75.6406ZM5.34375 81.1875C5.33333 81.1042 5.3125 81.0312 5.28125 80.9688C5.26042 80.8958 5.23438 80.8177 5.20312 80.7344C5.15104 80.6094 5.10417 80.474 5.0625 80.3281C5.02083 80.1823 5 80.0104 5 79.8125C5.02083 79.7083 5.04688 79.6354 5.07812 79.5938C5.10938 79.5417 5.14062 79.5 5.17188 79.4688L5.23438 79.1875H5.46875C5.55208 79.1979 5.63542 79.2031 5.71875 79.2031C5.8125 79.2031 5.90104 79.2031 5.98438 79.2031C6.38021 79.2031 6.78646 79.1875 7.20312 79.1562C7.61979 79.125 8.04688 79.0885 8.48438 79.0469C8.96354 78.9844 9.47917 78.9375 10.0312 78.9062C10.0833 78.7917 10.1146 78.7188 10.125 78.6875C10.1458 78.6562 10.1667 78.6198 10.1875 78.5781L10.3594 78.4844C10.599 78.474 10.7656 78.5052 10.8594 78.5781C10.9531 78.6406 11.026 78.7031 11.0781 78.7656C11.349 78.7448 11.625 78.7188 11.9062 78.6875C12.1875 78.6458 12.4792 78.6042 12.7812 78.5625C13.1979 78.5104 13.6198 78.4583 14.0469 78.4062C14.474 78.3542 14.8906 78.3281 15.2969 78.3281C15.474 78.3281 15.6406 78.3333 15.7969 78.3438C15.9531 78.3542 16.1042 78.3698 16.25 78.3906L16.4375 78.5312C16.4792 78.6042 16.5312 78.6719 16.5938 78.7344C16.6562 78.7969 16.7292 78.8594 16.8125 78.9219C16.9688 79.0469 17.1198 79.2031 17.2656 79.3906C17.4219 79.5781 17.4792 79.8542 17.4375 80.2188L17.3594 80.375C17.3177 80.4167 17.2656 80.4583 17.2031 80.5L17.0469 80.7031H16.875C16.7708 80.7031 16.6927 80.7135 16.6406 80.7344C16.5885 80.7448 16.526 80.7656 16.4531 80.7969C16.4115 80.8177 16.3646 80.8385 16.3125 80.8594C16.2604 80.8698 16.2031 80.8854 16.1406 80.9062C16.026 80.8958 15.9375 80.8906 15.875 80.8906C15.8125 80.8906 15.7396 80.8906 15.6562 80.8906C15.3438 80.8906 15.0052 80.9115 14.6406 80.9531C14.276 80.9948 13.9219 81.0417 13.5781 81.0938C13.3281 81.125 13.0885 81.1562 12.8594 81.1875C12.6302 81.2083 12.4219 81.2292 12.2344 81.25C12.1302 81.5208 12.0365 81.7604 11.9531 81.9688C11.8698 82.1771 11.7812 82.3854 11.6875 82.5938C11.5938 82.8021 11.5052 83.0156 11.4219 83.2344C11.3385 83.4427 11.2604 83.6771 11.1875 83.9375C11.0625 84.125 10.9583 84.3073 10.875 84.4844C10.7917 84.651 10.724 84.8438 10.6719 85.0625C10.5156 85.2396 10.401 85.4323 10.3281 85.6406C10.2656 85.849 10.2083 86.026 10.1562 86.1719L10.0938 86.4062C10.0208 86.4792 9.97396 86.5365 9.95312 86.5781C9.94271 86.6198 9.91667 86.6667 9.875 86.7188C9.84375 86.8542 9.80208 86.9844 9.75 87.1094C9.72917 87.1615 9.70833 87.2188 9.6875 87.2812C9.66667 87.3333 9.66146 87.375 9.67188 87.4062C9.65104 87.5208 9.61979 87.6094 9.57812 87.6719C9.57812 87.7344 9.57292 87.7969 9.5625 87.8594C9.55208 87.9219 9.54167 87.9844 9.53125 88.0469C9.51042 88.1198 9.49479 88.1875 9.48438 88.25C9.47396 88.3021 9.47917 88.3542 9.5 88.4062C9.53125 88.4479 9.5625 88.4896 9.59375 88.5312C9.625 88.5729 9.65104 88.625 9.67188 88.6875C9.69271 88.7083 9.71875 88.724 9.75 88.7344C9.78125 88.7448 9.80729 88.7604 9.82812 88.7812C9.91146 88.8542 9.98958 88.8958 10.0625 88.9062L10.2188 89.0938C10.2812 89.4688 10.224 89.7604 10.0469 89.9688C9.85938 90.2083 9.54688 90.3281 9.10938 90.3281L8.89062 90.3125C8.81771 90.2396 8.77604 90.1927 8.76562 90.1719C8.67188 90.1302 8.59375 90.0938 8.53125 90.0625C8.46875 90.0417 8.41146 89.9948 8.35938 89.9219C8.33854 89.901 8.3125 89.8906 8.28125 89.8906C8.25 89.8802 8.22396 89.8646 8.20312 89.8438C8.09896 89.8125 8.01562 89.776 7.95312 89.7344L7.78125 89.6406C7.79167 89.5365 7.79688 89.4635 7.79688 89.4219C7.71354 89.3073 7.64583 89.1823 7.59375 89.0469C7.55208 88.9115 7.51562 88.7708 7.48438 88.625C7.45312 88.5104 7.42188 88.4062 7.39062 88.3125C7.36979 88.2188 7.33333 88.1354 7.28125 88.0625C7.26042 87.3333 7.32812 86.724 7.48438 86.2344C7.64062 85.7344 7.8125 85.25 8 84.7812C8.10417 84.5312 8.20312 84.276 8.29688 84.0156C8.39062 83.7552 8.47396 83.4896 8.54688 83.2188L8.71875 83.0469C8.79167 82.9844 8.83854 82.9479 8.85938 82.9375C8.85938 82.8021 8.88542 82.6719 8.9375 82.5469C8.98958 82.4115 9.04688 82.276 9.10938 82.1406C9.15104 82.0573 9.1875 81.974 9.21875 81.8906C9.26042 81.8073 9.28646 81.7344 9.29688 81.6719C9.22396 81.6719 9.15625 81.6771 9.09375 81.6875C9.04167 81.6875 8.98438 81.6927 8.92188 81.7031C8.78646 81.7344 8.65625 81.75 8.53125 81.75C8.4375 81.75 8.36979 81.7448 8.32812 81.7344C8.24479 81.776 8.16667 81.8021 8.09375 81.8125C8.02083 81.8125 7.94792 81.8125 7.875 81.8125H7.6875H7.5C7.375 81.8125 7.27604 81.8281 7.20312 81.8594C7.05729 81.8594 6.96354 81.8594 6.92188 81.8594C6.88021 81.8594 6.83333 81.8594 6.78125 81.8594H6.59375H6.40625C6.32292 81.8594 6.22917 81.8542 6.125 81.8438C6.02083 81.8229 5.91146 81.7812 5.79688 81.7188L5.6875 81.5938C5.625 81.4792 5.56771 81.4167 5.51562 81.4062L5.34375 81.3594V81.1875Z" fill="white"/>
</g>
<defs>
<filter id="filter0_d_9_15" x="0.203125" y="0.484375" width="21.2969" height="97.8438" filterUnits="userSpaceOnUse" color-interpolation-filters="sRGB">
<feFlood flood-opacity="0" result="BackgroundImageFix"/>
<feColorMatrix in="SourceAlpha" type="matrix" values="0 0 0 0 0 0 0 0 0 0 0 0 0 0 0 0 0 0 127 0" result="hardAlpha"/>
<feOffset dy="4"/>
<feGaussianBlur stdDeviation="2"/>
<feComposite in2="hardAlpha" operator="out"/>
<feColorMatrix type="matrix" values="0 0 0 0 0 0 0 0 0 0 0 0 0 0 0 0 0 0 0.25 0"/>
<feBlend mode="normal" in2="BackgroundImageFix" result="effect1_dropShadow_9_15"/>
<feBlend mode="normal" in="SourceGraphic" in2="effect1_dropShadow_9_15" result="shape"/>
</filter>
</defs>
</svg>
