<svg width="216" height="36" viewBox="0 0 216 36" fill="none" xmlns="http://www.w3.org/2000/svg">
<g filter="url(#filter0_d_5_2)">
<path d="M8.26953 23.9414C7.58984 23.4258 7.02734 22.7812 6.58203 22.0078C6.16016 21.2344 5.82031 20.4141 5.5625 19.5469C5.32812 18.6797 5.16406 17.7891 5.07031 16.875C5 15.9375 4.97656 15.0469 5 14.2031C5.21094 13.5703 5.46875 12.9961 5.77344 12.4805C6.07812 11.9414 6.41797 11.4375 6.79297 10.9688C7.16797 10.4766 7.55469 10.0195 7.95312 9.59766C8.375 9.15234 8.78516 8.70703 9.18359 8.26172C9.32422 8.26172 9.45312 8.29688 9.57031 8.36719C9.66406 8.10937 9.80469 7.88672 9.99219 7.69922C10.1797 7.51172 10.3789 7.34766 10.5898 7.20703C10.8008 7.04297 11.0117 6.89062 11.2227 6.75C11.4336 6.58594 11.6094 6.39844 11.75 6.1875C12.3359 6.04688 12.8516 5.84766 13.2969 5.58984C13.7656 5.33203 14.2109 5.05078 14.6328 4.74609C15.0547 4.44141 15.4883 4.16016 15.9336 3.90234C16.3789 3.64453 16.8945 3.44531 17.4805 3.30469C17.6914 3.07031 17.9492 2.87109 18.2539 2.70703C18.582 2.54297 18.8984 2.39062 19.2031 2.25C19.5312 2.10938 19.8359 1.95703 20.1172 1.79297C20.4219 1.62891 20.668 1.40625 20.8555 1.125C20.9961 1.3125 21.1953 1.38281 21.4531 1.33594C21.7109 1.26562 21.9453 1.19531 22.1562 1.125C22.2969 1.10156 22.4141 1.125 22.5078 1.19531C22.6016 1.26562 22.6836 1.34766 22.7539 1.44141C22.8477 1.51172 22.918 1.55859 22.9648 1.58203C23.0352 1.60547 23.1055 1.53516 23.1758 1.37109C23.3633 1.39453 23.4102 1.47656 23.3164 1.61719C23.2461 1.75781 23.1992 1.85156 23.1758 1.89844C23.4102 1.85156 23.5977 1.89844 23.7383 2.03906C23.9023 2.15625 24.1484 2.23828 24.4766 2.28516C24.5938 2.40234 24.6289 2.49609 24.582 2.56641C24.5352 2.63672 24.5 2.75391 24.4766 2.91797C25.3203 3.17578 25.8594 3.58594 26.0938 4.14844C26.3281 4.6875 26.3516 5.26172 26.1641 5.87109C25.9766 6.45703 25.625 7.00781 25.1094 7.52344C24.6172 8.01562 24.0664 8.34375 23.457 8.50781C22.7305 8.69531 22.0508 8.88281 21.418 9.07031C20.8086 9.25781 20.2109 9.46875 19.625 9.70312C19.0625 9.9375 18.5234 10.2188 18.0078 10.5469C17.5156 10.8516 17.082 11.2148 16.707 11.6367C16.0508 11.8242 15.4531 12.082 14.9141 12.4102C14.3984 12.7383 13.9062 13.1016 13.4375 13.5C12.9922 13.8984 12.5586 14.3203 12.1367 14.7656C11.7148 15.1875 11.293 15.6094 10.8711 16.0312C10.8711 16.4297 10.8008 16.7344 10.6602 16.9453C10.5195 17.1562 10.3672 17.3672 10.2031 17.5781C10.25 18.0234 10.3438 18.4102 10.4844 18.7383C10.6484 19.043 10.8125 19.3594 10.9766 19.6875C12.8516 20.25 14.832 20.6016 16.918 20.7422C19.0273 20.8594 21.1133 20.9297 23.1758 20.9531C23.3867 21.2344 23.6211 21.5039 23.8789 21.7617C24.1602 21.9961 24.4062 22.2422 24.6172 22.5C24.8516 22.7578 25.0273 23.0625 25.1445 23.4141C25.2852 23.7422 25.3203 24.1406 25.25 24.6094C24.8516 25.0078 24.418 25.3945 23.9492 25.7695C23.4805 26.1211 23.0117 26.4727 22.543 26.8242C22.332 26.8477 22.0742 26.8477 21.7695 26.8242C21.4883 26.8008 21.1836 26.7891 20.8555 26.7891C20.5508 26.7891 20.2344 26.8125 19.9062 26.8594C19.6016 26.8828 19.3086 26.9531 19.0273 27.0703C17.5508 27.0234 16.0391 26.8477 14.4922 26.543C12.9453 26.2148 11.5156 25.8281 10.2031 25.3828C9.94531 25.0781 9.67578 24.7969 9.39453 24.5391C9.11328 24.2578 8.73828 24.0586 8.26953 23.9414ZM41.7805 27.1406C40.7492 27.2812 39.8117 27.2344 38.968 27C38.1242 26.7656 37.3625 26.4023 36.6828 25.9102C36.0266 25.418 35.4523 24.832 34.9602 24.1523C34.4914 23.4727 34.1047 22.7461 33.8 21.9727C33.5891 20.3789 33.6477 18.9375 33.9758 17.6484C34.3039 16.3359 34.7844 15.1289 35.4172 14.0273C36.05 12.9258 36.7648 11.8945 37.5617 10.9336C38.382 9.97266 39.1672 9.04688 39.9172 8.15625C40.0812 8.22656 40.2102 8.22656 40.3039 8.15625C40.4211 8.08594 40.5148 7.99219 40.5852 7.875C40.6789 7.75781 40.7727 7.64063 40.8664 7.52344C40.9836 7.40625 41.1125 7.32422 41.2531 7.27734C41.3469 7.06641 41.4641 6.89062 41.6047 6.75C41.7687 6.60938 41.9328 6.48047 42.0969 6.36328C42.2844 6.22266 42.4484 6.08203 42.5891 5.94141C42.7531 5.80078 42.8937 5.625 43.0109 5.41406C43.2453 5.36719 43.4445 5.28516 43.6086 5.16797C43.7961 5.05078 43.9602 4.92188 44.1008 4.78125C44.2648 4.64062 44.4289 4.51172 44.593 4.39453C44.757 4.27734 44.9562 4.18359 45.1906 4.11328V3.65625C45.7062 3.42188 46.0812 3.16406 46.3156 2.88281C46.55 2.60156 46.8312 2.23828 47.1594 1.79297C47.4172 1.76953 47.6164 1.75781 47.757 1.75781C47.9211 1.75781 48.1672 1.73438 48.4953 1.6875C48.7062 1.28906 48.9055 0.996094 49.093 0.808594C49.2805 0.621094 49.55 0.410156 49.9016 0.175781C50.2531 0.363281 50.6281 0.480469 51.0266 0.527344C51.425 0.550781 51.7883 0.726562 52.1164 1.05469C52.1398 1.33594 52.2219 1.55859 52.3625 1.72266C52.5031 1.86328 52.6555 2.00391 52.8195 2.14453C52.9836 2.26172 53.1477 2.39062 53.3117 2.53125C53.4758 2.67188 53.5812 2.87109 53.6281 3.12891C53.7453 3.12891 53.8156 3.10547 53.8391 3.05859C53.8859 3.01172 53.968 3 54.0852 3.02344C54.132 3.21094 54.1789 3.36328 54.2258 3.48047C54.2727 3.59766 54.3195 3.70313 54.3664 3.79688C54.4367 3.89062 54.4953 3.99609 54.5422 4.11328C54.6125 4.23047 54.6711 4.37109 54.718 4.53516C54.6008 4.81641 54.4953 5.12109 54.4016 5.44922C54.3078 5.75391 54.1203 5.96484 53.8391 6.08203C53.8391 6.26953 53.9094 6.375 54.05 6.39844C54.1906 6.39844 54.2727 6.48047 54.2961 6.64453C54.3195 6.85547 54.2844 7.03125 54.1906 7.17188C54.8469 8.27344 55.4445 9.43359 55.9836 10.6523C56.5227 11.8477 57.132 12.9961 57.8117 14.0977C57.7648 14.4258 57.7766 14.7539 57.8469 15.082C57.9406 15.3867 58.0461 15.6914 58.1633 15.9961C58.3039 16.3008 58.4328 16.6055 58.55 16.9102C58.6672 17.2148 58.7492 17.5195 58.7961 17.8242C58.843 18.2227 58.843 18.6562 58.7961 19.125C58.7492 19.5703 58.6555 20.0039 58.5148 20.4258C58.3742 20.8477 58.1867 21.2461 57.9523 21.6211C57.718 21.9727 57.4484 22.2422 57.1437 22.4297C56.7687 22.8984 56.3 23.2852 55.7375 23.5898C55.175 23.8711 54.6594 24.2109 54.1906 24.6094C53.8625 24.7969 53.5109 24.9375 53.1359 25.0312C52.7609 25.1016 52.3742 25.1836 51.9758 25.2773C51.6711 25.4648 51.3078 25.6523 50.8859 25.8398C50.4641 26.0039 50.0305 26.1562 49.5852 26.2969C49.1398 26.4375 48.6945 26.5547 48.2492 26.6484C47.8039 26.7188 47.4055 26.7305 47.0539 26.6836C46.2102 26.9883 45.3898 27.1992 44.593 27.3164C43.7961 27.4336 42.8586 27.375 41.7805 27.1406ZM42.2375 14.3438C42.0031 14.8828 41.7219 15.375 41.3937 15.8203C41.0891 16.2422 40.7844 16.6758 40.4797 17.1211C40.175 17.5664 39.9055 18.0469 39.6711 18.5625C39.4602 19.0547 39.343 19.6406 39.3195 20.3203C39.7883 20.7188 40.3391 20.9648 40.9719 21.0586C41.6281 21.1289 42.2961 21.1406 42.9758 21.0938C43.6555 21.0234 44.3352 20.9297 45.0148 20.8125C45.6945 20.6953 46.3039 20.6367 46.843 20.6367C46.843 20.4258 46.9367 20.3203 47.1242 20.3203C48.1086 20.2266 49.0227 19.957 49.8664 19.5117C50.7102 19.043 51.5891 18.5742 52.5031 18.1055C52.6203 17.8242 52.7727 17.5781 52.9602 17.3672C53.1477 17.1562 53.2531 16.8516 53.2766 16.4531C53.1594 16.2422 53.0773 16.0664 53.0305 15.9258C53.007 15.7852 52.9953 15.5742 52.9953 15.293C52.3859 14.4492 51.8586 13.5352 51.4133 12.5508C50.968 11.543 50.4523 10.5938 49.8664 9.70312C49.8195 9.82031 49.7258 9.9375 49.5852 10.0547C49.4445 10.1719 49.2922 10.1484 49.1281 9.98438C49.0578 10.2188 48.9523 10.3828 48.8117 10.4766C48.6711 10.5469 48.507 10.582 48.3195 10.582C48.1555 10.582 47.9797 10.5469 47.7922 10.4766C47.6281 10.4062 47.4758 10.3125 47.3352 10.1953C46.5148 10.8516 45.6945 11.4844 44.8742 12.0938C44.0773 12.7031 43.3508 13.418 42.6945 14.2383C42.5773 14.3086 42.507 14.332 42.4836 14.3086C42.4602 14.2852 42.3781 14.2969 42.2375 14.3438ZM72.7602 23.6953C72.5258 23.8828 72.3852 24.1289 72.3383 24.4336C72.2914 24.7148 72.2328 24.9961 72.1625 25.2773C72.0922 25.5586 71.9633 25.8047 71.7758 26.0156C71.6117 26.2031 71.307 26.2852 70.8617 26.2617C70.768 26.3789 70.7445 26.4492 70.7914 26.4727C70.8617 26.4961 70.9203 26.6016 70.9672 26.7891C70.6391 26.7422 70.4047 26.7656 70.2641 26.8594C70.1234 26.9531 69.9477 27.0234 69.7367 27.0703C69.1977 26.9062 68.7406 26.6133 68.3656 26.1914C68.0141 25.7461 67.6977 25.2656 67.4164 24.75C67.1586 24.2344 66.9242 23.707 66.7133 23.168C66.5258 22.6289 66.3266 22.1602 66.1156 21.7617C66.1156 21.668 66.1625 21.6328 66.2562 21.6562C66.3266 21.6562 66.3969 21.6562 66.4672 21.6562C66.35 21.4219 66.268 21.1641 66.2211 20.8828C66.1508 20.5781 66.0336 20.332 65.8695 20.1445C66.5492 18.6914 67.2758 17.1797 68.0492 15.6094C68.8227 14.0156 69.5961 12.4102 70.3695 10.793C71.1664 9.15234 71.9516 7.51172 72.725 5.87109C73.5219 4.20703 74.2836 2.57813 75.0102 0.984375C75.6664 1.21875 76.2992 1.5 76.9086 1.82812C77.5414 2.13281 78.1156 2.49609 78.6312 2.91797C79.1469 3.33984 79.5805 3.83203 79.932 4.39453C80.307 4.93359 80.5531 5.55469 80.6703 6.25781C80.6234 6.39844 80.5648 6.44531 80.4945 6.39844C80.4242 6.35156 80.3656 6.375 80.3187 6.46875C80.4359 6.60938 80.4945 6.71484 80.4945 6.78516C80.518 6.83203 80.518 6.89062 80.4945 6.96094C80.4711 7.00781 80.4594 7.07813 80.4594 7.17188C80.4594 7.26562 80.518 7.39453 80.6352 7.55859C80.518 7.53516 80.4359 7.55859 80.3891 7.62891C80.3422 7.67578 80.2602 7.67578 80.143 7.62891C80.2602 7.95703 80.2953 8.21484 80.2484 8.40234C80.2016 8.58984 80.1312 8.76563 80.0375 8.92969C79.9437 9.07031 79.8617 9.23438 79.7914 9.42188C79.7445 9.58594 79.768 9.82031 79.8617 10.125C79.768 10.125 79.6977 10.1484 79.6508 10.1953C79.6273 10.2188 79.6039 10.2539 79.5805 10.3008C79.557 10.3477 79.5219 10.3945 79.475 10.4414C79.4516 10.4648 79.393 10.4648 79.2992 10.4414C79.3695 11.0508 79.393 11.6719 79.3695 12.3047C79.3461 12.9141 79.3227 13.5469 79.2992 14.2031C79.2758 14.8359 79.2758 15.4922 79.2992 16.1719C79.3227 16.8516 79.4164 17.5547 79.5805 18.2812C80.5883 17.6953 81.3969 16.9336 82.0062 15.9961C82.6391 15.0586 83.1312 14.0156 83.4828 12.8672C83.8578 11.7188 84.1391 10.4883 84.3266 9.17578C84.5375 7.86328 84.7484 6.52734 84.9594 5.16797C85.2172 4.91016 85.4164 4.59375 85.557 4.21875C85.7211 3.84375 85.85 3.45703 85.9437 3.05859C86.0609 2.66016 86.1664 2.26172 86.2602 1.86328C86.3773 1.44141 86.5297 1.06641 86.7172 0.738281C87.1391 0.785156 87.4906 0.914062 87.7719 1.125C88.0766 1.3125 88.3578 1.53516 88.6156 1.79297C88.8734 2.02734 89.143 2.25 89.4242 2.46094C89.7055 2.67188 90.057 2.8125 90.4789 2.88281C90.807 3.35156 91.1117 3.80859 91.393 4.25391C91.6742 4.67578 91.8617 5.15625 91.9555 5.69531C91.8148 5.92969 91.7094 6.1875 91.6391 6.46875C91.5687 6.75 91.4867 7.03125 91.393 7.3125C91.3227 7.59375 91.2172 7.85156 91.0766 8.08594C90.9359 8.32031 90.7367 8.51953 90.4789 8.68359C90.4086 9.38672 90.3031 10.043 90.1625 10.6523C90.0219 11.2617 89.893 11.8594 89.7758 12.4453C89.6586 13.0312 89.5531 13.6406 89.4594 14.2734C89.3656 14.9062 89.3305 15.5977 89.3539 16.3477C89.143 17.0273 88.9086 17.7305 88.6508 18.457C88.393 19.1602 88.2055 19.8164 88.0883 20.4258C87.643 20.7773 87.2914 21.2109 87.0336 21.7266C86.7758 22.2422 86.5062 22.7578 86.225 23.2734C86.1078 23.3672 86.0375 23.3906 86.0141 23.3438C85.9906 23.2734 85.8852 23.2266 85.6977 23.2031C85.7211 23.4141 85.6742 23.5547 85.557 23.625C85.4633 23.6719 85.475 23.8359 85.5922 24.1172C85.1937 24.3047 84.8422 24.5508 84.5375 24.8555C84.2328 25.1602 83.893 25.4414 83.518 25.6992C83.1664 25.957 82.7445 26.1328 82.2523 26.2266C81.7836 26.2969 81.1625 26.1914 80.3891 25.9102C79.2406 25.0664 78.2094 24.0938 77.2953 22.9922C76.3812 21.8906 75.6547 20.5898 75.1156 19.0898C74.8812 19.1602 74.7055 19.3125 74.5883 19.5469C74.4711 19.7812 74.3656 20.0273 74.2719 20.2852C74.1781 20.543 74.0844 20.7773 73.9906 20.9883C73.8969 21.1992 73.7562 21.3047 73.5687 21.3047C73.5219 21.5156 73.4281 21.7148 73.2875 21.9023C73.1703 22.0664 73.0531 22.2422 72.9359 22.4297C72.8187 22.5938 72.725 22.7812 72.6547 22.9922C72.6078 23.2031 72.643 23.4375 72.7602 23.6953ZM98.1148 7.17188C98.0914 6.98437 98.0445 6.82031 97.9742 6.67969C97.9273 6.51563 97.8688 6.33984 97.7984 6.15234C97.6813 5.87109 97.5758 5.56641 97.482 5.23828C97.3883 4.91016 97.3414 4.52344 97.3414 4.07812C97.3883 3.84375 97.4469 3.67969 97.5172 3.58594C97.5875 3.46875 97.6578 3.375 97.7281 3.30469L97.8688 2.67188H98.3961C98.5836 2.69531 98.7711 2.70703 98.9586 2.70703C99.1695 2.70703 99.3688 2.70703 99.5563 2.70703C100.447 2.70703 101.361 2.67188 102.298 2.60156C103.236 2.53125 104.197 2.44922 105.181 2.35547C106.259 2.21484 107.42 2.10938 108.662 2.03906C108.779 1.78125 108.849 1.61719 108.873 1.54688C108.92 1.47656 108.966 1.39453 109.013 1.30078L109.4 1.08984C109.939 1.06641 110.314 1.13672 110.525 1.30078C110.736 1.44141 110.9 1.58203 111.017 1.72266C111.627 1.67578 112.248 1.61719 112.88 1.54688C113.513 1.45313 114.17 1.35937 114.849 1.26562C115.787 1.14844 116.736 1.03125 117.697 0.914062C118.658 0.796875 119.595 0.738281 120.509 0.738281C120.908 0.738281 121.283 0.75 121.634 0.773438C121.986 0.796875 122.326 0.832031 122.654 0.878906L123.076 1.19531C123.17 1.35937 123.287 1.51172 123.427 1.65234C123.568 1.79297 123.732 1.93359 123.92 2.07422C124.271 2.35547 124.611 2.70703 124.939 3.12891C125.291 3.55078 125.42 4.17187 125.326 4.99219L125.15 5.34375C125.056 5.4375 124.939 5.53125 124.798 5.625L124.447 6.08203H124.06C123.826 6.08203 123.65 6.10547 123.533 6.15234C123.416 6.17578 123.275 6.22266 123.111 6.29297C123.017 6.33984 122.912 6.38672 122.795 6.43359C122.677 6.45703 122.548 6.49219 122.408 6.53906C122.15 6.51563 121.951 6.50391 121.81 6.50391C121.67 6.50391 121.505 6.50391 121.318 6.50391C120.615 6.50391 119.853 6.55078 119.033 6.64453C118.213 6.73828 117.416 6.84375 116.642 6.96094C116.08 7.03125 115.541 7.10156 115.025 7.17188C114.509 7.21875 114.041 7.26562 113.619 7.3125C113.384 7.92188 113.173 8.46094 112.986 8.92969C112.798 9.39844 112.599 9.86719 112.388 10.3359C112.177 10.8047 111.978 11.2852 111.791 11.7773C111.603 12.2461 111.427 12.7734 111.263 13.3594C110.982 13.7812 110.748 14.1914 110.56 14.5898C110.373 14.9648 110.22 15.3984 110.103 15.8906C109.752 16.2891 109.494 16.7227 109.33 17.1914C109.189 17.6602 109.06 18.0586 108.943 18.3867L108.802 18.9141C108.638 19.0781 108.533 19.207 108.486 19.3008C108.463 19.3945 108.404 19.5 108.31 19.6172C108.24 19.9219 108.146 20.2148 108.029 20.4961C107.982 20.6133 107.935 20.7422 107.888 20.8828C107.841 21 107.83 21.0938 107.853 21.1641C107.806 21.4219 107.736 21.6211 107.642 21.7617C107.642 21.9023 107.63 22.043 107.607 22.1836C107.584 22.3242 107.56 22.4648 107.537 22.6055C107.49 22.7695 107.455 22.9219 107.431 23.0625C107.408 23.1797 107.42 23.2969 107.466 23.4141C107.537 23.5078 107.607 23.6016 107.677 23.6953C107.748 23.7891 107.806 23.9062 107.853 24.0469C107.9 24.0938 107.959 24.1289 108.029 24.1523C108.099 24.1758 108.158 24.2109 108.205 24.2578C108.392 24.4219 108.568 24.5156 108.732 24.5391L109.084 24.9609C109.224 25.8047 109.095 26.4609 108.697 26.9297C108.275 27.4688 107.572 27.7383 106.588 27.7383L106.095 27.7031C105.931 27.5391 105.838 27.4336 105.814 27.3867C105.603 27.293 105.427 27.2109 105.287 27.1406C105.146 27.0938 105.017 26.9883 104.9 26.8242C104.853 26.7773 104.795 26.7539 104.724 26.7539C104.654 26.7305 104.595 26.6953 104.548 26.6484C104.314 26.5781 104.127 26.4961 103.986 26.4023L103.599 26.1914C103.623 25.957 103.634 25.793 103.634 25.6992C103.447 25.4414 103.295 25.1602 103.177 24.8555C103.084 24.5508 103.002 24.2344 102.931 23.9062C102.861 23.6484 102.791 23.4141 102.72 23.2031C102.673 22.9922 102.591 22.8047 102.474 22.6406C102.427 21 102.58 19.6289 102.931 18.5273C103.283 17.4023 103.67 16.3125 104.091 15.2578C104.326 14.6953 104.548 14.1211 104.759 13.5352C104.97 12.9492 105.158 12.3516 105.322 11.7422L105.709 11.3555C105.873 11.2148 105.978 11.1328 106.025 11.1094C106.025 10.8047 106.084 10.5117 106.201 10.2305C106.318 9.92578 106.447 9.62109 106.588 9.31641C106.681 9.12891 106.763 8.94141 106.834 8.75391C106.927 8.56641 106.986 8.40234 107.009 8.26172C106.845 8.26172 106.693 8.27344 106.552 8.29688C106.435 8.29688 106.306 8.30859 106.166 8.33203C105.861 8.40234 105.568 8.4375 105.287 8.4375C105.076 8.4375 104.923 8.42578 104.83 8.40234C104.642 8.49609 104.466 8.55469 104.302 8.57812C104.138 8.57812 103.974 8.57812 103.81 8.57812H103.388H102.966C102.685 8.57812 102.463 8.61328 102.298 8.68359C101.97 8.68359 101.759 8.68359 101.666 8.68359C101.572 8.68359 101.466 8.68359 101.349 8.68359H100.927H100.505C100.318 8.68359 100.107 8.67187 99.8727 8.64844C99.6383 8.60156 99.3922 8.50781 99.1344 8.36719L98.8883 8.08594C98.7477 7.82812 98.6188 7.6875 98.5016 7.66406L98.1148 7.55859V7.17188ZM122.802 23.6602L123.259 23.3086L123.294 22.5703C123.88 21.1406 124.477 19.7695 125.087 18.457C125.72 17.1445 126.376 15.7969 127.055 14.4141C127.266 13.9688 127.477 13.5234 127.688 13.0781C127.923 12.6328 128.145 12.1758 128.356 11.707C128.333 11.6133 128.321 11.5195 128.321 11.4258C128.321 11.3086 128.345 11.1797 128.391 11.0391C128.72 10.5703 128.977 10.1484 129.165 9.77344C129.376 9.39844 129.575 9.01172 129.762 8.61328C129.973 8.14453 130.196 7.67578 130.43 7.20703C130.688 6.73828 131.005 6.28125 131.38 5.83594L131.626 5.48438L132.012 5.51953C132.106 5.47266 132.2 5.4375 132.294 5.41406C132.411 5.36719 132.552 5.34375 132.716 5.34375L133.348 5.44922C134.122 5.09766 134.802 4.59375 135.387 3.9375C135.997 3.25781 136.606 2.44922 137.216 1.51172L137.637 0.914062L138.2 1.26562C138.317 1.33594 138.505 1.40625 138.762 1.47656C139.02 1.54688 139.29 1.62891 139.571 1.72266C140.063 1.83984 140.544 1.98047 141.012 2.14453C141.481 2.28516 141.845 2.48437 142.102 2.74219L142.278 3.05859C142.325 3.31641 142.36 3.55078 142.384 3.76172C142.43 3.97266 142.477 4.18359 142.524 4.39453C142.618 4.88672 142.7 5.37891 142.77 5.87109C142.841 6.33984 142.887 6.86719 142.911 7.45312C143.028 7.92188 143.134 8.40234 143.227 8.89453C143.345 9.36328 143.45 9.83203 143.544 10.3008C143.661 10.9805 143.79 11.6367 143.93 12.2695C144.071 12.8789 144.259 13.4648 144.493 14.0273C144.727 14.0273 144.868 14.0391 144.915 14.0625C145.196 13.9453 145.524 13.875 145.899 13.8516L146.356 13.8164L146.497 14.2383C146.544 14.3086 146.602 14.3789 146.673 14.4492C146.743 14.5195 146.825 14.5898 146.919 14.6602C147.294 14.6836 147.563 14.7656 147.727 14.9062C147.915 15.0234 148.067 15.1406 148.184 15.2578C148.231 15.3047 148.29 15.3633 148.36 15.4336C148.43 15.4805 148.489 15.5156 148.536 15.5391L149.169 15.7852L148.817 16.4531C148.559 16.9453 148.161 17.4258 147.622 17.8945C147.106 18.3633 146.52 18.75 145.864 19.0547C145.911 19.2188 145.934 19.3711 145.934 19.5117C145.958 19.6523 145.993 19.8164 146.04 20.0039C146.134 20.4727 146.204 20.9648 146.251 21.4805C146.321 21.9727 146.321 22.4883 146.251 23.0273C146.016 23.6367 145.735 24.1875 145.407 24.6797C145.102 25.1484 144.727 25.582 144.282 25.9805C143.86 26.3555 143.38 26.6719 142.841 26.9297C142.302 27.1641 141.739 27.293 141.153 27.3164C140.825 27.2461 140.579 27.1641 140.415 27.0703C140.274 26.9766 140.145 26.8828 140.028 26.7891C139.841 26.6484 139.688 26.5547 139.571 26.5078L139.114 26.2969L139.255 25.7695C139.325 25.582 139.313 25.418 139.22 25.2773C139.149 25.1367 138.985 24.9492 138.727 24.7148C138.634 24.6445 138.552 24.5742 138.481 24.5039C138.411 24.4102 138.329 24.3164 138.235 24.2227L137.532 23.4141L138.692 23.0977C139.395 22.9102 139.864 22.6758 140.098 22.3945C140.333 22.0898 140.427 21.5625 140.38 20.8125C139.794 20.6953 139.313 20.6836 138.938 20.7773C138.563 20.8477 138.188 20.9297 137.813 21.0234C137.274 21.1641 136.747 21.293 136.231 21.4102C135.716 21.5039 135.153 21.5508 134.544 21.5508C134.145 21.5508 133.723 21.5156 133.278 21.4453L132.891 21.4102L132.786 21.0234C132.786 20.9766 132.751 20.9297 132.68 20.8828C132.634 20.8125 132.587 20.7539 132.54 20.707C132.423 20.5664 132.282 20.3789 132.118 20.1445C131.954 19.9102 131.919 19.6172 132.012 19.2656C131.848 19.0078 131.755 18.7383 131.731 18.457C131.637 18.6445 131.555 18.832 131.485 19.0195C131.438 19.1836 131.391 19.3477 131.345 19.5117L131.204 19.9688L130.747 20.0391C130.7 20.0859 130.653 20.1562 130.606 20.25C130.583 20.3438 130.583 20.4141 130.606 20.4609L130.747 20.8477L130.395 21.1641C130.348 21.2344 130.29 21.293 130.22 21.3398C130.149 21.3867 130.091 21.4336 130.044 21.4805C129.997 21.7383 129.927 21.9844 129.833 22.2188C129.762 22.4531 129.68 22.6875 129.587 22.9219C129.47 23.2969 129.352 23.6602 129.235 24.0117C129.141 24.3633 129.095 24.7148 129.095 25.0664L128.954 25.5234C128.837 25.7109 128.684 25.8516 128.497 25.9453C128.333 26.0391 128.169 26.1211 128.005 26.1914C127.77 26.2852 127.606 26.3789 127.512 26.4727L127.407 26.9297L126.88 27C126.575 27.0703 126.352 27.1172 126.212 27.1406C126.095 27.1641 125.954 27.1758 125.79 27.1758L125.333 27.1406C125.052 26.8594 124.817 26.6484 124.63 26.5078C124.466 26.3438 124.266 26.2031 124.032 26.0859L123.821 25.8047C123.727 25.6172 123.669 25.4531 123.645 25.3125C123.622 25.1484 123.587 24.9844 123.54 24.8203C123.493 24.5156 123.423 24.3047 123.329 24.1875L122.802 23.6602ZM134.016 14.5195C133.688 14.9883 133.372 15.4805 133.067 15.9961C133.231 15.9727 133.384 15.9609 133.524 15.9609C133.688 15.9609 133.852 15.9492 134.016 15.9258C134.837 15.8789 135.598 15.8203 136.302 15.75C137.005 15.6797 137.766 15.5625 138.587 15.3984C138.399 14.5312 138.188 13.6523 137.954 12.7617C137.743 11.8477 137.509 10.9336 137.251 10.0195L137.075 10.3711C136.489 11.0039 135.927 11.6836 135.387 12.4102C134.848 13.1367 134.403 13.8281 134.052 14.4844L134.016 14.5195ZM158.562 23.9414C157.883 23.4258 157.32 22.7812 156.875 22.0078C156.453 21.2344 156.113 20.4141 155.855 19.5469C155.621 18.6797 155.457 17.7891 155.363 16.875C155.293 15.9375 155.27 15.0469 155.293 14.2031C155.504 13.5703 155.762 12.9961 156.066 12.4805C156.371 11.9414 156.711 11.4375 157.086 10.9688C157.461 10.4766 157.848 10.0195 158.246 9.59766C158.668 9.15234 159.078 8.70703 159.477 8.26172C159.617 8.26172 159.746 8.29688 159.863 8.36719C159.957 8.10937 160.098 7.88672 160.285 7.69922C160.473 7.51172 160.672 7.34766 160.883 7.20703C161.094 7.04297 161.305 6.89062 161.516 6.75C161.727 6.58594 161.902 6.39844 162.043 6.1875C162.629 6.04688 163.145 5.84766 163.59 5.58984C164.059 5.33203 164.504 5.05078 164.926 4.74609C165.348 4.44141 165.781 4.16016 166.227 3.90234C166.672 3.64453 167.188 3.44531 167.773 3.30469C167.984 3.07031 168.242 2.87109 168.547 2.70703C168.875 2.54297 169.191 2.39062 169.496 2.25C169.824 2.10938 170.129 1.95703 170.41 1.79297C170.715 1.62891 170.961 1.40625 171.148 1.125C171.289 1.3125 171.488 1.38281 171.746 1.33594C172.004 1.26562 172.238 1.19531 172.449 1.125C172.59 1.10156 172.707 1.125 172.801 1.19531C172.895 1.26562 172.977 1.34766 173.047 1.44141C173.141 1.51172 173.211 1.55859 173.258 1.58203C173.328 1.60547 173.398 1.53516 173.469 1.37109C173.656 1.39453 173.703 1.47656 173.609 1.61719C173.539 1.75781 173.492 1.85156 173.469 1.89844C173.703 1.85156 173.891 1.89844 174.031 2.03906C174.195 2.15625 174.441 2.23828 174.77 2.28516C174.887 2.40234 174.922 2.49609 174.875 2.56641C174.828 2.63672 174.793 2.75391 174.77 2.91797C175.613 3.17578 176.152 3.58594 176.387 4.14844C176.621 4.6875 176.645 5.26172 176.457 5.87109C176.27 6.45703 175.918 7.00781 175.402 7.52344C174.91 8.01562 174.359 8.34375 173.75 8.50781C173.023 8.69531 172.344 8.88281 171.711 9.07031C171.102 9.25781 170.504 9.46875 169.918 9.70312C169.355 9.9375 168.816 10.2188 168.301 10.5469C167.809 10.8516 167.375 11.2148 167 11.6367C166.344 11.8242 165.746 12.082 165.207 12.4102C164.691 12.7383 164.199 13.1016 163.73 13.5C163.285 13.8984 162.852 14.3203 162.43 14.7656C162.008 15.1875 161.586 15.6094 161.164 16.0312C161.164 16.4297 161.094 16.7344 160.953 16.9453C160.812 17.1562 160.66 17.3672 160.496 17.5781C160.543 18.0234 160.637 18.4102 160.777 18.7383C160.941 19.043 161.105 19.3594 161.27 19.6875C163.145 20.25 165.125 20.6016 167.211 20.7422C169.32 20.8594 171.406 20.9297 173.469 20.9531C173.68 21.2344 173.914 21.5039 174.172 21.7617C174.453 21.9961 174.699 22.2422 174.91 22.5C175.145 22.7578 175.32 23.0625 175.438 23.4141C175.578 23.7422 175.613 24.1406 175.543 24.6094C175.145 25.0078 174.711 25.3945 174.242 25.7695C173.773 26.1211 173.305 26.4727 172.836 26.8242C172.625 26.8477 172.367 26.8477 172.062 26.8242C171.781 26.8008 171.477 26.7891 171.148 26.7891C170.844 26.7891 170.527 26.8125 170.199 26.8594C169.895 26.8828 169.602 26.9531 169.32 27.0703C167.844 27.0234 166.332 26.8477 164.785 26.543C163.238 26.2148 161.809 25.8281 160.496 25.3828C160.238 25.0781 159.969 24.7969 159.688 24.5391C159.406 24.2578 159.031 24.0586 158.562 23.9414ZM184.374 7.17188C184.351 6.98437 184.304 6.82031 184.234 6.67969C184.187 6.51563 184.128 6.33984 184.058 6.15234C183.941 5.87109 183.835 5.56641 183.741 5.23828C183.648 4.91016 183.601 4.52344 183.601 4.07812C183.648 3.84375 183.706 3.67969 183.777 3.58594C183.847 3.46875 183.917 3.375 183.988 3.30469L184.128 2.67188H184.655C184.843 2.69531 185.03 2.70703 185.218 2.70703C185.429 2.70703 185.628 2.70703 185.816 2.70703C186.706 2.70703 187.62 2.67188 188.558 2.60156C189.495 2.53125 190.456 2.44922 191.441 2.35547C192.519 2.21484 193.679 2.10938 194.921 2.03906C195.038 1.78125 195.109 1.61719 195.132 1.54688C195.179 1.47656 195.226 1.39453 195.273 1.30078L195.659 1.08984C196.198 1.06641 196.573 1.13672 196.784 1.30078C196.995 1.44141 197.159 1.58203 197.277 1.72266C197.886 1.67578 198.507 1.61719 199.14 1.54688C199.773 1.45313 200.429 1.35937 201.109 1.26562C202.046 1.14844 202.995 1.03125 203.956 0.914062C204.917 0.796875 205.855 0.738281 206.769 0.738281C207.167 0.738281 207.542 0.75 207.894 0.773438C208.245 0.796875 208.585 0.832031 208.913 0.878906L209.335 1.19531C209.429 1.35937 209.546 1.51172 209.687 1.65234C209.827 1.79297 209.991 1.93359 210.179 2.07422C210.53 2.35547 210.87 2.70703 211.198 3.12891C211.55 3.55078 211.679 4.17187 211.585 4.99219L211.409 5.34375C211.316 5.4375 211.198 5.53125 211.058 5.625L210.706 6.08203H210.32C210.085 6.08203 209.909 6.10547 209.792 6.15234C209.675 6.17578 209.534 6.22266 209.37 6.29297C209.277 6.33984 209.171 6.38672 209.054 6.43359C208.937 6.45703 208.808 6.49219 208.667 6.53906C208.409 6.51563 208.21 6.50391 208.07 6.50391C207.929 6.50391 207.765 6.50391 207.577 6.50391C206.874 6.50391 206.113 6.55078 205.292 6.64453C204.472 6.73828 203.675 6.84375 202.902 6.96094C202.339 7.03125 201.8 7.10156 201.284 7.17188C200.769 7.21875 200.3 7.26562 199.878 7.3125C199.644 7.92188 199.433 8.46094 199.245 8.92969C199.058 9.39844 198.859 9.86719 198.648 10.3359C198.437 10.8047 198.238 11.2852 198.05 11.7773C197.863 12.2461 197.687 12.7734 197.523 13.3594C197.241 13.7812 197.007 14.1914 196.82 14.5898C196.632 14.9648 196.48 15.3984 196.363 15.8906C196.011 16.2891 195.753 16.7227 195.589 17.1914C195.448 17.6602 195.32 18.0586 195.202 18.3867L195.062 18.9141C194.898 19.0781 194.792 19.207 194.745 19.3008C194.722 19.3945 194.663 19.5 194.57 19.6172C194.499 19.9219 194.405 20.2148 194.288 20.4961C194.241 20.6133 194.195 20.7422 194.148 20.8828C194.101 21 194.089 21.0938 194.113 21.1641C194.066 21.4219 193.995 21.6211 193.902 21.7617C193.902 21.9023 193.89 22.043 193.866 22.1836C193.843 22.3242 193.82 22.4648 193.796 22.6055C193.749 22.7695 193.714 22.9219 193.691 23.0625C193.667 23.1797 193.679 23.2969 193.726 23.4141C193.796 23.5078 193.866 23.6016 193.937 23.6953C194.007 23.7891 194.066 23.9062 194.113 24.0469C194.159 24.0938 194.218 24.1289 194.288 24.1523C194.359 24.1758 194.417 24.2109 194.464 24.2578C194.652 24.4219 194.827 24.5156 194.991 24.5391L195.343 24.9609C195.484 25.8047 195.355 26.4609 194.956 26.9297C194.534 27.4688 193.831 27.7383 192.847 27.7383L192.355 27.7031C192.191 27.5391 192.097 27.4336 192.073 27.3867C191.863 27.293 191.687 27.2109 191.546 27.1406C191.405 27.0938 191.277 26.9883 191.159 26.8242C191.113 26.7773 191.054 26.7539 190.984 26.7539C190.913 26.7305 190.855 26.6953 190.808 26.6484C190.573 26.5781 190.386 26.4961 190.245 26.4023L189.859 26.1914C189.882 25.957 189.894 25.793 189.894 25.6992C189.706 25.4414 189.554 25.1602 189.437 24.8555C189.343 24.5508 189.261 24.2344 189.191 23.9062C189.12 23.6484 189.05 23.4141 188.98 23.2031C188.933 22.9922 188.851 22.8047 188.734 22.6406C188.687 21 188.839 19.6289 189.191 18.5273C189.542 17.4023 189.929 16.3125 190.351 15.2578C190.585 14.6953 190.808 14.1211 191.019 13.5352C191.23 12.9492 191.417 12.3516 191.581 11.7422L191.968 11.3555C192.132 11.2148 192.238 11.1328 192.284 11.1094C192.284 10.8047 192.343 10.5117 192.46 10.2305C192.577 9.92578 192.706 9.62109 192.847 9.31641C192.941 9.12891 193.023 8.94141 193.093 8.75391C193.187 8.56641 193.245 8.40234 193.269 8.26172C193.105 8.26172 192.952 8.27344 192.812 8.29688C192.695 8.29688 192.566 8.30859 192.425 8.33203C192.12 8.40234 191.827 8.4375 191.546 8.4375C191.335 8.4375 191.183 8.42578 191.089 8.40234C190.902 8.49609 190.726 8.55469 190.562 8.57812C190.398 8.57812 190.234 8.57812 190.07 8.57812H189.648H189.226C188.945 8.57812 188.722 8.61328 188.558 8.68359C188.23 8.68359 188.019 8.68359 187.925 8.68359C187.831 8.68359 187.726 8.68359 187.609 8.68359H187.187H186.765C186.577 8.68359 186.366 8.67187 186.132 8.64844C185.898 8.60156 185.652 8.50781 185.394 8.36719L185.148 8.08594C185.007 7.82812 184.878 7.6875 184.761 7.66406L184.374 7.55859V7.17188Z" fill="black"/>
</g>
<defs>
<filter id="filter0_d_5_2" x="0.964844" y="0.175781" width="214.761" height="35.5625" filterUnits="userSpaceOnUse" color-interpolation-filters="sRGB">
<feFlood flood-opacity="0" result="BackgroundImageFix"/>
<feColorMatrix in="SourceAlpha" type="matrix" values="0 0 0 0 0 0 0 0 0 0 0 0 0 0 0 0 0 0 127 0" result="hardAlpha"/>
<feOffset dy="4"/>
<feGaussianBlur stdDeviation="2"/>
<feComposite in2="hardAlpha" operator="out"/>
<feColorMatrix type="matrix" values="0 0 0 0 0 0 0 0 0 0 0 0 0 0 0 0 0 0 0.25 0"/>
<feBlend mode="normal" in2="BackgroundImageFix" result="effect1_dropShadow_5_2"/>
<feBlend mode="normal" in="SourceGraphic" in2="effect1_dropShadow_5_2" result="shape"/>
</filter>
</defs>
</svg>
