<svg width="139" height="36" viewBox="0 0 139 36" fill="none" xmlns="http://www.w3.org/2000/svg">
<g filter="url(#filter0_d_5_2)">
<path d="M5.52734 25.8047C5.45703 25.8281 5.41016 25.8047 5.38672 25.7344C5.36328 25.6641 5.35156 25.5938 5.35156 25.5234C5.375 25.4531 5.41016 25.3945 5.45703 25.3477C5.52734 25.3008 5.60938 25.3008 5.70312 25.3477C5.39844 24.9727 5.19922 24.6328 5.10547 24.3281C5.03516 24.0234 4.88281 23.6484 4.64844 23.2031C4.71875 23.1328 4.76562 23.0391 4.78906 22.9219C4.8125 22.7812 4.84766 22.6523 4.89453 22.5352C4.91797 22.418 4.95312 22.3359 5 22.2891C5.07031 22.2188 5.15234 22.2305 5.24609 22.3242C5.19922 22.0664 5.19922 21.8555 5.24609 21.6914C5.29297 21.5273 5.33984 21.375 5.38672 21.2344C5.45703 21.0938 5.50391 20.9531 5.52734 20.8125C5.55078 20.6719 5.51562 20.5078 5.42188 20.3203C5.86719 19.7109 6.16016 19.0547 6.30078 18.3516C6.44141 17.625 6.52344 16.9688 6.54688 16.3828C6.75781 16.1719 6.93359 15.8906 7.07422 15.5391C7.23828 15.1875 7.35547 14.8242 7.42578 14.4492C7.49609 14.0742 7.53125 13.7109 7.53125 13.3594C7.53125 12.9844 7.48438 12.6914 7.39062 12.4805C7.41406 12.3867 7.46094 12.3398 7.53125 12.3398C7.625 12.3164 7.73047 12.3164 7.84766 12.3398C8.01172 11.4023 8.11719 10.3594 8.16406 9.21094C8.23438 8.0625 8.35156 6.96094 8.51562 5.90625C8.70312 4.82813 8.99609 3.89062 9.39453 3.09375C9.79297 2.27344 10.4258 1.74609 11.293 1.51172C11.457 2.09766 11.668 2.61328 11.9258 3.05859C12.207 3.50391 12.5 3.9375 12.8047 4.35938C13.1328 4.78125 13.4609 5.20312 13.7891 5.625C14.1172 6.04688 14.4219 6.51563 14.7031 7.03125C14.6797 7.57031 14.6211 8.19141 14.5273 8.89453C14.457 9.59766 14.3516 10.3125 14.2109 11.0391C14.0938 11.7656 13.9648 12.4688 13.8242 13.1484C13.707 13.8281 13.5898 14.4023 13.4727 14.8711C13.4961 14.9883 13.5781 15.0703 13.7188 15.1172C13.8594 15.1406 13.8828 15.2695 13.7891 15.5039C14.4688 15.3398 15.1719 15.1875 15.8984 15.0469C16.6484 14.8828 17.375 14.7305 18.0781 14.5898C18.8047 14.4258 19.5078 14.2383 20.1875 14.0273C20.8906 13.8164 21.5469 13.5586 22.1562 13.2539C22.2969 12.1289 22.4727 11.0156 22.6836 9.91406C22.8945 8.8125 22.918 7.69922 22.7539 6.57422C22.8945 6.45703 23.0117 6.31641 23.1055 6.15234C23.1992 5.98828 23.3398 5.88281 23.5273 5.83594C23.3867 5.29687 23.3281 4.73437 23.3516 4.14844C23.375 3.53906 23.4688 2.97656 23.6328 2.46094C23.8203 1.94531 24.0898 1.5 24.4414 1.125C24.793 0.726562 25.2266 0.46875 25.7422 0.351562C26.0469 0.796875 26.3164 1.27734 26.5508 1.79297C26.7852 2.30859 27.0195 2.83594 27.2539 3.375C27.4883 3.89062 27.7344 4.38281 27.9922 4.85156C28.2734 5.32031 28.625 5.71875 29.0469 6.04688C29.1172 6.86719 29.1758 7.71094 29.2227 8.57812C29.2695 9.42188 29.3047 10.3008 29.3281 11.2148C29.1172 12.2695 28.8711 13.3008 28.5898 14.3086C28.332 15.293 28.1445 16.3477 28.0273 17.4727C27.8398 17.6836 27.6875 17.9414 27.5703 18.2461C27.4531 18.5273 27.3359 18.8203 27.2188 19.125C27.125 19.4062 27.0078 19.6875 26.8672 19.9688C26.7266 20.25 26.5508 20.4844 26.3398 20.6719C26.4336 21 26.4453 21.3164 26.375 21.6211C26.3281 21.9023 26.4102 22.2422 26.6211 22.6406C26.668 23.3672 26.5742 23.9766 26.3398 24.4688C26.1289 24.9375 25.8242 25.3477 25.4258 25.6992C25.0508 26.0273 24.6055 26.2969 24.0898 26.5078C23.5977 26.6953 23.1055 26.8711 22.6133 27.0352C22.3789 26.8945 22.1562 26.7539 21.9453 26.6133C21.7578 26.4492 21.5234 26.332 21.2422 26.2617L21.418 25.9453C20.9492 25.4766 20.5391 24.9844 20.1875 24.4688C19.8594 23.9297 19.707 23.3203 19.7305 22.6406C19.7305 22.6172 19.7539 22.4648 19.8008 22.1836C19.8477 21.8789 19.8945 21.5625 19.9414 21.2344C20.0117 20.9062 20.0703 20.6016 20.1172 20.3203C20.1875 20.0156 20.2227 19.8516 20.2227 19.8281C19.5664 19.8984 18.8867 20.0508 18.1836 20.2852C17.4805 20.5195 16.7891 20.7891 16.1094 21.0938C15.4531 21.375 14.832 21.6797 14.2461 22.0078C13.6836 22.3125 13.2266 22.5703 12.875 22.7812C12.875 22.8516 12.8164 23.0508 12.6992 23.3789C12.582 23.707 12.4414 24.0586 12.2773 24.4336C12.1133 24.7852 11.9258 25.1016 11.7148 25.3828C11.5273 25.6641 11.3281 25.793 11.1172 25.7695C11.1641 25.8867 11.2109 25.9805 11.2578 26.0508C11.3047 26.0977 11.3047 26.2031 11.2578 26.3672C10.8594 26.4844 10.4961 26.6367 10.168 26.8242C9.86328 27.0117 9.54688 27.1641 9.21875 27.2812C8.89062 27.4219 8.52734 27.4805 8.12891 27.457C7.75391 27.457 7.29688 27.3164 6.75781 27.0352C6.75781 26.8711 6.6875 26.7305 6.54688 26.6133C6.40625 26.4727 6.25391 26.3555 6.08984 26.2617C5.94922 26.168 5.82031 26.0859 5.70312 26.0156C5.58594 25.9453 5.52734 25.875 5.52734 25.8047ZM44.8039 27.1406C43.7727 27.2812 42.8352 27.2344 41.9914 27C41.1477 26.7656 40.3859 26.4023 39.7062 25.9102C39.05 25.418 38.4758 24.832 37.9836 24.1523C37.5148 23.4727 37.1281 22.7461 36.8234 21.9727C36.6125 20.3789 36.6711 18.9375 36.9992 17.6484C37.3273 16.3359 37.8078 15.1289 38.4406 14.0273C39.0734 12.9258 39.7883 11.8945 40.5852 10.9336C41.4055 9.97266 42.1906 9.04688 42.9406 8.15625C43.1047 8.22656 43.2336 8.22656 43.3273 8.15625C43.4445 8.08594 43.5383 7.99219 43.6086 7.875C43.7023 7.75781 43.7961 7.64063 43.8898 7.52344C44.007 7.40625 44.1359 7.32422 44.2766 7.27734C44.3703 7.06641 44.4875 6.89062 44.6281 6.75C44.7922 6.60938 44.9562 6.48047 45.1203 6.36328C45.3078 6.22266 45.4719 6.08203 45.6125 5.94141C45.7766 5.80078 45.9172 5.625 46.0344 5.41406C46.2687 5.36719 46.468 5.28516 46.632 5.16797C46.8195 5.05078 46.9836 4.92188 47.1242 4.78125C47.2883 4.64062 47.4523 4.51172 47.6164 4.39453C47.7805 4.27734 47.9797 4.18359 48.2141 4.11328V3.65625C48.7297 3.42188 49.1047 3.16406 49.3391 2.88281C49.5734 2.60156 49.8547 2.23828 50.1828 1.79297C50.4406 1.76953 50.6398 1.75781 50.7805 1.75781C50.9445 1.75781 51.1906 1.73438 51.5187 1.6875C51.7297 1.28906 51.9289 0.996094 52.1164 0.808594C52.3039 0.621094 52.5734 0.410156 52.925 0.175781C53.2766 0.363281 53.6516 0.480469 54.05 0.527344C54.4484 0.550781 54.8117 0.726562 55.1398 1.05469C55.1633 1.33594 55.2453 1.55859 55.3859 1.72266C55.5266 1.86328 55.6789 2.00391 55.843 2.14453C56.007 2.26172 56.1711 2.39062 56.3352 2.53125C56.4992 2.67188 56.6047 2.87109 56.6516 3.12891C56.7687 3.12891 56.8391 3.10547 56.8625 3.05859C56.9094 3.01172 56.9914 3 57.1086 3.02344C57.1555 3.21094 57.2023 3.36328 57.2492 3.48047C57.2961 3.59766 57.343 3.70313 57.3898 3.79688C57.4602 3.89062 57.5187 3.99609 57.5656 4.11328C57.6359 4.23047 57.6945 4.37109 57.7414 4.53516C57.6242 4.81641 57.5187 5.12109 57.425 5.44922C57.3312 5.75391 57.1437 5.96484 56.8625 6.08203C56.8625 6.26953 56.9328 6.375 57.0734 6.39844C57.2141 6.39844 57.2961 6.48047 57.3195 6.64453C57.343 6.85547 57.3078 7.03125 57.2141 7.17188C57.8703 8.27344 58.468 9.43359 59.007 10.6523C59.5461 11.8477 60.1555 12.9961 60.8352 14.0977C60.7883 14.4258 60.8 14.7539 60.8703 15.082C60.9641 15.3867 61.0695 15.6914 61.1867 15.9961C61.3273 16.3008 61.4562 16.6055 61.5734 16.9102C61.6906 17.2148 61.7727 17.5195 61.8195 17.8242C61.8664 18.2227 61.8664 18.6562 61.8195 19.125C61.7727 19.5703 61.6789 20.0039 61.5383 20.4258C61.3977 20.8477 61.2102 21.2461 60.9758 21.6211C60.7414 21.9727 60.4719 22.2422 60.1672 22.4297C59.7922 22.8984 59.3234 23.2852 58.7609 23.5898C58.1984 23.8711 57.6828 24.2109 57.2141 24.6094C56.8859 24.7969 56.5344 24.9375 56.1594 25.0312C55.7844 25.1016 55.3977 25.1836 54.9992 25.2773C54.6945 25.4648 54.3312 25.6523 53.9094 25.8398C53.4875 26.0039 53.0539 26.1562 52.6086 26.2969C52.1633 26.4375 51.718 26.5547 51.2727 26.6484C50.8273 26.7188 50.4289 26.7305 50.0773 26.6836C49.2336 26.9883 48.4133 27.1992 47.6164 27.3164C46.8195 27.4336 45.882 27.375 44.8039 27.1406ZM45.2609 14.3438C45.0266 14.8828 44.7453 15.375 44.4172 15.8203C44.1125 16.2422 43.8078 16.6758 43.5031 17.1211C43.1984 17.5664 42.9289 18.0469 42.6945 18.5625C42.4836 19.0547 42.3664 19.6406 42.343 20.3203C42.8117 20.7188 43.3625 20.9648 43.9953 21.0586C44.6516 21.1289 45.3195 21.1406 45.9992 21.0938C46.6789 21.0234 47.3586 20.9297 48.0383 20.8125C48.718 20.6953 49.3273 20.6367 49.8664 20.6367C49.8664 20.4258 49.9602 20.3203 50.1477 20.3203C51.132 20.2266 52.0461 19.957 52.8898 19.5117C53.7336 19.043 54.6125 18.5742 55.5266 18.1055C55.6437 17.8242 55.7961 17.5781 55.9836 17.3672C56.1711 17.1562 56.2766 16.8516 56.3 16.4531C56.1828 16.2422 56.1008 16.0664 56.0539 15.9258C56.0305 15.7852 56.0187 15.5742 56.0187 15.293C55.4094 14.4492 54.882 13.5352 54.4367 12.5508C53.9914 11.543 53.4758 10.5938 52.8898 9.70312C52.843 9.82031 52.7492 9.9375 52.6086 10.0547C52.468 10.1719 52.3156 10.1484 52.1516 9.98438C52.0812 10.2188 51.9758 10.3828 51.8352 10.4766C51.6945 10.5469 51.5305 10.582 51.343 10.582C51.1789 10.582 51.0031 10.5469 50.8156 10.4766C50.6516 10.4062 50.4992 10.3125 50.3586 10.1953C49.5383 10.8516 48.718 11.4844 47.8977 12.0938C47.1008 12.7031 46.3742 13.418 45.718 14.2383C45.6008 14.3086 45.5305 14.332 45.507 14.3086C45.4836 14.2852 45.4016 14.2969 45.2609 14.3438ZM72.5844 27.4922C72.35 27.4922 71.9867 27.457 71.4945 27.3867C71.1195 26.9883 70.7797 26.4492 70.475 25.7695C70.1937 25.0664 69.9711 24.3281 69.807 23.5547C69.6664 22.7578 69.5961 21.9727 69.5961 21.1992C69.6195 20.4023 69.7602 19.6992 70.018 19.0898C70.018 19.0664 70.1234 18.7852 70.3344 18.2461C70.5687 17.707 70.8617 17.0273 71.2133 16.207C71.5648 15.3633 71.9633 14.4375 72.4086 13.4297C72.8539 12.3984 73.2992 11.3906 73.7445 10.4062C74.1898 9.42188 74.6117 8.53125 75.0102 7.73438C75.432 6.91406 75.7953 6.28125 76.1 5.83594C76.3109 5.50781 76.4984 5.19141 76.6625 4.88672C76.85 4.58203 77.0258 4.30078 77.1898 4.04297C77.4477 3.62109 77.682 3.23438 77.893 2.88281C78.1273 2.50781 78.3734 2.17969 78.6312 1.89844C78.9125 1.59375 79.2172 1.33594 79.5453 1.125C79.8734 0.890625 80.2719 0.691406 80.7406 0.527344C81.0219 0.644531 81.268 0.773438 81.4789 0.914062C81.6898 1.03125 81.8773 1.18359 82.0414 1.37109L82.1469 1.86328C82.1937 2.02734 82.2641 2.14453 82.3578 2.21484C82.475 2.26172 82.5687 2.28516 82.6391 2.28516C82.9437 2.35547 83.2016 2.4375 83.4125 2.53125C83.6469 2.60156 83.893 2.64844 84.1508 2.67188C84.2445 2.8125 84.3266 2.95312 84.3969 3.09375C84.4906 3.23438 84.5844 3.36328 84.6781 3.48047C85.1469 4.16016 85.5336 4.81641 85.8383 5.44922C86.143 6.08203 86.143 6.77344 85.8383 7.52344L85.8734 7.91016C85.9906 8.07422 86.0492 8.22656 86.0492 8.36719C86.0492 8.50781 86.0258 8.70703 85.9789 8.96484C85.9555 9.15234 85.932 9.36328 85.9086 9.59766C85.9086 9.80859 85.9437 10.043 86.0141 10.3008L86.2602 10.582C86.6352 10.7695 86.9984 10.8633 87.35 10.8633C87.8187 10.8633 88.2406 10.7578 88.6156 10.5469C88.9906 10.3359 89.3422 10.125 89.6703 9.91406C89.9281 9.72656 90.1625 9.57422 90.3734 9.45703C90.6078 9.33984 90.8305 9.25781 91.0414 9.21094C91.5336 8.74219 91.9789 8.33203 92.3773 7.98047C92.7992 7.60547 93.2328 7.23047 93.6781 6.85547C94.5219 6.17578 95.3422 5.44922 96.1391 4.67578C96.9359 3.87891 97.5687 2.89453 98.0375 1.72266C98.2953 1.55859 98.5883 1.47656 98.9164 1.47656C99.2445 1.47656 99.5727 1.54688 99.9008 1.6875C100.229 1.80469 100.557 1.94531 100.885 2.10938C100.955 2.15625 101.014 2.19141 101.061 2.21484C101.131 2.23828 101.202 2.27344 101.272 2.32031C101.272 2.57813 101.377 2.8125 101.588 3.02344C101.705 3.11719 101.787 3.17578 101.834 3.19922C101.881 3.22266 101.928 3.24609 101.975 3.26953C102.162 3.38672 102.315 3.49219 102.432 3.58594C102.573 3.67969 102.678 3.80859 102.748 3.97266C102.959 4.60547 103.311 5.09766 103.803 5.44922C103.756 5.70703 103.768 5.96484 103.838 6.22266C103.909 6.45703 103.991 6.69141 104.084 6.92578C104.131 7.01953 104.166 7.11328 104.19 7.20703C104.213 7.27734 104.248 7.37109 104.295 7.48828L103.522 7.41797L103.627 8.19141C103.698 8.58984 103.662 9.03516 103.522 9.52734C103.405 10.0195 103.264 10.4062 103.1 10.6875C103.147 11.3906 103.17 11.9531 103.17 12.375C103.17 12.7734 103.147 13.1484 103.1 13.5C103.053 13.8516 102.971 14.1914 102.854 14.5195C102.76 14.8242 102.631 15.1523 102.467 15.5039C102.561 17.2852 102.35 18.9141 101.834 20.3906C101.342 21.8672 100.803 23.25 100.217 24.5391C100.147 24.7031 100.077 24.8555 100.006 24.9961C99.9359 25.1367 99.8773 25.2773 99.8305 25.418C99.5727 25.4883 99.3383 25.5703 99.1273 25.6641C98.9164 25.7578 98.7172 25.8633 98.5297 25.9805C98.2719 26.1445 98.0141 26.2852 97.7562 26.4023C97.4984 26.4961 97.2289 26.543 96.9477 26.543C95.8227 25.7227 95.2367 24.3047 95.1898 22.2891C95.1664 20.2734 95.6 17.707 96.4906 14.5898C96.6547 14.4727 96.725 14.2969 96.7016 14.0625V13.6758L96.35 13.6406C96.2328 13.6406 96.1273 13.6523 96.0336 13.6758C95.9398 13.6992 95.8695 13.8047 95.8227 13.9922C95.0727 14.5312 94.2523 15.0938 93.3617 15.6797C92.4945 16.2422 91.5922 16.7695 90.6547 17.2617C89.7172 17.7305 88.7562 18.1289 87.7719 18.457C86.8109 18.7617 85.8734 18.9141 84.9594 18.9141C82.6156 18.9141 80.8461 17.7188 79.6508 15.3281L79.3344 14.6953L78.9828 15.2578C78.9125 15.375 78.7836 15.6094 78.5961 15.9609C78.432 16.2891 78.2562 16.6758 78.0687 17.1211C77.9047 17.5664 77.7523 18.0234 77.6117 18.4922C77.4945 18.9609 77.4594 19.3711 77.5062 19.7227C77.225 19.9805 76.9437 20.2734 76.6625 20.6016C76.4047 20.9297 76.2172 21.3047 76.1 21.7266C76.0531 21.8438 76.0414 21.9609 76.0648 22.0781C76.0883 22.1719 76.1234 22.2773 76.1703 22.3945C76.1469 22.5586 76.1 22.6758 76.0297 22.7461C75.9594 22.8164 75.8773 22.8867 75.7836 22.957C75.6664 23.0742 75.5492 23.2031 75.432 23.3438C75.3148 23.4609 75.2094 23.6016 75.1156 23.7656C75.0687 23.9062 75.0336 24.0586 75.0102 24.2227C74.9867 24.3633 74.9633 24.4922 74.9398 24.6094C74.9398 24.8672 74.9047 25.043 74.8344 25.1367C74.6 25.6289 74.3891 26.0391 74.2016 26.3672C74.0375 26.6719 73.8734 26.9062 73.7094 27.0703C73.5453 27.2344 73.3695 27.3398 73.182 27.3867C73.018 27.457 72.8187 27.4922 72.5844 27.4922ZM112.74 25.8047C112.552 25.6172 112.412 25.3945 112.318 25.1367C112.248 24.8789 112.06 24.668 111.755 24.5039C111.709 24.1523 111.638 23.7539 111.545 23.3086C111.474 22.8398 111.392 22.3711 111.298 21.9023C111.228 21.4102 111.17 20.9297 111.123 20.4609C111.099 19.9688 111.123 19.5234 111.193 19.125C111.24 18.9141 111.31 18.7148 111.404 18.5273C111.521 18.3398 111.627 18.1641 111.72 18C111.838 17.8125 111.92 17.625 111.966 17.4375C112.037 17.25 112.048 17.0625 112.002 16.875C112.142 16.8516 112.224 16.7812 112.248 16.6641C112.295 16.5234 112.412 16.4766 112.599 16.5234C112.763 16.0078 112.939 15.5273 113.127 15.082C113.314 14.6367 113.513 14.2031 113.724 13.7812C113.935 13.3594 114.146 12.9375 114.357 12.5156C114.591 12.0703 114.802 11.5781 114.99 11.0391C114.591 10.6641 114.298 10.2656 114.111 9.84375C113.947 9.39844 113.818 8.95312 113.724 8.50781C113.63 8.0625 113.56 7.61719 113.513 7.17188C113.466 6.70312 113.373 6.23438 113.232 5.76562C113.513 5.34375 113.853 5.00391 114.252 4.74609C114.65 4.46484 115.084 4.24219 115.552 4.07812C116.045 3.89062 116.572 3.75 117.134 3.65625C117.697 3.53906 118.295 3.41016 118.927 3.26953C120.052 2.91797 121.06 2.64844 121.951 2.46094C122.841 2.25 123.709 2.08594 124.552 1.96875C125.396 1.82812 126.275 1.71094 127.189 1.61719C128.103 1.5 129.158 1.33594 130.353 1.125C130.377 1.19531 130.412 1.23047 130.459 1.23047C130.529 1.23047 130.611 1.23047 130.705 1.23047C130.775 1.39453 130.904 1.47656 131.091 1.47656C131.091 1.40625 131.08 1.34766 131.056 1.30078C131.056 1.23047 131.056 1.17188 131.056 1.125C131.103 1.125 131.162 1.13672 131.232 1.16016C131.326 1.18359 131.396 1.20703 131.443 1.23047C131.513 1.25391 131.572 1.25391 131.619 1.23047C131.666 1.18359 131.677 1.10156 131.654 0.984375C131.935 1.47656 132.298 1.88672 132.744 2.21484C133.189 2.51953 133.681 2.78906 134.22 3.02344C134.244 3.23438 134.244 3.38672 134.22 3.48047C134.22 3.57422 134.209 3.66797 134.185 3.76172C134.162 3.83203 134.15 3.92578 134.15 4.04297C134.15 4.13672 134.173 4.27734 134.22 4.46484C133.845 5.09766 133.412 5.58984 132.92 5.94141C132.451 6.29297 131.947 6.5625 131.408 6.75C130.869 6.9375 130.295 7.07813 129.685 7.17188C129.099 7.26562 128.49 7.37109 127.857 7.48828C127.248 7.58203 126.627 7.72266 125.994 7.91016C125.361 8.09766 124.74 8.37891 124.13 8.75391C123.943 8.68359 123.767 8.66016 123.603 8.68359C123.463 8.68359 123.31 8.70703 123.146 8.75391C122.982 8.80078 122.795 8.84766 122.584 8.89453C122.396 8.94141 122.162 8.94141 121.88 8.89453C121.693 9.05859 121.47 9.17578 121.213 9.24609C120.978 9.31641 120.732 9.38672 120.474 9.45703C120.591 9.71484 120.638 9.97266 120.615 10.2305C120.615 10.4883 120.65 10.7109 120.72 10.8984C121.705 10.9922 122.795 10.9922 123.99 10.8984C125.185 10.7812 126.357 10.6992 127.505 10.6523C127.529 10.7695 127.517 10.8516 127.47 10.8984C127.423 10.9453 127.4 11.0273 127.4 11.1445C127.611 11.2852 127.81 11.4609 127.998 11.6719C128.185 11.8828 128.373 12.0938 128.56 12.3047C128.771 12.4922 128.982 12.6562 129.193 12.7969C129.404 12.9141 129.65 12.9609 129.931 12.9375C130.048 13.1719 130.13 13.418 130.177 13.6758C130.224 13.9336 130.189 14.2031 130.072 14.4844C129.603 14.7891 129.146 15.1055 128.701 15.4336C128.255 15.7383 127.787 16.0195 127.295 16.2773C126.826 16.5352 126.31 16.7461 125.748 16.9102C125.185 17.0742 124.576 17.1445 123.92 17.1211C123.802 17.1211 123.697 17.1211 123.603 17.1211C123.533 17.1211 123.439 17.0742 123.322 16.9805C123.088 17.0977 122.771 17.1445 122.373 17.1211C121.998 17.0742 121.681 17.1094 121.423 17.2266C121.095 17.1094 120.709 17.0508 120.263 17.0508C119.841 17.0508 119.466 16.9922 119.138 16.875C118.716 17.4844 118.318 18.1289 117.943 18.8086C117.568 19.4648 117.24 20.168 116.959 20.918C117.92 21.0586 118.716 21.1172 119.349 21.0938C119.982 21.0703 120.58 21.0234 121.142 20.9531C121.705 20.8828 122.279 20.8125 122.865 20.7422C123.474 20.6719 124.213 20.6484 125.08 20.6719C125.666 20.3906 126.334 20.2031 127.084 20.1094C127.857 19.9922 128.572 19.8281 129.228 19.6172C129.463 19.6875 129.662 19.8281 129.826 20.0391C129.99 20.2266 130.142 20.4258 130.283 20.6367C130.447 20.8242 130.611 20.9883 130.775 21.1289C130.939 21.2695 131.15 21.3164 131.408 21.2695C131.525 21.3867 131.595 21.5273 131.619 21.6914C131.666 21.8555 131.701 22.0078 131.724 22.1484C131.771 22.2891 131.83 22.4062 131.9 22.5C131.97 22.5703 132.099 22.5938 132.287 22.5703C131.841 23.4844 131.338 24.1875 130.775 24.6797C130.236 25.1719 129.615 25.5586 128.912 25.8398C128.232 26.0977 127.459 26.2969 126.591 26.4375C125.748 26.5547 124.798 26.707 123.744 26.8945C123.486 26.9414 123.263 26.9414 123.076 26.8945C122.912 26.8242 122.736 26.7891 122.548 26.7891C121.892 26.9062 121.107 27.0234 120.193 27.1406C119.302 27.2578 118.4 27.3047 117.486 27.2812C116.572 27.2578 115.693 27.1406 114.849 26.9297C114.005 26.7188 113.302 26.3438 112.74 25.8047Z" fill="black"/>
</g>
<defs>
<filter id="filter0_d_5_2" x="0.648438" y="0.175781" width="137.607" height="35.3164" filterUnits="userSpaceOnUse" color-interpolation-filters="sRGB">
<feFlood flood-opacity="0" result="BackgroundImageFix"/>
<feColorMatrix in="SourceAlpha" type="matrix" values="0 0 0 0 0 0 0 0 0 0 0 0 0 0 0 0 0 0 127 0" result="hardAlpha"/>
<feOffset dy="4"/>
<feGaussianBlur stdDeviation="2"/>
<feComposite in2="hardAlpha" operator="out"/>
<feColorMatrix type="matrix" values="0 0 0 0 0 0 0 0 0 0 0 0 0 0 0 0 0 0 0.25 0"/>
<feBlend mode="normal" in2="BackgroundImageFix" result="effect1_dropShadow_5_2"/>
<feBlend mode="normal" in="SourceGraphic" in2="effect1_dropShadow_5_2" result="shape"/>
</filter>
</defs>
</svg>
