<svg width="26" height="72" viewBox="0 0 26 72" fill="none" xmlns="http://www.w3.org/2000/svg">
<g style="mix-blend-mode:overlay" filter="url(#filter0_d_9_15)">
<path d="M5.29297 14.3359C5.25391 14.349 5.22786 14.3359 5.21484 14.2969C5.20182 14.2578 5.19531 14.2188 5.19531 14.1797C5.20833 14.1406 5.22786 14.1081 5.25391 14.082C5.29297 14.056 5.33854 14.056 5.39062 14.082C5.22135 13.8737 5.11068 13.6849 5.05859 13.5156C5.01953 13.3464 4.9349 13.138 4.80469 12.8906C4.84375 12.8516 4.86979 12.7995 4.88281 12.7344C4.89583 12.6562 4.91536 12.5846 4.94141 12.5195C4.95443 12.4544 4.97396 12.4089 5 12.3828C5.03906 12.3438 5.08464 12.3503 5.13672 12.4023C5.11068 12.2591 5.11068 12.1419 5.13672 12.0508C5.16276 11.9596 5.1888 11.875 5.21484 11.7969C5.25391 11.7188 5.27995 11.6406 5.29297 11.5625C5.30599 11.4844 5.28646 11.3932 5.23438 11.2891C5.48177 10.9505 5.64453 10.5859 5.72266 10.1953C5.80078 9.79167 5.84635 9.42708 5.85938 9.10156C5.97656 8.98438 6.07422 8.82812 6.15234 8.63281C6.24349 8.4375 6.30859 8.23568 6.34766 8.02734C6.38672 7.81901 6.40625 7.61719 6.40625 7.42188C6.40625 7.21354 6.38021 7.05078 6.32812 6.93359C6.34115 6.88151 6.36719 6.85547 6.40625 6.85547C6.45833 6.84245 6.51693 6.84245 6.58203 6.85547C6.67318 6.33464 6.73177 5.75521 6.75781 5.11719C6.79688 4.47917 6.86198 3.86719 6.95312 3.28125C7.05729 2.68229 7.22005 2.16146 7.44141 1.71875C7.66276 1.26302 8.01432 0.970052 8.49609 0.839844C8.58724 1.16536 8.70443 1.45182 8.84766 1.69922C9.00391 1.94661 9.16667 2.1875 9.33594 2.42188C9.51823 2.65625 9.70052 2.89062 9.88281 3.125C10.0651 3.35938 10.2344 3.61979 10.3906 3.90625C10.3776 4.20573 10.3451 4.55078 10.293 4.94141C10.2539 5.33203 10.1953 5.72917 10.1172 6.13281C10.0521 6.53646 9.98047 6.92708 9.90234 7.30469C9.83724 7.68229 9.77214 8.0013 9.70703 8.26172C9.72005 8.32682 9.76562 8.3724 9.84375 8.39844C9.92188 8.41146 9.9349 8.48307 9.88281 8.61328C10.2604 8.52214 10.651 8.4375 11.0547 8.35938C11.4714 8.26823 11.875 8.18359 12.2656 8.10547C12.6693 8.01432 13.0599 7.91016 13.4375 7.79297C13.8281 7.67578 14.1927 7.53255 14.5312 7.36328C14.6094 6.73828 14.707 6.11979 14.8242 5.50781C14.9414 4.89583 14.9544 4.27734 14.8633 3.65234C14.9414 3.58724 15.0065 3.50911 15.0586 3.41797C15.1107 3.32682 15.1888 3.26823 15.293 3.24219C15.2148 2.94271 15.1823 2.63021 15.1953 2.30469C15.2083 1.96615 15.2604 1.65365 15.3516 1.36719C15.4557 1.08073 15.6055 0.833333 15.8008 0.625C15.9961 0.403646 16.237 0.260417 16.5234 0.195312C16.6927 0.442708 16.8424 0.709635 16.9727 0.996094C17.1029 1.28255 17.2331 1.57552 17.3633 1.875C17.4935 2.16146 17.6302 2.4349 17.7734 2.69531C17.9297 2.95573 18.125 3.17708 18.3594 3.35938C18.3984 3.8151 18.431 4.28385 18.457 4.76562C18.4831 5.23438 18.5026 5.72266 18.5156 6.23047C18.3984 6.81641 18.2617 7.38932 18.1055 7.94922C17.9622 8.49609 17.8581 9.08203 17.793 9.70703C17.6888 9.82422 17.6042 9.96745 17.5391 10.1367C17.474 10.293 17.4089 10.4557 17.3438 10.625C17.2917 10.7812 17.2266 10.9375 17.1484 11.0938C17.0703 11.25 16.9727 11.3802 16.8555 11.4844C16.9076 11.6667 16.9141 11.8424 16.875 12.0117C16.849 12.168 16.8945 12.3568 17.0117 12.5781C17.0378 12.9818 16.9857 13.3203 16.8555 13.5938C16.7383 13.8542 16.569 14.082 16.3477 14.2773C16.1393 14.4596 15.8919 14.6094 15.6055 14.7266C15.332 14.8307 15.0586 14.9284 14.7852 15.0195C14.6549 14.9414 14.5312 14.8633 14.4141 14.7852C14.3099 14.694 14.1797 14.6289 14.0234 14.5898L14.1211 14.4141C13.8607 14.1536 13.6328 13.8802 13.4375 13.5938C13.2552 13.2943 13.1706 12.9557 13.1836 12.5781C13.1836 12.5651 13.1966 12.4805 13.2227 12.3242C13.2487 12.1549 13.2747 11.9792 13.3008 11.7969C13.3398 11.6146 13.3724 11.4453 13.3984 11.2891C13.4375 11.1198 13.457 11.0286 13.457 11.0156C13.0924 11.0547 12.7148 11.1393 12.3242 11.2695C11.9336 11.3997 11.5495 11.5495 11.1719 11.7188C10.8073 11.875 10.4622 12.0443 10.1367 12.2266C9.82422 12.3958 9.57031 12.5391 9.375 12.6562C9.375 12.6953 9.34245 12.806 9.27734 12.9883C9.21224 13.1706 9.13411 13.3659 9.04297 13.5742C8.95182 13.7695 8.84766 13.9453 8.73047 14.1016C8.6263 14.2578 8.51562 14.3294 8.39844 14.3164C8.42448 14.3815 8.45052 14.4336 8.47656 14.4727C8.5026 14.4987 8.5026 14.5573 8.47656 14.6484C8.25521 14.7135 8.05339 14.7982 7.87109 14.9023C7.70182 15.0065 7.52604 15.0911 7.34375 15.1562C7.16146 15.2344 6.95964 15.2669 6.73828 15.2539C6.52995 15.2539 6.27604 15.1758 5.97656 15.0195C5.97656 14.9284 5.9375 14.8503 5.85938 14.7852C5.78125 14.707 5.69661 14.6419 5.60547 14.5898C5.52734 14.5378 5.45573 14.4922 5.39062 14.4531C5.32552 14.4141 5.29297 14.375 5.29297 14.3359ZM9.70703 31.0781C9.13411 31.1562 8.61328 31.1302 8.14453 31C7.67578 30.8698 7.2526 30.668 6.875 30.3945C6.51042 30.1211 6.19141 29.7956 5.91797 29.418C5.65755 29.0404 5.44271 28.6367 5.27344 28.207C5.15625 27.3216 5.1888 26.5208 5.37109 25.8047C5.55339 25.0755 5.82031 24.4049 6.17188 23.793C6.52344 23.181 6.92057 22.6081 7.36328 22.0742C7.81901 21.5404 8.25521 21.026 8.67188 20.5312C8.76302 20.5703 8.83464 20.5703 8.88672 20.5312C8.95182 20.4922 9.00391 20.4401 9.04297 20.375C9.09505 20.3099 9.14714 20.2448 9.19922 20.1797C9.26432 20.1146 9.33594 20.069 9.41406 20.043C9.46615 19.9258 9.53125 19.8281 9.60938 19.75C9.70052 19.6719 9.79167 19.6003 9.88281 19.5352C9.98698 19.457 10.0781 19.3789 10.1562 19.3008C10.2474 19.2227 10.3255 19.125 10.3906 19.0078C10.5208 18.9818 10.6315 18.9362 10.7227 18.8711C10.8268 18.806 10.918 18.7344 10.9961 18.6562C11.0872 18.5781 11.1784 18.5065 11.2695 18.4414C11.3607 18.3763 11.4714 18.3242 11.6016 18.2852V18.0312C11.888 17.901 12.0964 17.7578 12.2266 17.6016C12.3568 17.4453 12.513 17.2435 12.6953 16.9961C12.8385 16.9831 12.9492 16.9766 13.0273 16.9766C13.1185 16.9766 13.2552 16.9635 13.4375 16.9375C13.5547 16.7161 13.6654 16.5534 13.7695 16.4492C13.8737 16.3451 14.0234 16.2279 14.2188 16.0977C14.4141 16.2018 14.6224 16.2669 14.8438 16.293C15.0651 16.306 15.2669 16.4036 15.4492 16.5859C15.4622 16.7422 15.5078 16.8659 15.5859 16.957C15.6641 17.0352 15.7487 17.1133 15.8398 17.1914C15.931 17.2565 16.0221 17.3281 16.1133 17.4062C16.2044 17.4844 16.263 17.5951 16.2891 17.7383C16.3542 17.7383 16.3932 17.7253 16.4062 17.6992C16.4323 17.6732 16.4779 17.6667 16.543 17.6797C16.569 17.7839 16.5951 17.8685 16.6211 17.9336C16.6471 17.9987 16.6732 18.0573 16.6992 18.1094C16.7383 18.1615 16.7708 18.2201 16.7969 18.2852C16.8359 18.3503 16.8685 18.4284 16.8945 18.5195C16.8294 18.6758 16.7708 18.8451 16.7188 19.0273C16.6667 19.1966 16.5625 19.3138 16.4062 19.3789C16.4062 19.4831 16.4453 19.5417 16.5234 19.5547C16.6016 19.5547 16.6471 19.6003 16.6602 19.6914C16.6732 19.8086 16.6536 19.9062 16.6016 19.9844C16.9661 20.5964 17.2982 21.2409 17.5977 21.918C17.8971 22.582 18.2357 23.2201 18.6133 23.832C18.5872 24.0143 18.5938 24.1966 18.6328 24.3789C18.6849 24.5482 18.7435 24.7174 18.8086 24.8867C18.8867 25.056 18.9583 25.2253 19.0234 25.3945C19.0885 25.5638 19.1341 25.7331 19.1602 25.9023C19.1862 26.1237 19.1862 26.3646 19.1602 26.625C19.1341 26.8724 19.082 27.1133 19.0039 27.3477C18.9258 27.582 18.8216 27.8034 18.6914 28.0117C18.5612 28.207 18.4115 28.3568 18.2422 28.4609C18.0339 28.7214 17.7734 28.9362 17.4609 29.1055C17.1484 29.2617 16.862 29.4505 16.6016 29.6719C16.4193 29.776 16.224 29.8542 16.0156 29.9062C15.8073 29.9453 15.5924 29.9909 15.3711 30.043C15.2018 30.1471 15 30.2513 14.7656 30.3555C14.5312 30.4466 14.2904 30.5312 14.043 30.6094C13.7956 30.6875 13.5482 30.7526 13.3008 30.8047C13.0534 30.8438 12.832 30.8503 12.6367 30.8242C12.168 30.9935 11.7122 31.1107 11.2695 31.1758C10.8268 31.2409 10.306 31.2083 9.70703 31.0781ZM9.96094 23.9688C9.83073 24.2682 9.67448 24.5417 9.49219 24.7891C9.32292 25.0234 9.15365 25.2643 8.98438 25.5117C8.8151 25.7591 8.66536 26.026 8.53516 26.3125C8.41797 26.5859 8.35286 26.9115 8.33984 27.2891C8.60026 27.5104 8.90625 27.6471 9.25781 27.6992C9.6224 27.7383 9.99349 27.7448 10.3711 27.7188C10.7487 27.6797 11.1263 27.6276 11.5039 27.5625C11.8815 27.4974 12.2201 27.4648 12.5195 27.4648C12.5195 27.3477 12.5716 27.2891 12.6758 27.2891C13.2227 27.237 13.7305 27.0872 14.1992 26.8398C14.668 26.5794 15.1562 26.319 15.6641 26.0586C15.7292 25.9023 15.8138 25.7656 15.918 25.6484C16.0221 25.5312 16.0807 25.362 16.0938 25.1406C16.0286 25.0234 15.9831 24.9258 15.957 24.8477C15.944 24.7695 15.9375 24.6523 15.9375 24.4961C15.599 24.0273 15.306 23.5195 15.0586 22.9727C14.8112 22.4128 14.5247 21.8854 14.1992 21.3906C14.1732 21.4557 14.1211 21.5208 14.043 21.5859C13.9648 21.651 13.8802 21.638 13.7891 21.5469C13.75 21.6771 13.6914 21.7682 13.6133 21.8203C13.5352 21.8594 13.444 21.8789 13.3398 21.8789C13.2487 21.8789 13.151 21.8594 13.0469 21.8203C12.9557 21.7812 12.8711 21.7292 12.793 21.6641C12.3372 22.0286 11.8815 22.3802 11.4258 22.7188C10.9831 23.0573 10.5794 23.4544 10.2148 23.9102C10.1497 23.9492 10.1107 23.9622 10.0977 23.9492C10.0846 23.9362 10.0391 23.9427 9.96094 23.9688ZM18.5156 46.6484C18.3854 46.7135 18.2617 46.7721 18.1445 46.8242C18.0404 46.8763 17.9167 46.9023 17.7734 46.9023C17.2656 46.5247 16.9987 45.8672 16.9727 44.9297C16.9596 43.9922 17.1615 42.8008 17.5781 41.3555C17.6432 41.3164 17.6758 41.2383 17.6758 41.1211L17.5 40.9258C17.4479 40.9258 17.3958 40.9323 17.3438 40.9453C17.3047 40.9583 17.2721 41.0039 17.2461 41.082C16.9076 41.3294 16.5365 41.5898 16.1328 41.8633C15.7292 42.1237 15.306 42.3711 14.8633 42.6055C14.4336 42.8268 13.9909 43.0091 13.5352 43.1523C13.0924 43.2956 12.6562 43.3672 12.2266 43.3672C11.1328 43.3672 10.3125 42.8138 9.76562 41.707L9.60938 41.4141L9.45312 41.668C9.41406 41.7201 9.35547 41.8307 9.27734 42C9.19922 42.1562 9.12109 42.3385 9.04297 42.5469C8.96484 42.7552 8.89323 42.9701 8.82812 43.1914C8.77604 43.3997 8.75651 43.582 8.76953 43.7383C8.65234 43.8555 8.52865 43.9922 8.39844 44.1484C8.26823 44.3047 8.17057 44.4805 8.10547 44.6758C8.07943 44.7799 8.09245 44.8776 8.14453 44.9688C8.11849 45.0859 8.0599 45.1771 7.96875 45.2422C7.91667 45.3073 7.85807 45.3724 7.79297 45.4375C7.74089 45.4896 7.69531 45.5482 7.65625 45.6133C7.63021 45.6784 7.61068 45.7435 7.59766 45.8086C7.59766 45.8737 7.59115 45.9388 7.57812 46.0039C7.57812 46.0951 7.5651 46.1797 7.53906 46.2578C7.31771 46.7135 7.14193 47.0065 7.01172 47.1367C6.88151 47.2799 6.70573 47.3516 6.48438 47.3516C6.38021 47.3516 6.21094 47.332 5.97656 47.293C5.80729 47.1107 5.65104 46.8633 5.50781 46.5508C5.3776 46.2253 5.27344 45.8802 5.19531 45.5156C5.13021 45.151 5.09766 44.7865 5.09766 44.4219C5.11068 44.0443 5.17578 43.7188 5.29297 43.4453C5.29297 43.4323 5.34505 43.3021 5.44922 43.0547C5.55339 42.8073 5.68359 42.4883 5.83984 42.0977C6.00911 41.707 6.19792 41.2773 6.40625 40.8086C6.61458 40.3268 6.82292 39.8646 7.03125 39.4219C7.23958 38.9661 7.4349 38.5495 7.61719 38.1719C7.8125 37.7943 7.97526 37.5078 8.10547 37.3125C8.20964 37.1562 8.30078 37.013 8.37891 36.8828C8.47005 36.7396 8.55469 36.6029 8.63281 36.4727C8.86719 36.069 9.08854 35.737 9.29688 35.4766C9.51823 35.2031 9.83724 34.9883 10.2539 34.832C10.5404 34.9492 10.7487 35.0859 10.8789 35.2422L10.918 35.457C10.9701 35.5872 11.0482 35.6523 11.1523 35.6523C11.2956 35.6914 11.4128 35.7305 11.5039 35.7695C11.6081 35.7956 11.7188 35.8216 11.8359 35.8477C11.9271 35.9518 12.0117 36.0755 12.0898 36.2188C12.194 36.375 12.2917 36.5312 12.3828 36.6875C12.487 36.8307 12.5651 36.9805 12.6172 37.1367C12.6823 37.2799 12.7148 37.4297 12.7148 37.5859C12.7279 37.7422 12.7018 37.9049 12.6367 38.0742L12.6562 38.2695C12.7214 38.3867 12.7344 38.5495 12.6953 38.7578C12.6823 38.849 12.6758 38.9466 12.6758 39.0508C12.6758 39.1419 12.6888 39.2461 12.7148 39.3633C12.9492 39.5456 13.1576 39.6367 13.3398 39.6367C13.5482 39.6367 13.737 39.5911 13.9062 39.5C14.0885 39.3958 14.2578 39.2917 14.4141 39.1875C14.5182 39.1094 14.6224 39.0443 14.7266 38.9922C14.8307 38.9271 14.9349 38.888 15.0391 38.875C15.2734 38.6536 15.4818 38.4583 15.6641 38.2891C15.8594 38.1198 16.0612 37.9505 16.2695 37.7812C16.6602 37.4688 17.0378 37.1302 17.4023 36.7656C17.7669 36.401 18.0599 35.9453 18.2812 35.3984C18.4115 35.3203 18.5482 35.2812 18.6914 35.2812C18.8346 35.2812 18.9844 35.3138 19.1406 35.3789C19.2969 35.444 19.4466 35.5091 19.5898 35.5742C19.6289 35.6003 19.6615 35.6198 19.6875 35.6328C19.7266 35.6458 19.7591 35.6589 19.7852 35.6719C19.7852 35.8021 19.8372 35.9128 19.9414 36.0039C19.9935 36.043 20.026 36.069 20.0391 36.082C20.0521 36.0951 20.0716 36.1081 20.0977 36.1211C20.293 36.2253 20.4167 36.3294 20.4688 36.4336C20.5599 36.7331 20.7227 36.9609 20.957 37.1172C20.931 37.2474 20.931 37.3711 20.957 37.4883C20.9961 37.5924 21.0417 37.7031 21.0938 37.8203C21.1068 37.8594 21.1198 37.8984 21.1328 37.9375C21.1458 37.9766 21.1654 38.0221 21.1914 38.0742L20.8203 38.0352L20.8789 38.4062C20.9049 38.5885 20.8854 38.7904 20.8203 39.0117C20.7682 39.2331 20.7031 39.4089 20.625 39.5391C20.638 39.8776 20.6445 40.1445 20.6445 40.3398C20.6576 40.5221 20.651 40.6979 20.625 40.8672C20.599 41.0234 20.5599 41.1732 20.5078 41.3164C20.4688 41.4596 20.4102 41.6159 20.332 41.7852C20.3841 42.6185 20.2865 43.3802 20.0391 44.0703C19.8047 44.7474 19.5573 45.3854 19.2969 45.9844C19.2708 46.0495 19.2383 46.1146 19.1992 46.1797C19.1732 46.2448 19.1471 46.3099 19.1211 46.375C19.0039 46.4141 18.8997 46.4596 18.8086 46.5117C18.7174 46.5508 18.6198 46.5964 18.5156 46.6484ZM6.09375 62.3359C5.98958 62.2318 5.91146 62.1081 5.85938 61.9648C5.82031 61.8216 5.71615 61.7044 5.54688 61.6133C5.52083 61.418 5.48177 61.1966 5.42969 60.9492C5.39062 60.6888 5.34505 60.4284 5.29297 60.168C5.25391 59.8945 5.22135 59.6276 5.19531 59.3672C5.18229 59.0938 5.19531 58.8464 5.23438 58.625C5.26042 58.5078 5.29948 58.3971 5.35156 58.293C5.41667 58.1888 5.47526 58.0911 5.52734 58C5.59245 57.8958 5.63802 57.7917 5.66406 57.6875C5.70312 57.5833 5.70964 57.4792 5.68359 57.375C5.76172 57.362 5.80729 57.3229 5.82031 57.2578C5.84635 57.1797 5.91146 57.1536 6.01562 57.1797C6.10677 56.8932 6.20443 56.6263 6.30859 56.3789C6.41276 56.1315 6.52344 55.8906 6.64062 55.6562C6.75781 55.4219 6.875 55.1875 6.99219 54.9531C7.1224 54.7057 7.23958 54.4323 7.34375 54.1328C7.1224 53.9245 6.95964 53.7031 6.85547 53.4688C6.76432 53.2214 6.69271 52.974 6.64062 52.7266C6.58854 52.4792 6.54948 52.2318 6.52344 51.9844C6.4974 51.724 6.44531 51.4635 6.36719 51.2031C6.52344 50.9688 6.71224 50.7799 6.93359 50.6367C7.15495 50.4805 7.39583 50.3568 7.65625 50.2656C7.92969 50.1615 8.22266 50.0833 8.53516 50.0312C8.84766 49.9661 9.17969 49.8945 9.53125 49.8164C10.1562 49.6211 10.7161 49.4714 11.2109 49.3672C11.7057 49.25 12.1875 49.1589 12.6562 49.0938C13.125 49.0156 13.6133 48.9505 14.1211 48.8984C14.6289 48.8333 15.2148 48.7422 15.8789 48.625C15.8919 48.6641 15.9115 48.6836 15.9375 48.6836C15.9766 48.6836 16.0221 48.6836 16.0742 48.6836C16.1133 48.7747 16.1849 48.8203 16.2891 48.8203C16.2891 48.7812 16.2826 48.7487 16.2695 48.7227C16.2695 48.6836 16.2695 48.651 16.2695 48.625C16.2956 48.625 16.3281 48.6315 16.3672 48.6445C16.4193 48.6576 16.4583 48.6706 16.4844 48.6836C16.5234 48.6966 16.556 48.6966 16.582 48.6836C16.6081 48.6576 16.6146 48.612 16.6016 48.5469C16.7578 48.8203 16.9596 49.0482 17.207 49.2305C17.4544 49.3997 17.7279 49.5495 18.0273 49.6797C18.0404 49.7969 18.0404 49.8815 18.0273 49.9336C18.0273 49.9857 18.0208 50.0378 18.0078 50.0898C17.9948 50.1289 17.9883 50.181 17.9883 50.2461C17.9883 50.2982 18.0013 50.3763 18.0273 50.4805C17.819 50.832 17.5781 51.1055 17.3047 51.3008C17.0443 51.4961 16.7643 51.6458 16.4648 51.75C16.1654 51.8542 15.8464 51.9323 15.5078 51.9844C15.1823 52.0365 14.8438 52.0951 14.4922 52.1602C14.1536 52.2122 13.8086 52.2904 13.457 52.3945C13.1055 52.4987 12.7604 52.6549 12.4219 52.8633C12.3177 52.8242 12.2201 52.8112 12.1289 52.8242C12.0508 52.8242 11.9661 52.8372 11.875 52.8633C11.7839 52.8893 11.6797 52.9154 11.5625 52.9414C11.4583 52.9674 11.3281 52.9674 11.1719 52.9414C11.0677 53.0326 10.944 53.0977 10.8008 53.1367C10.6706 53.1758 10.5339 53.2148 10.3906 53.2539C10.4557 53.3971 10.4818 53.5404 10.4688 53.6836C10.4688 53.8268 10.4883 53.9505 10.5273 54.0547C11.0742 54.1068 11.6797 54.1068 12.3438 54.0547C13.0078 53.9896 13.6589 53.944 14.2969 53.918C14.3099 53.9831 14.3034 54.0286 14.2773 54.0547C14.2513 54.0807 14.2383 54.1263 14.2383 54.1914C14.3555 54.2695 14.4661 54.3672 14.5703 54.4844C14.6745 54.6016 14.7786 54.7188 14.8828 54.8359C15 54.9401 15.1172 55.0312 15.2344 55.1094C15.3516 55.1745 15.4883 55.2005 15.6445 55.1875C15.7096 55.3177 15.7552 55.4544 15.7812 55.5977C15.8073 55.7409 15.7878 55.8906 15.7227 56.0469C15.4622 56.2161 15.2083 56.3919 14.9609 56.5742C14.7135 56.7435 14.4531 56.8997 14.1797 57.043C13.9193 57.1862 13.6328 57.3034 13.3203 57.3945C13.0078 57.4857 12.6693 57.5247 12.3047 57.5117C12.2396 57.5117 12.181 57.5117 12.1289 57.5117C12.0898 57.5117 12.0378 57.4857 11.9727 57.4336C11.8424 57.4987 11.6667 57.5247 11.4453 57.5117C11.237 57.4857 11.0612 57.5052 10.918 57.5703C10.7357 57.5052 10.5208 57.4727 10.2734 57.4727C10.0391 57.4727 9.83073 57.4401 9.64844 57.375C9.41406 57.7135 9.19271 58.0716 8.98438 58.4492C8.77604 58.8138 8.59375 59.2044 8.4375 59.6211C8.97135 59.6992 9.41406 59.7318 9.76562 59.7188C10.1172 59.7057 10.4492 59.6797 10.7617 59.6406C11.0742 59.6016 11.3932 59.5625 11.7188 59.5234C12.0573 59.4844 12.4674 59.4714 12.9492 59.4844C13.2747 59.3281 13.6458 59.224 14.0625 59.1719C14.4922 59.1068 14.8893 59.0156 15.2539 58.8984C15.3841 58.9375 15.4948 59.0156 15.5859 59.1328C15.6771 59.237 15.7617 59.3477 15.8398 59.4648C15.931 59.569 16.0221 59.6602 16.1133 59.7383C16.2044 59.8164 16.3216 59.8424 16.4648 59.8164C16.5299 59.8815 16.569 59.9596 16.582 60.0508C16.6081 60.1419 16.6276 60.2266 16.6406 60.3047C16.6667 60.3828 16.6992 60.4479 16.7383 60.5C16.7773 60.5391 16.849 60.5521 16.9531 60.5391C16.7057 61.0469 16.4258 61.4375 16.1133 61.7109C15.8138 61.9844 15.4688 62.1992 15.0781 62.3555C14.7005 62.4987 14.2708 62.6094 13.7891 62.6875C13.3203 62.7526 12.793 62.8372 12.207 62.9414C12.0638 62.9674 11.9401 62.9674 11.8359 62.9414C11.7448 62.9023 11.6471 62.8828 11.543 62.8828C11.1784 62.9479 10.7422 63.013 10.2344 63.0781C9.73958 63.1432 9.23828 63.1693 8.73047 63.1562C8.22266 63.1432 7.73438 63.0781 7.26562 62.9609C6.79688 62.8438 6.40625 62.6354 6.09375 62.3359Z" fill="white"/>
</g>
<defs>
<filter id="filter0_d_9_15" x="0.804688" y="0.195312" width="24.3867" height="70.9805" filterUnits="userSpaceOnUse" color-interpolation-filters="sRGB">
<feFlood flood-opacity="0" result="BackgroundImageFix"/>
<feColorMatrix in="SourceAlpha" type="matrix" values="0 0 0 0 0 0 0 0 0 0 0 0 0 0 0 0 0 0 127 0" result="hardAlpha"/>
<feOffset dy="4"/>
<feGaussianBlur stdDeviation="2"/>
<feComposite in2="hardAlpha" operator="out"/>
<feColorMatrix type="matrix" values="0 0 0 0 0 0 0 0 0 0 0 0 0 0 0 0 0 0 0.25 0"/>
<feBlend mode="normal" in2="BackgroundImageFix" result="effect1_dropShadow_9_15"/>
<feBlend mode="normal" in="SourceGraphic" in2="effect1_dropShadow_9_15" result="shape"/>
</filter>
</defs>
</svg>
