<svg width="493" height="37" viewBox="0 0 493 37" fill="none" xmlns="http://www.w3.org/2000/svg">
<g filter="url(#filter0_d_5_2)">
<path d="M6.54688 19.8633C5.84375 19.4648 5.30469 18.9023 4.92969 18.1758C4.55469 17.4492 4.34375 16.7578 4.29688 16.1016C4.36719 15.5391 4.51953 15.1055 4.75391 14.8008C4.96484 14.4727 5.22266 14.2148 5.52734 14.0273C5.83203 13.8164 6.14844 13.6641 6.47656 13.5703C6.80469 13.4531 7.12109 13.3594 7.42578 13.2891L7.95312 13.4648C8.07031 13.582 8.1875 13.6875 8.30469 13.7812C8.44531 13.875 8.57422 13.9688 8.69141 14.0625C8.92578 13.9688 9.06641 13.8281 9.11328 13.6406C9.18359 13.4531 9.25391 13.2656 9.32422 13.0781C9.39453 12.8203 9.47656 12.5625 9.57031 12.3047C9.66406 12.0469 9.78125 11.7891 9.92188 11.5312C9.89844 11.3203 9.91016 11.1328 9.95703 10.9688C10.0039 10.8047 10.0508 10.6641 10.0977 10.5469C9.95703 10.4297 9.85156 10.3711 9.78125 10.3711C9.73438 10.3477 9.64062 10.3125 9.5 10.2656C9.42969 10.2656 9.35938 10.2656 9.28906 10.2656C9.21875 10.2422 9.13672 10.2188 9.04297 10.1953C8.69141 9.9375 8.45703 9.72656 8.33984 9.5625C8.24609 9.375 8.14062 9.1875 8.02344 9C7.90625 8.8125 7.80078 8.64844 7.70703 8.50781C7.61328 8.36719 7.50781 8.23828 7.39062 8.12109L6.96875 7.83984L7.17969 7.41797C7.22656 7.37109 7.25 7.3125 7.25 7.24219C7.25 7.14844 7.20312 7.01953 7.10938 6.85547C7.03906 6.55078 7.02734 6.32812 7.07422 6.1875L7.14453 5.76562C7.37891 5.46094 7.50781 5.28516 7.53125 5.23828L7.88281 4.88672C8.42188 4.74609 8.97266 4.59375 9.53516 4.42969C10.0977 4.24219 10.6484 4.05469 11.1875 3.86719C11.7266 3.67969 12.2773 3.49219 12.8398 3.30469C13.4023 3.11719 13.9648 2.95312 14.5273 2.8125C14.7148 2.64844 14.9141 2.55469 15.125 2.53125C15.3594 2.48437 15.5703 2.44922 15.7578 2.42578C15.9219 2.42578 16.0742 2.41406 16.2148 2.39062C16.3555 2.36719 16.4609 2.30859 16.5312 2.21484C16.9297 2.07422 17.3164 1.95703 17.6914 1.86328C18.3945 1.67578 19.3203 1.45313 20.4688 1.19531C21.6172 0.9375 22.9062 0.75 24.3359 0.632812L25.0742 0.597656C25.2148 0.621094 25.3555 0.632812 25.4961 0.632812C25.6367 0.609375 25.7773 0.597656 25.918 0.597656C27.1367 0.597656 27.9453 0.972656 28.3438 1.72266C28.5781 1.83984 28.7891 1.99219 28.9766 2.17969C29.1641 2.34375 29.3398 2.50781 29.5039 2.67188C29.6211 2.78906 29.7266 2.89453 29.8203 2.98828C29.9141 3.05859 29.9961 3.11719 30.0664 3.16406L30.3477 3.44531C30.6055 4.00781 30.6523 4.55859 30.4883 5.09766C30.3477 5.37891 30.1953 5.54297 30.0312 5.58984C29.8672 5.63672 29.7031 5.68359 29.5391 5.73047L29.082 5.97656C28.7773 5.95313 28.543 5.94141 28.3789 5.94141C28.2383 5.94141 28.0742 5.94141 27.8867 5.94141C27.1836 5.94141 26.3633 5.98828 25.4258 6.08203C24.5117 6.15234 23.5742 6.26953 22.6133 6.43359C21.6523 6.57422 20.7148 6.76172 19.8008 6.99609C18.8867 7.20703 18.0898 7.44141 17.4102 7.69922C17.2227 7.83984 16.9766 7.96875 16.6719 8.08594C16.6016 8.10937 16.4961 8.16797 16.3555 8.26172C16.3789 8.44922 16.3789 8.63672 16.3555 8.82422C16.332 8.98828 16.2969 9.15234 16.25 9.31641C16.2266 9.43359 16.2031 9.5625 16.1797 9.70312C16.1797 9.82031 16.168 9.94922 16.1445 10.0898C15.6523 10.6758 15.418 11.3672 15.4414 12.1641L15.2656 12.5156C15.1719 12.6094 15.0898 12.75 15.0195 12.9375C14.9727 13.1016 14.9727 13.2773 15.0195 13.4648L15.1602 13.8867C15.6289 13.8398 16.0859 13.793 16.5312 13.7461C17 13.6758 17.4922 13.6055 18.0078 13.5352C18.6641 13.418 19.3203 13.3242 19.9766 13.2539C20.6562 13.1602 21.3594 13.1133 22.0859 13.1133H23.457L23.1406 13.4297L23.5273 13.4648L23.3164 14.0273C23.4805 14.0977 23.5977 14.1562 23.668 14.2031C23.7617 14.2266 23.8438 14.2617 23.9141 14.3086L24.1602 14.6602C24.2773 14.7305 24.3828 14.8477 24.4766 15.0117C24.5703 15.1523 24.6289 15.3516 24.6523 15.6094L24.5469 15.9609L22.8945 18.0703L22.6836 18.3516L22.332 18.2461C21.8867 18.2227 21.4648 18.2695 21.0664 18.3867C20.8789 18.4336 20.6797 18.4922 20.4688 18.5625C20.2578 18.6094 20.0469 18.6328 19.8359 18.6328C19.2734 18.7266 18.8047 18.8086 18.4297 18.8789C18.0547 18.9258 17.6797 18.9727 17.3047 19.0195C16.7891 19.1133 16.2852 19.207 15.793 19.3008C15.3242 19.3711 14.8789 19.4883 14.457 19.6523C14.1992 19.6758 14.0469 19.6875 14 19.6875C13.9531 19.6641 13.9062 19.6523 13.8594 19.6523C13.625 19.6523 13.3906 19.6875 13.1562 19.7578C12.9219 19.8281 12.6992 19.8984 12.4883 19.9688C12.3477 20.0859 12.2539 20.2148 12.207 20.3555C12.1602 20.4727 12.1133 20.6016 12.0664 20.7422C12.0195 20.9062 11.9492 21.0703 11.8555 21.2344C11.7852 21.375 11.6914 21.5273 11.5742 21.6914L11.6094 22.3242C11.3984 22.3711 11.293 22.4062 11.293 22.4297C11.293 22.4297 11.2812 22.4297 11.2578 22.4297C11.2578 22.6172 11.2227 22.793 11.1523 22.957C11.1055 23.1211 11.0586 23.2734 11.0117 23.4141C10.9648 23.5078 10.9297 23.5898 10.9062 23.6602C10.8828 23.7305 10.8711 23.8008 10.8711 23.8711C11.1055 24.293 11.1641 24.7734 11.0469 25.3125C10.9531 25.7578 10.7773 26.1562 10.5195 26.5078C10.2617 26.8359 9.95703 27.0938 9.60547 27.2812C9.23047 27.3281 8.94922 27.3164 8.76172 27.2461C8.59766 27.1758 8.42188 27.1055 8.23438 27.0352C8.11719 26.9883 8 26.9531 7.88281 26.9297C7.76562 26.8828 7.64844 26.8477 7.53125 26.8242L7.10938 26.4727C7.03906 26.332 6.95703 26.2031 6.86328 26.0859C6.76953 25.9453 6.67578 25.8047 6.58203 25.6641C6.46484 25.5 6.34766 25.3359 6.23047 25.1719C6.11328 25.0078 6.00781 24.8203 5.91406 24.6094C5.75 23.7891 5.71484 23.1094 5.80859 22.5703C5.92578 22.0078 6.07812 21.457 6.26562 20.918C6.3125 20.7305 6.35938 20.5547 6.40625 20.3906C6.45312 20.2266 6.5 20.0508 6.54688 19.8633ZM37.6672 23.3438C37.4094 24.2812 37.175 24.9961 36.9641 25.4883C36.7766 25.957 36.4836 26.4492 36.0852 26.9648C35.7805 26.918 35.5695 26.9531 35.4523 27.0703C35.3352 27.1875 35.2062 27.293 35.0656 27.3867C34.8547 27.4336 34.7023 27.4336 34.6086 27.3867C34.5148 27.3398 34.4328 27.2812 34.3625 27.2109C34.2922 27.1641 34.1984 27.1055 34.0812 27.0352C33.9875 26.9883 33.8352 26.9648 33.6242 26.9648C33.5773 26.7773 33.5187 26.6016 33.4484 26.4375C33.4016 26.2734 33.2492 26.2148 32.9914 26.2617C33.0383 26.0742 33.05 25.9219 33.0266 25.8047C33.0031 25.6641 32.968 25.5469 32.9211 25.4531C32.8977 25.3359 32.8742 25.2305 32.8508 25.1367C32.8273 25.0195 32.8391 24.8789 32.8859 24.7148C32.7687 24.7148 32.675 24.6328 32.6047 24.4688C32.5344 24.3047 32.4523 24.1406 32.3586 23.9766C32.4289 23.5547 32.4992 23.1562 32.5695 22.7812C32.6398 22.4062 32.7219 22.0547 32.8156 21.7266C32.9328 21.3984 33.0266 21.0703 33.0969 20.7422C33.1672 20.4141 33.132 20.0742 32.9914 19.7227C33.0852 19.793 33.1555 19.7812 33.2023 19.6875C33.2492 19.5703 33.2844 19.4297 33.3078 19.2656C33.3312 19.0781 33.343 18.9023 33.343 18.7383C33.343 18.5508 33.3312 18.3984 33.3078 18.2812C33.5422 17.6719 33.7297 17.0508 33.8703 16.418C34.0344 15.7617 34.175 15.1172 34.2922 14.4844C34.4328 13.8516 34.5734 13.2305 34.7141 12.6211C34.8547 12.0117 35.0422 11.4492 35.2766 10.9336C35.5344 10.8867 35.8156 10.9219 36.1203 11.0391C36.4484 11.1328 36.6477 11.2617 36.718 11.4258C37.3273 10.957 37.8664 10.3945 38.3352 9.73828C38.8039 9.05859 39.2844 8.40234 39.7766 7.76953C40.2687 7.13672 40.8078 6.57422 41.3937 6.08203C42.0031 5.58984 42.7648 5.29687 43.6789 5.20312C44.1477 5.55469 44.6633 5.91797 45.2258 6.29297C45.8117 6.64453 46.2922 7.11328 46.6672 7.69922C46.8547 7.79297 47.007 7.89844 47.1242 8.01562C47.2648 8.10937 47.4289 8.21484 47.6164 8.33203V8.75391C47.8977 9.01172 48.1203 9.31641 48.2844 9.66797C48.4719 9.99609 48.6359 10.3594 48.7766 10.7578C48.9172 11.1328 49.0578 11.5195 49.1984 11.918C49.3391 12.293 49.5031 12.6562 49.6906 13.0078C49.6437 13.125 49.6203 13.2305 49.6203 13.3242C49.6203 13.3945 49.632 13.4766 49.6555 13.5703C49.7023 13.6641 49.7375 13.7578 49.7609 13.8516C49.7844 13.9453 49.7844 14.0742 49.7609 14.2383C49.6906 15.2695 49.3508 16.1016 48.7414 16.7344C48.1555 17.3672 47.4406 17.8945 46.5969 18.3164C45.7531 18.7148 44.8508 19.0547 43.8898 19.3359C42.9289 19.6172 42.0617 19.9219 41.2883 20.25C41.2883 20.3438 41.3234 20.3906 41.3937 20.3906C41.4875 20.3906 41.5227 20.4492 41.4992 20.5664C42.0617 20.918 42.507 21.1992 42.8352 21.4102C43.1633 21.6211 43.468 21.7969 43.7492 21.9375C44.0539 22.0781 44.3703 22.207 44.6984 22.3242C45.05 22.418 45.5305 22.5352 46.1398 22.6758C46.7492 22.8164 47.218 22.9336 47.5461 23.0273C47.8977 23.0977 48.2141 23.168 48.4953 23.2383C48.7766 23.2852 49.0578 23.332 49.3391 23.3789C49.6437 23.4023 50.0656 23.4375 50.6047 23.4844C50.8156 23.6953 50.9914 23.9531 51.132 24.2578C51.2961 24.5391 51.4016 24.832 51.4484 25.1367C51.4953 25.418 51.507 25.6992 51.4836 25.9805C51.4602 26.2383 51.3781 26.4492 51.2375 26.6133C51.2609 26.6836 51.3078 26.7188 51.3781 26.7188C51.4719 26.6953 51.5656 26.6953 51.6594 26.7188C51.5187 26.8125 51.4016 26.9297 51.3078 27.0703C51.2141 27.2109 51.1203 27.3516 51.0266 27.4922C50.9328 27.6328 50.8273 27.75 50.7102 27.8438C50.593 27.9609 50.4289 28.0312 50.218 28.0547C49.4914 28.3359 48.5773 28.3477 47.4758 28.0898C46.3742 27.8555 44.9797 27.4102 43.2922 26.7539C42.4484 26.4258 41.757 26.1445 41.218 25.9102C40.7023 25.6523 40.2453 25.4062 39.8469 25.1719C39.4719 24.9141 39.1203 24.6445 38.7922 24.3633C38.4875 24.082 38.1125 23.7422 37.6672 23.3438ZM42.6945 11.2852C42.4367 11.6602 42.1437 12 41.8156 12.3047C41.5109 12.6094 41.2062 12.9258 40.9016 13.2539C40.6203 13.5586 40.3625 13.9102 40.1281 14.3086C39.8937 14.6836 39.7297 15.1289 39.6359 15.6445C40.4562 15.5508 41.3117 15.3281 42.2023 14.9766C43.093 14.6016 43.9367 14.25 44.7336 13.9219C44.6398 13.1953 44.382 12.6094 43.9602 12.1641C43.5617 11.7188 43.1398 11.4258 42.6945 11.2852ZM78.2797 16.4531C78.2562 16.7344 78.2797 17.0039 78.35 17.2617C78.4203 17.5195 78.5023 17.7773 78.5961 18.0352C78.7133 18.2695 78.8187 18.5156 78.9125 18.7734C79.0062 19.0312 79.0766 19.2891 79.1234 19.5469C79.1703 19.875 79.1703 20.2383 79.1234 20.6367C79.0766 21.0117 78.9945 21.3867 78.8773 21.7617C78.7602 22.1133 78.6078 22.4414 78.4203 22.7461C78.2328 23.0273 78.0102 23.2383 77.7523 23.3789C77.4242 23.8008 77.0258 24.1289 76.557 24.3633C76.0883 24.5977 75.6547 24.8789 75.2562 25.207C74.9984 25.3711 74.7055 25.4883 74.3773 25.5586C74.0727 25.6289 73.7562 25.6992 73.4281 25.7695C73.1703 25.9102 72.8656 26.0625 72.5141 26.2266C72.1625 26.3672 71.7992 26.5078 71.4242 26.6484C71.0492 26.7656 70.6742 26.8594 70.2992 26.9297C69.9242 26.9766 69.5961 26.9883 69.3148 26.9648C68.6117 27.2227 67.9203 27.3867 67.2406 27.457C66.5844 27.5508 65.8109 27.5039 64.9203 27.3164C64.0766 27.4336 63.2914 27.3984 62.5648 27.2109C61.8617 27.0234 61.2289 26.7305 60.6664 26.332C60.1273 25.9102 59.6469 25.418 59.225 24.8555C58.8266 24.2695 58.4984 23.6602 58.2406 23.0273C58.0531 21.6914 58.1 20.4844 58.3812 19.4062C58.6625 18.3047 59.0609 17.2969 59.5766 16.3828C60.1156 15.4453 60.725 14.5898 61.4047 13.8164C62.0844 13.0195 62.7406 12.2461 63.3734 11.4961C63.5141 11.543 63.6195 11.543 63.6898 11.4961C63.7836 11.4258 63.8656 11.3438 63.9359 11.25C64.0062 11.1328 64.0766 11.0273 64.1469 10.9336C64.2406 10.8398 64.3461 10.7812 64.4633 10.7578C64.6273 10.4062 64.8617 10.1484 65.1664 9.98438C65.4945 9.79688 65.7523 9.53906 65.9398 9.21094C66.1508 9.16406 66.3266 9.09375 66.4672 9C66.6078 8.90625 66.7367 8.80078 66.8539 8.68359C66.9945 8.56641 67.1352 8.46094 67.2758 8.36719C67.4164 8.25 67.5805 8.16797 67.768 8.12109V7.73438C68.1898 7.54687 68.4945 7.33594 68.682 7.10156C68.893 6.84375 69.1391 6.53906 69.4203 6.1875C69.6312 6.16406 69.7953 6.15234 69.9125 6.15234C70.0531 6.15234 70.2523 6.12891 70.5102 6.08203C70.6977 5.75391 70.8617 5.50781 71.0023 5.34375C71.1664 5.17969 71.4008 5.00391 71.7055 4.81641C71.9867 4.95703 72.2914 5.05078 72.6195 5.09766C72.9711 5.14453 73.2758 5.29687 73.5336 5.55469C73.557 5.78906 73.6273 5.97656 73.7445 6.11719C73.8617 6.23438 73.9906 6.35156 74.1312 6.46875C74.2719 6.5625 74.4008 6.66797 74.518 6.78516C74.6586 6.90234 74.7523 7.06641 74.7992 7.27734C74.893 7.30078 74.9516 7.28906 74.975 7.24219C75.0219 7.19531 75.0922 7.18359 75.1859 7.20703C75.2562 7.53516 75.3383 7.75781 75.432 7.875C75.5258 7.96875 75.6195 8.16797 75.7133 8.47266C75.5961 8.70703 75.5023 8.95312 75.432 9.21094C75.3852 9.44531 75.2445 9.62109 75.0102 9.73828C74.9867 9.90234 75.0336 9.99609 75.1508 10.0195C75.268 10.0195 75.3383 10.0781 75.3617 10.1953C75.3852 10.4062 75.35 10.5586 75.2562 10.6523C75.8187 11.5664 76.3227 12.5391 76.768 13.5703C77.2133 14.5781 77.7172 15.5391 78.2797 16.4531ZM73.8852 19.793C73.9789 19.5352 74.0961 19.3242 74.2367 19.1602C74.4008 18.9961 74.4945 18.75 74.518 18.4219C74.4008 18.2344 74.3305 18.0938 74.307 18C74.2836 17.8828 74.2719 17.707 74.2719 17.4727C73.7562 16.7461 73.3109 15.9727 72.9359 15.1523C72.5609 14.3086 72.1391 13.5234 71.6703 12.7969C71.6234 12.8906 71.5414 12.9844 71.4242 13.0781C71.307 13.1719 71.1781 13.1484 71.0375 13.0078C70.9906 13.1953 70.9086 13.3359 70.7914 13.4297C70.6742 13.5 70.5453 13.5352 70.4047 13.5352C70.2641 13.5117 70.1117 13.4766 69.9477 13.4297C69.807 13.3594 69.6781 13.2773 69.5609 13.1836C68.8812 13.7227 68.2016 14.25 67.5219 14.7656C66.8422 15.2812 66.2328 15.8789 65.6937 16.5586C65.6 16.6055 65.5414 16.6289 65.518 16.6289C65.4945 16.6055 65.4242 16.6172 65.307 16.6641C65.1195 17.1094 64.8852 17.5195 64.6039 17.8945C64.3461 18.2461 64.0883 18.6094 63.8305 18.9844C63.5727 19.3594 63.35 19.7578 63.1625 20.1797C62.975 20.6016 62.8695 21.0938 62.8461 21.6562C63.2445 21.9844 63.7133 22.1836 64.2523 22.2539C64.7914 22.3242 65.3422 22.3359 65.9047 22.2891C66.4906 22.2422 67.0531 22.1719 67.5922 22.0781C68.1547 21.9609 68.6703 21.9023 69.1391 21.9023C70.1234 21.668 70.9672 21.3633 71.6703 20.9883C72.3734 20.5898 73.1117 20.1914 73.8852 19.793ZM93.9313 20.6016C93.7203 20.6484 93.568 20.7773 93.4742 20.9883C93.3805 21.1758 93.2867 21.375 93.193 21.5859C93.1227 21.7969 93.0406 21.9961 92.9469 22.1836C92.8766 22.3477 92.7594 22.4297 92.5953 22.4297C92.5719 22.6172 92.5016 22.7812 92.3844 22.9219C92.2906 23.0625 92.1969 23.2148 92.1031 23.3789C92.0094 23.5195 91.9391 23.6836 91.8922 23.8711C91.8453 24.0352 91.8688 24.2344 91.9625 24.4688C91.775 24.6094 91.6578 24.8086 91.6109 25.0664C91.5641 25.3242 91.5055 25.5703 91.4352 25.8047C91.3883 26.0391 91.2945 26.2383 91.1539 26.4023C91.0133 26.5664 90.7555 26.6367 90.3805 26.6133C90.3102 26.707 90.2984 26.7656 90.3453 26.7891C90.3922 26.8125 90.4273 26.8945 90.4508 27.0352C90.193 26.9883 89.9938 27 89.8531 27.0703C89.7359 27.1641 89.5836 27.2227 89.3961 27.2461C88.9508 27.1055 88.5758 26.8594 88.2711 26.5078C87.9898 26.1562 87.732 25.7695 87.4977 25.3477C87.2867 24.9023 87.0875 24.457 86.9 24.0117C86.7359 23.5664 86.5719 23.1797 86.4078 22.8516C86.4781 22.5938 86.4898 22.3477 86.443 22.1133C86.3961 21.8555 86.3141 21.6445 86.1969 21.4805C87.3453 19.043 88.5992 16.4414 89.9586 13.6758C91.318 10.9102 92.607 8.17969 93.8258 5.48438C94.3648 5.69531 94.8922 5.94141 95.4078 6.22266C95.9469 6.48047 96.4273 6.78516 96.8492 7.13672C97.2945 7.48828 97.6695 7.89844 97.9742 8.36719C98.2789 8.8125 98.4781 9.31641 98.5719 9.87891C98.525 10.0195 98.4664 10.0781 98.3961 10.0547C98.3492 10.0078 98.3023 10.0195 98.2555 10.0898C98.3492 10.207 98.3961 10.2891 98.3961 10.3359C98.4195 10.3828 98.4195 10.4297 98.3961 10.4766C98.3961 10.5234 98.3961 10.5938 98.3961 10.6875C98.3961 10.7578 98.4313 10.8633 98.5016 11.0039C98.4078 10.9805 98.3375 10.9922 98.2906 11.0391C98.2672 11.0859 98.1969 11.0859 98.0797 11.0391C98.1734 11.2969 98.1969 11.5078 98.15 11.6719C98.1266 11.8359 98.0797 11.9883 98.0094 12.1289C97.9391 12.2461 97.8805 12.3867 97.8336 12.5508C97.7867 12.6914 97.7984 12.8789 97.8688 13.1133C97.7984 13.1133 97.7398 13.1367 97.693 13.1836C97.6695 13.207 97.6461 13.2422 97.6227 13.2891C97.5992 13.3125 97.5641 13.3477 97.5172 13.3945C97.4938 13.418 97.4469 13.418 97.3766 13.3945C97.4469 13.9102 97.4703 14.4258 97.4469 14.9414C97.4234 15.457 97.4 15.9844 97.3766 16.5234C97.3766 17.0391 97.3883 17.5898 97.4117 18.1758C97.4352 18.7383 97.5172 19.3242 97.6578 19.9336C98.5016 19.4414 99.1695 18.8086 99.6617 18.0352C100.177 17.2617 100.588 16.3945 100.892 15.4336C101.22 14.4727 101.466 13.4414 101.63 12.3398C101.795 11.2383 101.97 10.1133 102.158 8.96484C102.369 8.75391 102.533 8.49609 102.65 8.19141C102.767 7.88672 102.873 7.57031 102.966 7.24219C103.06 6.89062 103.154 6.55078 103.248 6.22266C103.341 5.87109 103.459 5.55469 103.599 5.27344C103.951 5.32031 104.244 5.4375 104.478 5.625C104.736 5.78906 104.97 5.97656 105.181 6.1875C105.392 6.375 105.615 6.5625 105.849 6.75C106.084 6.91406 106.377 7.01953 106.728 7.06641C107.009 7.46484 107.267 7.85156 107.502 8.22656C107.736 8.60156 107.888 9 107.959 9.42188C107.841 9.60938 107.748 9.82031 107.677 10.0547C107.63 10.2891 107.572 10.5234 107.502 10.7578C107.431 10.9922 107.338 11.2148 107.22 11.4258C107.103 11.6133 106.939 11.7773 106.728 11.918C106.658 12.5273 106.564 13.0898 106.447 13.6055C106.353 14.0977 106.248 14.5898 106.13 15.082C106.037 15.5742 105.955 16.0898 105.884 16.6289C105.814 17.1445 105.791 17.7188 105.814 18.3516C105.627 18.8906 105.427 19.4648 105.216 20.0742C105.005 20.6836 104.841 21.2344 104.724 21.7266C104.349 22.0312 104.056 22.3945 103.845 22.8164C103.634 23.2383 103.412 23.6602 103.177 24.082C103.084 24.1758 103.025 24.1992 103.002 24.1523C102.978 24.1055 102.896 24.0703 102.755 24.0469C102.779 24.1406 102.779 24.2109 102.755 24.2578C102.732 24.3047 102.697 24.3516 102.65 24.3984C102.627 24.4219 102.603 24.4688 102.58 24.5391C102.58 24.6094 102.603 24.7031 102.65 24.8203C102.322 24.9609 102.029 25.1602 101.771 25.418C101.513 25.6758 101.232 25.9102 100.927 26.1211C100.646 26.332 100.295 26.4727 99.8727 26.543C99.4742 26.6133 98.9469 26.5312 98.2906 26.2969C97.3297 25.5938 96.4742 24.7852 95.7242 23.8711C94.9977 22.957 94.4 21.8672 93.9313 20.6016ZM133.348 10.0898C132.762 10.0898 132.13 10.1367 131.45 10.2305C130.77 10.3008 130.102 10.3828 129.446 10.4766C128.977 10.5469 128.52 10.6055 128.075 10.6523C127.653 10.6992 127.266 10.7344 126.915 10.7578C126.751 11.2734 126.587 11.7305 126.423 12.1289C126.259 12.5273 126.083 12.9141 125.895 13.2891C125.708 13.6875 125.532 14.0977 125.368 14.5195C125.227 14.918 125.087 15.3516 124.946 15.8203C124.712 16.1953 124.512 16.5469 124.348 16.875C124.208 17.1797 124.091 17.5312 123.997 17.9297C123.716 18.2812 123.505 18.6562 123.364 19.0547C123.223 19.4297 123.118 19.7578 123.048 20.0391L122.907 20.4609C122.766 20.6016 122.684 20.7188 122.661 20.8125C122.637 20.8828 122.579 20.9531 122.485 21.0234C122.462 21.2812 122.38 21.5391 122.239 21.7969C122.192 21.9141 122.157 22.0312 122.134 22.1484C122.11 22.2422 122.098 22.3125 122.098 22.3594C122.098 22.5938 122.04 22.7461 121.923 22.8164C121.946 22.9336 121.946 23.0625 121.923 23.2031C121.899 23.3203 121.876 23.4375 121.852 23.5547C121.782 23.8359 121.759 24.0586 121.782 24.2227C121.852 24.3164 121.911 24.3984 121.958 24.4688C122.028 24.5391 122.075 24.6328 122.098 24.75C122.239 24.8438 122.345 24.9023 122.415 24.9258C122.509 24.9961 122.649 25.0781 122.837 25.1719L123.153 25.5234C123.27 26.2031 123.165 26.7422 122.837 27.1406C122.485 27.5859 121.887 27.8086 121.044 27.8086H120.622C120.505 27.6914 120.434 27.5977 120.411 27.5273C120.223 27.457 120.071 27.3984 119.954 27.3516C119.837 27.3047 119.731 27.2109 119.637 27.0703C119.333 26.9297 119.087 26.8125 118.899 26.7188L118.583 26.543C118.583 26.2852 118.583 26.1445 118.583 26.1211C118.419 25.9102 118.29 25.6758 118.196 25.418C118.126 25.1602 118.067 24.9023 118.02 24.6445C117.973 24.4336 117.915 24.2344 117.845 24.0469C117.798 23.8594 117.727 23.6953 117.634 23.5547C117.587 22.1953 117.716 21.0469 118.02 20.1094C118.325 19.1719 118.641 18.2695 118.97 17.4023C119.157 16.9336 119.345 16.4648 119.532 15.9961C119.72 15.5039 119.884 15 120.024 14.4844L120.341 14.1328C120.505 13.7578 120.634 13.4531 120.727 13.2188C120.845 12.9609 120.962 12.7031 121.079 12.4453C121.149 12.2812 121.208 12.1289 121.255 11.9883C121.325 11.8242 121.384 11.6836 121.43 11.5664C121.29 11.5664 121.161 11.5781 121.044 11.6016C120.927 11.6016 120.809 11.6133 120.692 11.6367C120.552 11.6602 120.423 11.6836 120.305 11.707C120.188 11.707 120.071 11.707 119.954 11.707C119.79 11.707 119.673 11.6953 119.602 11.6719C119.345 11.7891 119.063 11.8477 118.759 11.8477H118.407C118.337 11.8477 118.266 11.8477 118.196 11.8477C118.149 11.8242 118.102 11.8125 118.055 11.8125C117.821 11.8125 117.634 11.8477 117.493 11.918C117.212 11.918 116.942 11.918 116.684 11.918H116.333C116.286 11.918 116.227 11.9297 116.157 11.9531C116.087 11.9531 116.028 11.9531 115.981 11.9531C115.817 11.9531 115.641 11.9414 115.454 11.918C115.266 11.8711 115.067 11.7891 114.856 11.6719C114.575 11.2969 114.387 11.0977 114.294 11.0742L113.977 10.6523C113.954 10.5117 113.919 10.3828 113.872 10.2656C113.825 10.125 113.778 9.97266 113.731 9.80859C113.637 9.57422 113.544 9.32812 113.45 9.07031C113.38 8.78906 113.345 8.46094 113.345 8.08594C113.368 7.89844 113.415 7.75781 113.485 7.66406C113.555 7.57031 113.614 7.48828 113.661 7.41797L113.766 6.89062L114.223 6.92578H115.208C115.958 6.92578 116.72 6.90234 117.493 6.85547C118.266 6.78516 119.063 6.71484 119.884 6.64453C120.352 6.59766 120.821 6.55078 121.29 6.50391C121.782 6.45703 122.286 6.41016 122.802 6.36328C122.895 6.15234 122.989 5.95313 123.083 5.76562L123.434 5.58984C123.856 5.56641 124.149 5.625 124.313 5.76562C124.501 5.88281 124.653 6 124.77 6.11719C125.286 6.07031 125.802 6.02344 126.317 5.97656C126.856 5.90625 127.395 5.82422 127.934 5.73047C128.731 5.61328 129.528 5.50781 130.325 5.41406C131.145 5.32031 131.93 5.27344 132.68 5.27344C133.009 5.27344 133.325 5.28516 133.63 5.30859C133.934 5.33203 134.216 5.36719 134.473 5.41406L134.825 5.66016C134.895 5.80078 134.989 5.92969 135.106 6.04688C135.247 6.16406 135.387 6.28125 135.528 6.39844C135.809 6.65625 136.091 6.96094 136.372 7.3125C136.653 7.66406 136.759 8.17969 136.688 8.85938C136.501 9.14062 136.36 9.30469 136.266 9.35156L135.95 9.77344L135.598 9.73828C135.458 9.73828 135.329 9.76172 135.212 9.80859C135.095 9.83203 134.977 9.86719 134.86 9.91406C134.766 9.96094 134.673 10.0078 134.579 10.0547C134.485 10.0781 134.38 10.1016 134.262 10.125C134.052 10.125 133.876 10.125 133.735 10.125C133.618 10.1016 133.489 10.0898 133.348 10.0898ZM155.188 16.5234C155.539 16.5703 155.785 16.6523 155.926 16.7695C156.09 16.8867 156.195 17.0391 156.242 17.2266C156.312 17.3906 156.336 17.5781 156.312 17.7891C156.289 18 156.277 18.2109 156.277 18.4219C155.691 18.8203 154.883 19.1016 153.852 19.2656C152.82 19.4062 151.742 19.5117 150.617 19.582C149.492 19.6289 148.402 19.6523 147.348 19.6523C146.293 19.6523 145.461 19.6875 144.852 19.7578C143.586 19.8984 142.602 20.0391 141.898 20.1797C141.219 20.2969 140.75 20.4141 140.492 20.5312C140.047 20.5078 139.695 20.4258 139.438 20.2852C139.18 20.1445 138.969 19.9805 138.805 19.793C138.641 19.582 138.5 19.3477 138.383 19.0898C138.266 18.832 138.125 18.5625 137.961 18.2812C138.055 18.0938 138.078 17.8242 138.031 17.4727C137.984 17.1211 137.844 16.8516 137.609 16.6641C137.797 16.6406 137.938 16.5117 138.031 16.2773C138.125 16.0195 138.125 15.832 138.031 15.7148C138.406 15.6211 138.805 15.5625 139.227 15.5391C139.672 15.4922 140.105 15.457 140.527 15.4336C140.949 15.4102 141.348 15.375 141.723 15.3281C142.121 15.2578 142.461 15.1523 142.742 15.0117C143.914 14.9883 145.121 14.9531 146.363 14.9062C147.629 14.8594 148.812 14.8125 149.914 14.7656C150.312 14.8828 150.781 14.9531 151.32 14.9766C151.859 14.9766 152.387 15.0117 152.902 15.082C153.418 15.1289 153.887 15.2578 154.309 15.4688C154.73 15.6797 155.023 16.0312 155.188 16.5234ZM167.113 25.8047C166.925 25.6172 166.784 25.3945 166.691 25.1367C166.62 24.8789 166.433 24.668 166.128 24.5039C166.081 24.1523 166.011 23.7539 165.917 23.3086C165.847 22.8398 165.765 22.3711 165.671 21.9023C165.601 21.4102 165.542 20.9297 165.495 20.4609C165.472 19.9688 165.495 19.5234 165.566 19.125C165.613 18.9141 165.683 18.7148 165.777 18.5273C165.894 18.3398 165.999 18.1641 166.093 18C166.21 17.8125 166.292 17.625 166.339 17.4375C166.409 17.25 166.421 17.0625 166.374 16.875C166.515 16.8516 166.597 16.7812 166.62 16.6641C166.667 16.5234 166.784 16.4766 166.972 16.5234C167.136 16.0078 167.312 15.5273 167.499 15.082C167.687 14.6367 167.886 14.2031 168.097 13.7812C168.308 13.3594 168.519 12.9375 168.73 12.5156C168.964 12.0703 169.175 11.5781 169.363 11.0391C168.964 10.6641 168.671 10.2656 168.484 9.84375C168.32 9.39844 168.191 8.95312 168.097 8.50781C168.003 8.0625 167.933 7.61719 167.886 7.17188C167.839 6.70312 167.745 6.23438 167.605 5.76562C167.886 5.34375 168.226 5.00391 168.624 4.74609C169.023 4.46484 169.456 4.24219 169.925 4.07812C170.417 3.89062 170.945 3.75 171.507 3.65625C172.07 3.53906 172.667 3.41016 173.3 3.26953C174.425 2.91797 175.433 2.64844 176.323 2.46094C177.214 2.25 178.081 2.08594 178.925 1.96875C179.769 1.82812 180.648 1.71094 181.562 1.61719C182.476 1.5 183.53 1.33594 184.726 1.125C184.749 1.19531 184.784 1.23047 184.831 1.23047C184.902 1.23047 184.984 1.23047 185.077 1.23047C185.148 1.39453 185.277 1.47656 185.464 1.47656C185.464 1.40625 185.452 1.34766 185.429 1.30078C185.429 1.23047 185.429 1.17188 185.429 1.125C185.476 1.125 185.534 1.13672 185.605 1.16016C185.698 1.18359 185.769 1.20703 185.816 1.23047C185.886 1.25391 185.945 1.25391 185.991 1.23047C186.038 1.18359 186.05 1.10156 186.027 0.984375C186.308 1.47656 186.671 1.88672 187.116 2.21484C187.562 2.51953 188.054 2.78906 188.593 3.02344C188.616 3.23438 188.616 3.38672 188.593 3.48047C188.593 3.57422 188.581 3.66797 188.558 3.76172C188.534 3.83203 188.523 3.92578 188.523 4.04297C188.523 4.13672 188.546 4.27734 188.593 4.46484C188.218 5.09766 187.784 5.58984 187.292 5.94141C186.823 6.29297 186.32 6.5625 185.78 6.75C185.241 6.9375 184.667 7.07813 184.058 7.17188C183.472 7.26562 182.863 7.37109 182.23 7.48828C181.62 7.58203 180.999 7.72266 180.366 7.91016C179.734 8.09766 179.113 8.37891 178.503 8.75391C178.316 8.68359 178.14 8.66016 177.976 8.68359C177.835 8.68359 177.683 8.70703 177.519 8.75391C177.355 8.80078 177.167 8.84766 176.956 8.89453C176.769 8.94141 176.534 8.94141 176.253 8.89453C176.066 9.05859 175.843 9.17578 175.585 9.24609C175.351 9.31641 175.105 9.38672 174.847 9.45703C174.964 9.71484 175.011 9.97266 174.988 10.2305C174.988 10.4883 175.023 10.7109 175.093 10.8984C176.077 10.9922 177.167 10.9922 178.363 10.8984C179.558 10.7812 180.73 10.6992 181.878 10.6523C181.902 10.7695 181.89 10.8516 181.843 10.8984C181.796 10.9453 181.773 11.0273 181.773 11.1445C181.984 11.2852 182.183 11.4609 182.37 11.6719C182.558 11.8828 182.745 12.0938 182.933 12.3047C183.144 12.4922 183.355 12.6562 183.566 12.7969C183.777 12.9141 184.023 12.9609 184.304 12.9375C184.421 13.1719 184.503 13.418 184.55 13.6758C184.597 13.9336 184.562 14.2031 184.445 14.4844C183.976 14.7891 183.519 15.1055 183.073 15.4336C182.628 15.7383 182.159 16.0195 181.667 16.2773C181.198 16.5352 180.683 16.7461 180.12 16.9102C179.558 17.0742 178.948 17.1445 178.292 17.1211C178.175 17.1211 178.07 17.1211 177.976 17.1211C177.905 17.1211 177.812 17.0742 177.695 16.9805C177.46 17.0977 177.144 17.1445 176.745 17.1211C176.37 17.0742 176.054 17.1094 175.796 17.2266C175.468 17.1094 175.081 17.0508 174.636 17.0508C174.214 17.0508 173.839 16.9922 173.511 16.875C173.089 17.4844 172.691 18.1289 172.316 18.8086C171.941 19.4648 171.613 20.168 171.331 20.918C172.292 21.0586 173.089 21.1172 173.722 21.0938C174.355 21.0703 174.952 21.0234 175.515 20.9531C176.077 20.8828 176.652 20.8125 177.238 20.7422C177.847 20.6719 178.585 20.6484 179.452 20.6719C180.038 20.3906 180.706 20.2031 181.456 20.1094C182.23 19.9922 182.945 19.8281 183.601 19.6172C183.835 19.6875 184.034 19.8281 184.198 20.0391C184.363 20.2266 184.515 20.4258 184.655 20.6367C184.82 20.8242 184.984 20.9883 185.148 21.1289C185.312 21.2695 185.523 21.3164 185.78 21.2695C185.898 21.3867 185.968 21.5273 185.991 21.6914C186.038 21.8555 186.073 22.0078 186.097 22.1484C186.144 22.2891 186.202 22.4062 186.273 22.5C186.343 22.5703 186.472 22.5938 186.659 22.5703C186.214 23.4844 185.71 24.1875 185.148 24.6797C184.609 25.1719 183.988 25.5586 183.284 25.8398C182.605 26.0977 181.831 26.2969 180.964 26.4375C180.12 26.5547 179.171 26.707 178.116 26.8945C177.859 26.9414 177.636 26.9414 177.448 26.8945C177.284 26.8242 177.109 26.7891 176.921 26.7891C176.265 26.9062 175.48 27.0234 174.566 27.1406C173.675 27.2578 172.773 27.3047 171.859 27.2812C170.945 27.2578 170.066 27.1406 169.222 26.9297C168.378 26.7188 167.675 26.3438 167.113 25.8047ZM201.221 20.6016C201.01 20.6484 200.858 20.7773 200.764 20.9883C200.67 21.1758 200.577 21.375 200.483 21.5859C200.413 21.7969 200.33 21.9961 200.237 22.1836C200.166 22.3477 200.049 22.4297 199.885 22.4297C199.862 22.6172 199.791 22.7812 199.674 22.9219C199.58 23.0625 199.487 23.2148 199.393 23.3789C199.299 23.5195 199.229 23.6836 199.182 23.8711C199.135 24.0352 199.159 24.2344 199.252 24.4688C199.065 24.6094 198.948 24.8086 198.901 25.0664C198.854 25.3242 198.795 25.5703 198.725 25.8047C198.678 26.0391 198.584 26.2383 198.444 26.4023C198.303 26.5664 198.045 26.6367 197.67 26.6133C197.6 26.707 197.588 26.7656 197.635 26.7891C197.682 26.8125 197.717 26.8945 197.741 27.0352C197.483 26.9883 197.284 27 197.143 27.0703C197.026 27.1641 196.873 27.2227 196.686 27.2461C196.241 27.1055 195.866 26.8594 195.561 26.5078C195.28 26.1562 195.022 25.7695 194.788 25.3477C194.577 24.9023 194.377 24.457 194.19 24.0117C194.026 23.5664 193.862 23.1797 193.698 22.8516C193.768 22.5938 193.78 22.3477 193.733 22.1133C193.686 21.8555 193.604 21.6445 193.487 21.4805C194.635 19.043 195.889 16.4414 197.248 13.6758C198.608 10.9102 199.897 8.17969 201.116 5.48438C201.655 5.69531 202.182 5.94141 202.698 6.22266C203.237 6.48047 203.717 6.78516 204.139 7.13672C204.584 7.48828 204.959 7.89844 205.264 8.36719C205.569 8.8125 205.768 9.31641 205.862 9.87891C205.815 10.0195 205.756 10.0781 205.686 10.0547C205.639 10.0078 205.592 10.0195 205.545 10.0898C205.639 10.207 205.686 10.2891 205.686 10.3359C205.709 10.3828 205.709 10.4297 205.686 10.4766C205.686 10.5234 205.686 10.5938 205.686 10.6875C205.686 10.7578 205.721 10.8633 205.791 11.0039C205.698 10.9805 205.627 10.9922 205.58 11.0391C205.557 11.0859 205.487 11.0859 205.37 11.0391C205.463 11.2969 205.487 11.5078 205.44 11.6719C205.416 11.8359 205.37 11.9883 205.299 12.1289C205.229 12.2461 205.17 12.3867 205.123 12.5508C205.077 12.6914 205.088 12.8789 205.159 13.1133C205.088 13.1133 205.03 13.1367 204.983 13.1836C204.959 13.207 204.936 13.2422 204.913 13.2891C204.889 13.3125 204.854 13.3477 204.807 13.3945C204.784 13.418 204.737 13.418 204.666 13.3945C204.737 13.9102 204.76 14.4258 204.737 14.9414C204.713 15.457 204.69 15.9844 204.666 16.5234C204.666 17.0391 204.678 17.5898 204.702 18.1758C204.725 18.7383 204.807 19.3242 204.948 19.9336C205.791 19.4414 206.459 18.8086 206.952 18.0352C207.467 17.2617 207.877 16.3945 208.182 15.4336C208.51 14.4727 208.756 13.4414 208.92 12.3398C209.084 11.2383 209.26 10.1133 209.448 8.96484C209.659 8.75391 209.823 8.49609 209.94 8.19141C210.057 7.88672 210.163 7.57031 210.256 7.24219C210.35 6.89062 210.444 6.55078 210.538 6.22266C210.631 5.87109 210.748 5.55469 210.889 5.27344C211.241 5.32031 211.534 5.4375 211.768 5.625C212.026 5.78906 212.26 5.97656 212.471 6.1875C212.682 6.375 212.905 6.5625 213.139 6.75C213.373 6.91406 213.666 7.01953 214.018 7.06641C214.299 7.46484 214.557 7.85156 214.791 8.22656C215.026 8.60156 215.178 9 215.248 9.42188C215.131 9.60938 215.038 9.82031 214.967 10.0547C214.92 10.2891 214.862 10.5234 214.791 10.7578C214.721 10.9922 214.627 11.2148 214.51 11.4258C214.393 11.6133 214.229 11.7773 214.018 11.918C213.948 12.5273 213.854 13.0898 213.737 13.6055C213.643 14.0977 213.538 14.5898 213.42 15.082C213.327 15.5742 213.245 16.0898 213.174 16.6289C213.104 17.1445 213.08 17.7188 213.104 18.3516C212.916 18.8906 212.717 19.4648 212.506 20.0742C212.295 20.6836 212.131 21.2344 212.014 21.7266C211.639 22.0312 211.346 22.3945 211.135 22.8164C210.924 23.2383 210.702 23.6602 210.467 24.082C210.373 24.1758 210.315 24.1992 210.291 24.1523C210.268 24.1055 210.186 24.0703 210.045 24.0469C210.069 24.1406 210.069 24.2109 210.045 24.2578C210.022 24.3047 209.987 24.3516 209.94 24.3984C209.916 24.4219 209.893 24.4688 209.87 24.5391C209.87 24.6094 209.893 24.7031 209.94 24.8203C209.612 24.9609 209.319 25.1602 209.061 25.418C208.803 25.6758 208.522 25.9102 208.217 26.1211C207.936 26.332 207.584 26.4727 207.163 26.543C206.764 26.6133 206.237 26.5312 205.58 26.2969C204.62 25.5938 203.764 24.7852 203.014 23.8711C202.288 22.957 201.69 21.8672 201.221 20.6016ZM237.966 17.5078C237.943 17.625 237.92 17.7305 237.896 17.8242C237.873 17.8945 237.849 17.9648 237.826 18.0352C237.802 18.1055 237.791 18.1992 237.791 18.3164C237.791 18.4102 237.791 18.5391 237.791 18.7031C237.087 19.9453 236.197 20.9883 235.119 21.832C234.064 22.6758 232.892 23.4258 231.603 24.082C230.337 24.7148 229.013 25.3008 227.63 25.8398C226.248 26.3555 224.9 26.918 223.587 27.5273C223.025 27.3867 222.591 27.1523 222.287 26.8242C222.005 26.4961 221.783 26.1211 221.619 25.6992C221.478 25.2539 221.373 24.7734 221.302 24.2578C221.255 23.7188 221.209 23.168 221.162 22.6055C221.232 22.3477 221.326 22.1367 221.443 21.9727C221.584 21.7852 221.654 21.5273 221.654 21.1992C221.841 20.5898 222.029 19.9922 222.216 19.4062C222.404 18.8203 222.521 18.2227 222.568 17.6133C222.638 17.4258 222.767 17.2969 222.955 17.2266C223.072 16.1016 223.072 14.9648 222.955 13.8164C222.861 12.6445 222.673 11.5547 222.392 10.5469C222.416 10.3125 222.439 10.1484 222.462 10.0547C222.509 9.9375 222.509 9.85547 222.462 9.80859C222.439 9.62109 222.498 9.52734 222.638 9.52734C222.802 9.52734 222.966 9.52734 223.13 9.52734C223.13 9.17578 223.06 8.82422 222.92 8.47266C222.802 8.12109 222.685 7.72266 222.568 7.27734C222.732 6.92578 222.837 6.58594 222.884 6.25781C222.931 5.90625 223.037 5.60156 223.201 5.34375C224.466 5.74219 225.673 6.22266 226.822 6.78516C227.994 7.34766 229.142 7.75781 230.267 8.01562C231.111 8.625 231.978 9.23438 232.869 9.84375C233.759 10.4297 234.568 11.0859 235.295 11.8125C236.021 12.5156 236.63 13.3242 237.123 14.2383C237.615 15.1523 237.896 16.2422 237.966 17.5078ZM229.634 19.4414C230.127 19.2539 230.607 19.0547 231.076 18.8438C231.568 18.6328 232.013 18.3984 232.412 18.1406C232.834 17.8594 233.209 17.543 233.537 17.1914C233.865 16.8398 234.134 16.418 234.345 15.9258C234.205 15.6445 234.017 15.3984 233.783 15.1875C233.548 14.9531 233.314 14.7422 233.08 14.5547C232.845 14.3438 232.611 14.1328 232.377 13.9219C232.166 13.7109 231.99 13.4531 231.849 13.1484C231.545 13.1016 231.275 13.0195 231.041 12.9023C230.806 12.7617 230.572 12.6328 230.337 12.5156C230.127 12.375 229.892 12.2461 229.634 12.1289C229.4 12.0117 229.119 11.9414 228.791 11.918C228.275 11.6602 227.806 11.4727 227.384 11.3555C226.986 11.2383 226.681 11.0859 226.47 10.8984C226.306 10.8984 226.177 10.9336 226.084 11.0039C226.318 11.8945 226.494 12.7383 226.611 13.5352C226.728 14.3086 226.787 15.0938 226.787 15.8906C226.81 16.6641 226.775 17.4609 226.681 18.2812C226.587 19.1016 226.459 19.9922 226.295 20.9531C226.529 20.9297 226.74 20.8828 226.927 20.8125C227.138 20.7188 227.337 20.625 227.525 20.5312C227.736 20.4375 227.947 20.3555 228.158 20.2852C228.392 20.1914 228.662 20.1328 228.966 20.1094C229.037 19.9688 229.13 19.8516 229.248 19.7578C229.388 19.6641 229.517 19.5586 229.634 19.4414ZM267.898 27.3867C267.219 27.2227 266.691 26.9531 266.316 26.5781C265.965 26.1797 265.695 25.7227 265.508 25.207C265.344 24.668 265.227 24.082 265.156 23.4492C265.109 22.8164 265.051 22.1602 264.98 21.4805C265.074 21.1758 265.191 20.918 265.332 20.707C265.496 20.4961 265.566 20.2031 265.543 19.8281C265.801 19.0781 266.035 18.3516 266.246 17.6484C266.457 16.9453 266.598 16.2188 266.668 15.4688C266.809 15.2578 266.949 15.1172 267.09 15.0469C267.277 13.7109 267.301 12.3398 267.16 10.9336C267.02 9.52734 266.785 8.22656 266.457 7.03125C266.48 6.77344 266.516 6.58594 266.562 6.46875C266.609 6.32812 266.609 6.21094 266.562 6.11719C266.516 5.90625 266.586 5.80078 266.773 5.80078C266.961 5.80078 267.148 5.80078 267.336 5.80078C267.336 5.37891 267.254 4.96875 267.09 4.57031C266.949 4.14844 266.809 3.66797 266.668 3.12891C266.855 2.70703 266.984 2.29688 267.055 1.89844C267.125 1.5 267.254 1.13672 267.441 0.808594C268.191 1.04297 268.93 1.3125 269.656 1.61719C270.383 1.92187 271.098 2.22656 271.801 2.53125C272.504 2.8125 273.195 3.09375 273.875 3.375C274.555 3.63281 275.223 3.84375 275.879 4.00781C276.887 4.73437 277.918 5.46094 278.973 6.1875C280.051 6.89062 281.023 7.67578 281.891 8.54297C282.781 9.38672 283.52 10.3594 284.105 11.4609C284.691 12.5625 285.031 13.8633 285.125 15.3633C285.078 15.5039 285.043 15.6211 285.02 15.7148C284.996 15.8086 284.973 15.9023 284.949 15.9961C284.926 16.0898 284.914 16.1953 284.914 16.3125C284.914 16.4297 284.914 16.5938 284.914 16.8047C284.07 18.2812 283.004 19.5234 281.715 20.5312C280.426 21.5391 279.02 22.4297 277.496 23.2031C275.973 23.9766 274.379 24.6914 272.715 25.3477C271.074 25.9805 269.469 26.6602 267.898 27.3867ZM271.344 7.45312C271.133 7.45312 270.98 7.5 270.887 7.59375C271.168 8.64844 271.379 9.64453 271.52 10.582C271.66 11.5195 271.73 12.457 271.73 13.3945C271.754 14.332 271.707 15.293 271.59 16.2773C271.473 17.2617 271.309 18.3281 271.098 19.4766C271.402 19.4531 271.672 19.3945 271.906 19.3008C272.141 19.207 272.375 19.1016 272.609 18.9844C272.867 18.8672 273.125 18.7617 273.383 18.668C273.664 18.5742 273.98 18.5156 274.332 18.4922C274.426 18.3047 274.543 18.1641 274.684 18.0703C274.848 17.9531 274.988 17.8359 275.105 17.7188C275.691 17.4844 276.277 17.2383 276.863 16.9805C277.449 16.7227 277.988 16.4297 278.48 16.1016C278.973 15.7734 279.418 15.3984 279.816 14.9766C280.215 14.5547 280.543 14.0508 280.801 13.4648C280.613 13.1133 280.379 12.8203 280.098 12.5859C279.84 12.3281 279.559 12.082 279.254 11.8477C278.973 11.5898 278.691 11.332 278.41 11.0742C278.152 10.793 277.941 10.4766 277.777 10.125C277.402 10.0781 277.074 9.98438 276.793 9.84375C276.512 9.67969 276.242 9.52734 275.984 9.38672C275.727 9.22266 275.445 9.07031 275.141 8.92969C274.859 8.78906 274.52 8.70703 274.121 8.68359C273.512 8.35547 272.961 8.13281 272.469 8.01562C271.977 7.875 271.602 7.6875 271.344 7.45312ZM311.218 7.20703C311.241 7.37109 311.241 7.5 311.218 7.59375C311.218 7.66406 311.206 7.73438 311.183 7.80469C311.183 7.875 311.183 7.95703 311.183 8.05078C311.183 8.12109 311.206 8.23828 311.253 8.40234C310.761 9.19922 310.187 9.75 309.53 10.0547C308.898 10.3359 308.206 10.5469 307.456 10.6875C306.706 10.8047 305.933 10.9336 305.136 11.0742C304.362 11.2148 303.589 11.5195 302.816 11.9883C302.511 11.8711 302.23 11.8711 301.972 11.9883C301.737 12.1055 301.386 12.1406 300.917 12.0938C300.777 12.2344 300.601 12.3398 300.39 12.4102C300.179 12.457 299.968 12.5156 299.757 12.5859C299.851 12.7969 299.886 13.0195 299.862 13.2539C299.862 13.4648 299.898 13.6406 299.968 13.7812C300.788 13.8516 301.691 13.8398 302.675 13.7461C303.683 13.6523 304.667 13.5938 305.628 13.5703C305.652 13.6875 305.64 13.7695 305.593 13.8164C305.546 13.8398 305.534 13.8984 305.558 13.9922C305.722 14.1094 305.886 14.2617 306.05 14.4492C306.214 14.6133 306.378 14.7773 306.542 14.9414C306.706 15.1055 306.87 15.2461 307.034 15.3633C307.222 15.457 307.433 15.4922 307.667 15.4688C307.761 15.6562 307.82 15.8672 307.843 16.1016C307.89 16.3125 307.866 16.5352 307.773 16.7695C307.398 17.0273 307.023 17.2969 306.648 17.5781C306.273 17.8359 305.874 18.0703 305.452 18.2812C305.054 18.4922 304.62 18.668 304.152 18.8086C303.706 18.9258 303.202 18.9727 302.64 18.9492C302.523 18.9492 302.429 18.9492 302.359 18.9492C302.312 18.9492 302.241 18.9141 302.148 18.8438C301.96 18.9609 301.691 18.9961 301.339 18.9492C301.011 18.9023 300.753 18.9375 300.566 19.0547C300.308 18.9375 299.991 18.8906 299.616 18.9141C299.265 18.9141 298.948 18.8672 298.667 18.7734C298.292 19.2656 297.952 19.793 297.648 20.3555C297.343 20.918 297.073 21.5156 296.839 22.1484C297.636 22.2656 298.292 22.3125 298.808 22.2891C299.347 22.2656 299.851 22.2305 300.32 22.1836C300.788 22.1133 301.269 22.0547 301.761 22.0078C302.253 21.9375 302.874 21.9141 303.624 21.9375C304.093 21.6797 304.644 21.5156 305.277 21.4453C305.933 21.3516 306.53 21.2109 307.07 21.0234C307.257 21.0938 307.421 21.2227 307.562 21.4102C307.702 21.5742 307.831 21.7383 307.948 21.9023C308.089 22.043 308.23 22.1719 308.37 22.2891C308.511 22.4062 308.687 22.4531 308.898 22.4297C308.991 22.5234 309.05 22.6406 309.073 22.7812C309.12 22.8984 309.155 23.0156 309.179 23.1328C309.202 23.25 309.237 23.3555 309.284 23.4492C309.355 23.5195 309.46 23.543 309.601 23.5195C309.249 24.293 308.839 24.8906 308.37 25.3125C307.925 25.7109 307.409 26.0156 306.823 26.2266C306.237 26.4375 305.581 26.6016 304.855 26.7188C304.152 26.8359 303.366 26.9766 302.499 27.1406C302.288 27.1875 302.112 27.1758 301.972 27.1055C301.831 27.0586 301.667 27.0352 301.48 27.0352C300.941 27.1523 300.296 27.2578 299.546 27.3516C298.796 27.4453 298.034 27.4805 297.261 27.457C296.487 27.4336 295.749 27.3281 295.046 27.1406C294.343 26.9766 293.769 26.6719 293.323 26.2266C293.136 26.0625 293.007 25.875 292.937 25.6641C292.89 25.4297 292.737 25.2539 292.48 25.1367C292.456 24.832 292.409 24.4922 292.339 24.1172C292.269 23.7422 292.198 23.3555 292.128 22.957C292.058 22.5352 291.999 22.125 291.952 21.7266C291.929 21.3281 291.952 20.9648 292.023 20.6367C292.093 20.2852 292.234 19.9688 292.445 19.6875C292.679 19.4062 292.761 19.1016 292.691 18.7734C292.808 18.75 292.878 18.6914 292.902 18.5977C292.925 18.4805 293.019 18.4336 293.183 18.457C293.323 18.0352 293.476 17.6367 293.64 17.2617C293.804 16.8867 293.968 16.5234 294.132 16.1719C294.32 15.8203 294.495 15.4688 294.659 15.1172C294.847 14.7422 295.023 14.332 295.187 13.8867C294.859 13.582 294.612 13.2539 294.448 12.9023C294.308 12.5273 294.202 12.1641 294.132 11.8125C294.062 11.4375 294.003 11.0625 293.956 10.6875C293.909 10.2891 293.827 9.89062 293.71 9.49219C293.945 9.14062 294.226 8.85938 294.554 8.64844C294.905 8.41406 295.28 8.22656 295.679 8.08594C296.077 7.94531 296.511 7.82812 296.98 7.73438C297.448 7.64063 297.941 7.53516 298.456 7.41797C299.394 7.11328 300.226 6.87891 300.952 6.71484C301.702 6.55078 302.429 6.42187 303.132 6.32812C303.859 6.21094 304.609 6.10547 305.382 6.01172C306.155 5.91797 307.034 5.77734 308.019 5.58984C308.23 5.80078 308.429 5.90625 308.616 5.90625C308.71 5.69531 308.816 5.63672 308.933 5.73047C309.073 5.80078 309.132 5.73047 309.109 5.51953C309.343 5.91797 309.636 6.25781 309.987 6.53906C310.362 6.79688 310.773 7.01953 311.218 7.20703ZM328.381 20.8125C328.358 21.1406 328.276 21.457 328.135 21.7617C328.018 22.043 327.866 22.3242 327.678 22.6055C327.491 22.8633 327.28 23.1211 327.045 23.3789C326.834 23.6133 326.623 23.8242 326.413 24.0117C326.483 24.3164 326.483 24.5508 326.413 24.7148C326.366 24.8555 326.354 25.0781 326.377 25.3828C326.026 26.3203 325.487 26.9414 324.76 27.2461C324.057 27.5742 323.389 27.5156 322.756 27.0703C322.498 26.8828 322.276 26.6484 322.088 26.3672C321.924 26.0625 321.69 25.875 321.385 25.8047C321.455 25.4062 321.42 25.0078 321.28 24.6094C321.139 24.2109 320.987 24 320.823 23.9766C320.752 23.4844 320.647 22.957 320.506 22.3945C320.366 21.832 320.237 21.2695 320.12 20.707C320.002 20.1211 319.897 19.5586 319.803 19.0195C319.733 18.457 319.709 17.9414 319.733 17.4727C319.756 17.2383 319.709 17.0273 319.592 16.8398C319.498 16.6523 319.428 16.4297 319.381 16.1719C319.288 15.6328 319.252 15.0703 319.276 14.4844C319.323 13.875 319.346 13.3008 319.346 12.7617C319.346 12.2461 319.311 11.6953 319.241 11.1094C319.194 10.5 319.147 9.92578 319.1 9.38672C319.053 8.82422 319.03 8.32031 319.03 7.875C319.03 7.40625 319.088 7.04297 319.205 6.78516C319.346 6.50391 319.534 6.28125 319.768 6.11719C320.026 5.92969 320.26 5.73047 320.471 5.51953C320.987 5.56641 321.397 5.77734 321.702 6.15234C322.006 6.52734 322.123 6.87891 322.053 7.20703C322.545 7.51172 322.932 7.91016 323.213 8.40234C323.518 8.87109 323.752 9.41016 323.916 10.0195C324.104 10.6055 324.233 11.2383 324.303 11.918C324.373 12.5742 324.432 13.2305 324.479 13.8867C324.526 14.5195 324.573 15.1289 324.62 15.7148C324.666 16.3008 324.76 16.8047 324.901 17.2266C325.768 15.9844 326.495 14.8828 327.08 13.9219C327.666 12.9375 328.264 12 328.873 11.1094C329.483 10.2188 330.163 9.31641 330.913 8.40234C331.663 7.48828 332.635 6.45703 333.83 5.30859C334.065 5.33203 334.252 5.37891 334.393 5.44922C334.557 5.51953 334.698 5.57812 334.815 5.625C334.932 5.67188 335.073 5.71875 335.237 5.76562C335.401 5.78906 335.623 5.77734 335.905 5.73047C335.998 5.96484 336.069 6.14062 336.116 6.25781C336.163 6.35156 336.198 6.45703 336.221 6.57422C336.268 6.66797 336.315 6.79688 336.362 6.96094C336.432 7.125 336.538 7.35938 336.678 7.66406C336.748 7.73438 336.772 7.82812 336.748 7.94531C336.725 8.0625 336.702 8.17969 336.678 8.29688C336.678 8.39062 336.678 8.46094 336.678 8.50781C336.678 8.55469 336.737 8.55469 336.854 8.50781C336.784 8.83594 336.655 9.14062 336.467 9.42188C336.303 9.67969 336.233 9.99609 336.256 10.3711C335.717 11.0742 335.12 11.8008 334.463 12.5508C333.83 13.3008 333.186 14.0742 332.53 14.8711C331.897 15.668 331.288 16.5117 330.702 17.4023C330.116 18.2695 329.612 19.1836 329.19 20.1445C329.073 20.1445 328.979 20.1797 328.909 20.25C328.862 20.3203 328.815 20.4023 328.768 20.4961C328.721 20.5664 328.663 20.6367 328.592 20.707C328.545 20.7773 328.475 20.8125 328.381 20.8125ZM360.064 7.20703C360.087 7.37109 360.087 7.5 360.064 7.59375C360.064 7.66406 360.052 7.73438 360.029 7.80469C360.029 7.875 360.029 7.95703 360.029 8.05078C360.029 8.12109 360.052 8.23828 360.099 8.40234C359.607 9.19922 359.033 9.75 358.377 10.0547C357.744 10.3359 357.052 10.5469 356.302 10.6875C355.552 10.8047 354.779 10.9336 353.982 11.0742C353.209 11.2148 352.435 11.5195 351.662 11.9883C351.357 11.8711 351.076 11.8711 350.818 11.9883C350.584 12.1055 350.232 12.1406 349.763 12.0938C349.623 12.2344 349.447 12.3398 349.236 12.4102C349.025 12.457 348.814 12.5156 348.603 12.5859C348.697 12.7969 348.732 13.0195 348.709 13.2539C348.709 13.4648 348.744 13.6406 348.814 13.7812C349.634 13.8516 350.537 13.8398 351.521 13.7461C352.529 13.6523 353.513 13.5938 354.474 13.5703C354.498 13.6875 354.486 13.7695 354.439 13.8164C354.392 13.8398 354.38 13.8984 354.404 13.9922C354.568 14.1094 354.732 14.2617 354.896 14.4492C355.06 14.6133 355.224 14.7773 355.388 14.9414C355.552 15.1055 355.716 15.2461 355.88 15.3633C356.068 15.457 356.279 15.4922 356.513 15.4688C356.607 15.6562 356.666 15.8672 356.689 16.1016C356.736 16.3125 356.712 16.5352 356.619 16.7695C356.244 17.0273 355.869 17.2969 355.494 17.5781C355.119 17.8359 354.72 18.0703 354.298 18.2812C353.9 18.4922 353.466 18.668 352.998 18.8086C352.552 18.9258 352.048 18.9727 351.486 18.9492C351.369 18.9492 351.275 18.9492 351.205 18.9492C351.158 18.9492 351.087 18.9141 350.994 18.8438C350.806 18.9609 350.537 18.9961 350.185 18.9492C349.857 18.9023 349.599 18.9375 349.412 19.0547C349.154 18.9375 348.837 18.8906 348.462 18.9141C348.111 18.9141 347.795 18.8672 347.513 18.7734C347.138 19.2656 346.798 19.793 346.494 20.3555C346.189 20.918 345.92 21.5156 345.685 22.1484C346.482 22.2656 347.138 22.3125 347.654 22.2891C348.193 22.2656 348.697 22.2305 349.166 22.1836C349.634 22.1133 350.115 22.0547 350.607 22.0078C351.099 21.9375 351.72 21.9141 352.47 21.9375C352.939 21.6797 353.49 21.5156 354.123 21.4453C354.779 21.3516 355.377 21.2109 355.916 21.0234C356.103 21.0938 356.267 21.2227 356.408 21.4102C356.548 21.5742 356.677 21.7383 356.795 21.9023C356.935 22.043 357.076 22.1719 357.216 22.2891C357.357 22.4062 357.533 22.4531 357.744 22.4297C357.837 22.5234 357.896 22.6406 357.92 22.7812C357.966 22.8984 358.002 23.0156 358.025 23.1328C358.048 23.25 358.084 23.3555 358.13 23.4492C358.201 23.5195 358.306 23.543 358.447 23.5195C358.095 24.293 357.685 24.8906 357.216 25.3125C356.771 25.7109 356.255 26.0156 355.67 26.2266C355.084 26.4375 354.427 26.6016 353.701 26.7188C352.998 26.8359 352.212 26.9766 351.345 27.1406C351.134 27.1875 350.959 27.1758 350.818 27.1055C350.677 27.0586 350.513 27.0352 350.326 27.0352C349.787 27.1523 349.142 27.2578 348.392 27.3516C347.642 27.4453 346.88 27.4805 346.107 27.457C345.334 27.4336 344.595 27.3281 343.892 27.1406C343.189 26.9766 342.615 26.6719 342.17 26.2266C341.982 26.0625 341.853 25.875 341.783 25.6641C341.736 25.4297 341.584 25.2539 341.326 25.1367C341.302 24.832 341.255 24.4922 341.185 24.1172C341.115 23.7422 341.045 23.3555 340.974 22.957C340.904 22.5352 340.845 22.125 340.798 21.7266C340.775 21.3281 340.798 20.9648 340.869 20.6367C340.939 20.2852 341.08 19.9688 341.291 19.6875C341.525 19.4062 341.607 19.1016 341.537 18.7734C341.654 18.75 341.724 18.6914 341.748 18.5977C341.771 18.4805 341.865 18.4336 342.029 18.457C342.17 18.0352 342.322 17.6367 342.486 17.2617C342.65 16.8867 342.814 16.5234 342.978 16.1719C343.166 15.8203 343.341 15.4688 343.505 15.1172C343.693 14.7422 343.869 14.332 344.033 13.8867C343.705 13.582 343.459 13.2539 343.295 12.9023C343.154 12.5273 343.048 12.1641 342.978 11.8125C342.908 11.4375 342.849 11.0625 342.802 10.6875C342.755 10.2891 342.673 9.89062 342.556 9.49219C342.791 9.14062 343.072 8.85938 343.4 8.64844C343.752 8.41406 344.127 8.22656 344.525 8.08594C344.923 7.94531 345.357 7.82812 345.826 7.73438C346.295 7.64063 346.787 7.53516 347.302 7.41797C348.24 7.11328 349.072 6.87891 349.798 6.71484C350.548 6.55078 351.275 6.42187 351.978 6.32812C352.705 6.21094 353.455 6.10547 354.228 6.01172C355.002 5.91797 355.88 5.77734 356.865 5.58984C357.076 5.80078 357.275 5.90625 357.462 5.90625C357.556 5.69531 357.662 5.63672 357.779 5.73047C357.92 5.80078 357.978 5.73047 357.955 5.51953C358.189 5.91797 358.482 6.25781 358.834 6.53906C359.209 6.79688 359.619 7.01953 360.064 7.20703ZM374.802 26.6133C374.145 26.8242 373.43 27.0352 372.657 27.2461C371.884 27.457 371.11 27.5625 370.337 27.5625C369.165 27.5625 368.239 27.2695 367.559 26.6836C367.442 26.4258 367.337 26.25 367.243 26.1562C367.173 26.0625 367.102 25.9688 367.032 25.875C366.985 25.7578 366.95 25.6055 366.927 25.418C366.645 25.0898 366.423 24.7148 366.259 24.293C366.095 23.8477 365.977 23.4023 365.907 22.957C365.86 22.4883 365.848 22.0195 365.872 21.5508C365.919 21.082 366.001 20.6367 366.118 20.2148C366.165 20.1211 366.188 20.0273 366.188 19.9336C366.212 19.8398 366.235 19.7344 366.259 19.6172C366.352 19.2422 366.446 18.8789 366.54 18.5273C366.657 18.1758 366.809 17.8711 366.997 17.6133C366.903 17.4023 366.903 17.168 366.997 16.9102C367.091 16.6523 367.196 16.418 367.313 16.207C367.641 15.3164 367.911 14.5664 368.122 13.957C368.356 13.3242 368.591 12.7031 368.825 12.0938C369.223 11.0391 369.598 9.99609 369.95 8.96484C370.302 7.93359 370.618 6.82031 370.899 5.625C371.087 5.50781 371.227 5.42578 371.321 5.37891C371.462 5.33203 371.579 5.29687 371.673 5.27344C372.095 5.48438 372.587 5.69531 373.149 5.90625C373.712 6.09375 374.18 6.1875 374.555 6.1875C374.743 6.30469 374.86 6.39844 374.907 6.46875C374.954 6.51563 375.001 6.5625 375.048 6.60938C375.305 6.91406 375.528 7.23047 375.716 7.55859C375.903 7.86328 375.962 8.27344 375.891 8.78906C375.751 9 375.645 9.10547 375.575 9.10547C375.458 9.57422 375.329 9.97266 375.188 10.3008C375.071 10.6289 374.942 10.957 374.802 11.2852C374.638 11.6367 374.485 11.9883 374.345 12.3398C374.204 12.6914 374.087 13.125 373.993 13.6406C373.899 13.7578 373.829 13.8633 373.782 13.957C373.759 14.0508 373.723 14.1562 373.677 14.2734C373.63 14.3906 373.571 14.5195 373.501 14.6602C373.454 14.7773 373.372 14.8828 373.255 14.9766C373.184 15.5859 373.067 16.0781 372.903 16.4531C372.763 16.8281 372.61 17.2031 372.446 17.5781C372.165 18.2578 371.907 18.9375 371.673 19.6172C371.462 20.2969 371.333 21.0703 371.286 21.9375C371.403 21.8906 371.509 21.8672 371.602 21.8672C371.72 21.8672 371.825 21.8672 371.919 21.8672C372.13 21.8672 372.376 21.9023 372.657 21.9727C373.36 21.5977 374.122 21.375 374.942 21.3047C375.786 21.2344 376.618 21.1875 377.438 21.1641C377.766 21.1641 378.095 21.1641 378.423 21.1641C378.751 21.1641 379.055 21.1406 379.337 21.0938C379.548 21.2109 379.677 21.2812 379.723 21.3047C379.794 21.3047 379.888 21.3047 380.005 21.3047C380.169 21.3047 380.309 21.3164 380.427 21.3398C380.708 21.5977 380.977 21.7852 381.235 21.9023C381.493 22.0195 381.763 22.125 382.044 22.2188C382.302 22.3125 382.548 22.418 382.782 22.5352C383.04 22.6289 383.286 22.7695 383.52 22.957L383.766 24.4688C383.93 24.6797 384.001 24.8203 383.977 24.8906C383.977 25.0781 383.93 25.2188 383.837 25.3125L383.907 25.6992C383.555 25.7695 383.309 25.8516 383.169 25.9453C383.052 26.0391 382.934 26.1445 382.817 26.2617C382.63 26.2852 382.489 26.2969 382.395 26.2969C382.325 26.2969 382.255 26.2969 382.184 26.2969C381.856 26.2969 381.458 26.3555 380.989 26.4727C380.356 26.2617 379.7 26.1562 379.02 26.1562C378.763 26.1562 378.493 26.168 378.212 26.1914C377.93 26.2148 377.649 26.2383 377.368 26.2617C377.087 26.3086 376.794 26.3438 376.489 26.3672C376.208 26.3906 375.915 26.4023 375.61 26.4023L374.802 26.6133ZM411.512 16.4531C411.488 16.7344 411.512 17.0039 411.582 17.2617C411.652 17.5195 411.734 17.7773 411.828 18.0352C411.945 18.2695 412.051 18.5156 412.145 18.7734C412.238 19.0312 412.309 19.2891 412.355 19.5469C412.402 19.875 412.402 20.2383 412.355 20.6367C412.309 21.0117 412.227 21.3867 412.109 21.7617C411.992 22.1133 411.84 22.4414 411.652 22.7461C411.465 23.0273 411.242 23.2383 410.984 23.3789C410.656 23.8008 410.258 24.1289 409.789 24.3633C409.32 24.5977 408.887 24.8789 408.488 25.207C408.23 25.3711 407.938 25.4883 407.609 25.5586C407.305 25.6289 406.988 25.6992 406.66 25.7695C406.402 25.9102 406.098 26.0625 405.746 26.2266C405.395 26.3672 405.031 26.5078 404.656 26.6484C404.281 26.7656 403.906 26.8594 403.531 26.9297C403.156 26.9766 402.828 26.9883 402.547 26.9648C401.844 27.2227 401.152 27.3867 400.473 27.457C399.816 27.5508 399.043 27.5039 398.152 27.3164C397.309 27.4336 396.523 27.3984 395.797 27.2109C395.094 27.0234 394.461 26.7305 393.898 26.332C393.359 25.9102 392.879 25.418 392.457 24.8555C392.059 24.2695 391.73 23.6602 391.473 23.0273C391.285 21.6914 391.332 20.4844 391.613 19.4062C391.895 18.3047 392.293 17.2969 392.809 16.3828C393.348 15.4453 393.957 14.5898 394.637 13.8164C395.316 13.0195 395.973 12.2461 396.605 11.4961C396.746 11.543 396.852 11.543 396.922 11.4961C397.016 11.4258 397.098 11.3438 397.168 11.25C397.238 11.1328 397.309 11.0273 397.379 10.9336C397.473 10.8398 397.578 10.7812 397.695 10.7578C397.859 10.4062 398.094 10.1484 398.398 9.98438C398.727 9.79688 398.984 9.53906 399.172 9.21094C399.383 9.16406 399.559 9.09375 399.699 9C399.84 8.90625 399.969 8.80078 400.086 8.68359C400.227 8.56641 400.367 8.46094 400.508 8.36719C400.648 8.25 400.812 8.16797 401 8.12109V7.73438C401.422 7.54687 401.727 7.33594 401.914 7.10156C402.125 6.84375 402.371 6.53906 402.652 6.1875C402.863 6.16406 403.027 6.15234 403.145 6.15234C403.285 6.15234 403.484 6.12891 403.742 6.08203C403.93 5.75391 404.094 5.50781 404.234 5.34375C404.398 5.17969 404.633 5.00391 404.938 4.81641C405.219 4.95703 405.523 5.05078 405.852 5.09766C406.203 5.14453 406.508 5.29687 406.766 5.55469C406.789 5.78906 406.859 5.97656 406.977 6.11719C407.094 6.23438 407.223 6.35156 407.363 6.46875C407.504 6.5625 407.633 6.66797 407.75 6.78516C407.891 6.90234 407.984 7.06641 408.031 7.27734C408.125 7.30078 408.184 7.28906 408.207 7.24219C408.254 7.19531 408.324 7.18359 408.418 7.20703C408.488 7.53516 408.57 7.75781 408.664 7.875C408.758 7.96875 408.852 8.16797 408.945 8.47266C408.828 8.70703 408.734 8.95312 408.664 9.21094C408.617 9.44531 408.477 9.62109 408.242 9.73828C408.219 9.90234 408.266 9.99609 408.383 10.0195C408.5 10.0195 408.57 10.0781 408.594 10.1953C408.617 10.4062 408.582 10.5586 408.488 10.6523C409.051 11.5664 409.555 12.5391 410 13.5703C410.445 14.5781 410.949 15.5391 411.512 16.4531ZM407.117 19.793C407.211 19.5352 407.328 19.3242 407.469 19.1602C407.633 18.9961 407.727 18.75 407.75 18.4219C407.633 18.2344 407.562 18.0938 407.539 18C407.516 17.8828 407.504 17.707 407.504 17.4727C406.988 16.7461 406.543 15.9727 406.168 15.1523C405.793 14.3086 405.371 13.5234 404.902 12.7969C404.855 12.8906 404.773 12.9844 404.656 13.0781C404.539 13.1719 404.41 13.1484 404.27 13.0078C404.223 13.1953 404.141 13.3359 404.023 13.4297C403.906 13.5 403.777 13.5352 403.637 13.5352C403.496 13.5117 403.344 13.4766 403.18 13.4297C403.039 13.3594 402.91 13.2773 402.793 13.1836C402.113 13.7227 401.434 14.25 400.754 14.7656C400.074 15.2812 399.465 15.8789 398.926 16.5586C398.832 16.6055 398.773 16.6289 398.75 16.6289C398.727 16.6055 398.656 16.6172 398.539 16.6641C398.352 17.1094 398.117 17.5195 397.836 17.8945C397.578 18.2461 397.32 18.6094 397.062 18.9844C396.805 19.3594 396.582 19.7578 396.395 20.1797C396.207 20.6016 396.102 21.0938 396.078 21.6562C396.477 21.9844 396.945 22.1836 397.484 22.2539C398.023 22.3242 398.574 22.3359 399.137 22.2891C399.723 22.2422 400.285 22.1719 400.824 22.0781C401.387 21.9609 401.902 21.9023 402.371 21.9023C403.355 21.668 404.199 21.3633 404.902 20.9883C405.605 20.5898 406.344 20.1914 407.117 19.793ZM432.507 5.20312C433.491 5.32031 434.37 5.51953 435.144 5.80078C435.917 6.08203 436.573 6.45703 437.112 6.92578C437.487 7.51172 437.839 8.14453 438.167 8.82422C438.519 9.50391 438.777 10.2188 438.941 10.9688C439.128 11.6953 439.21 12.4453 439.187 13.2188C439.187 13.9922 439.023 14.7773 438.695 15.5742C438.015 16.418 437.183 17.1094 436.198 17.6484C435.237 18.1641 434.195 18.5859 433.07 18.9141C431.945 19.2422 430.773 19.5234 429.554 19.7578C428.359 19.9922 427.187 20.2266 426.038 20.4609C426.062 21 426.062 21.5742 426.038 22.1836C426.038 22.7695 425.98 23.3672 425.862 23.9766C425.769 24.5625 425.616 25.1367 425.405 25.6992C425.195 26.2617 424.913 26.7773 424.562 27.2461C424.163 27.2461 423.753 27.293 423.331 27.3867C422.909 27.5039 422.534 27.5977 422.206 27.668C422.042 27.5742 421.89 27.4805 421.749 27.3867C421.632 27.3164 421.456 27.2695 421.222 27.2461C421.269 27.0117 421.21 26.7773 421.046 26.543C420.882 26.2852 420.718 26.0273 420.554 25.7695C420.39 25.5117 420.273 25.2656 420.202 25.0312C420.155 24.7969 420.273 24.5742 420.554 24.3633C420.39 24.1992 420.308 23.9883 420.308 23.7305C420.472 23.4492 420.612 23.0625 420.73 22.5703C420.87 22.0781 420.976 21.5977 421.046 21.1289C421.14 20.6367 421.163 20.1914 421.116 19.793C421.07 19.3945 420.835 19.1016 420.413 18.9141C420.437 18.8672 420.484 18.8438 420.554 18.8438C420.624 18.8438 420.695 18.832 420.765 18.8086C420.577 18.668 420.46 18.4688 420.413 18.2109C420.39 17.9531 420.308 17.7305 420.167 17.543C420.214 17.4258 420.249 17.3203 420.273 17.2266C420.296 17.1328 420.378 17.0977 420.519 17.1211C420.448 16.6992 420.448 16.3008 420.519 15.9258C420.612 15.5508 420.741 15.1992 420.905 14.8711C421.07 14.5195 421.269 14.1797 421.503 13.8516C421.737 13.5234 421.96 13.1953 422.171 12.8672C422.335 12.8438 422.429 12.8672 422.452 12.9375C422.499 13.0078 422.581 12.9961 422.698 12.9023C423.003 12.668 423.214 12.4219 423.331 12.1641C423.448 11.9062 423.507 11.6133 423.507 11.2852C423.671 10.793 423.87 10.3008 424.105 9.80859C424.339 9.29297 424.597 8.82422 424.878 8.40234C425.159 7.98047 425.464 7.60547 425.792 7.27734C426.144 6.94922 426.507 6.70312 426.882 6.53906C427.163 6.30469 427.515 6.09375 427.937 5.90625C428.359 5.69531 428.816 5.54297 429.308 5.44922C429.8 5.33203 430.292 5.27344 430.784 5.27344C431.3 5.25 431.769 5.29687 432.191 5.41406C432.308 5.46094 432.366 5.4375 432.366 5.34375C432.39 5.25 432.437 5.20312 432.507 5.20312ZM431.066 13.6055C431.652 13.3477 432.273 13.1484 432.929 13.0078C433.609 12.8438 434.171 12.5508 434.616 12.1289C434.335 11.8711 433.925 11.6484 433.386 11.4609C432.847 11.25 432.261 11.1211 431.628 11.0742C430.995 11.0273 430.351 11.0859 429.695 11.25C429.062 11.3906 428.511 11.6719 428.042 12.0938C427.902 12.5156 427.784 12.8555 427.691 13.1133C427.597 13.3477 427.468 13.6406 427.304 13.9922C427.351 14.1094 427.421 14.2031 427.515 14.2734C427.632 14.3203 427.714 14.4023 427.761 14.5195C428.3 14.2383 428.839 14.0859 429.378 14.0625C429.941 14.0156 430.503 13.8633 431.066 13.6055ZM464.049 7.20703C464.073 7.37109 464.073 7.5 464.049 7.59375C464.049 7.66406 464.038 7.73438 464.014 7.80469C464.014 7.875 464.014 7.95703 464.014 8.05078C464.014 8.12109 464.038 8.23828 464.084 8.40234C463.592 9.19922 463.018 9.75 462.362 10.0547C461.729 10.3359 461.038 10.5469 460.288 10.6875C459.538 10.8047 458.764 10.9336 457.967 11.0742C457.194 11.2148 456.42 11.5195 455.647 11.9883C455.342 11.8711 455.061 11.8711 454.803 11.9883C454.569 12.1055 454.217 12.1406 453.748 12.0938C453.608 12.2344 453.432 12.3398 453.221 12.4102C453.01 12.457 452.799 12.5156 452.588 12.5859C452.682 12.7969 452.717 13.0195 452.694 13.2539C452.694 13.4648 452.729 13.6406 452.799 13.7812C453.62 13.8516 454.522 13.8398 455.506 13.7461C456.514 13.6523 457.498 13.5938 458.459 13.5703C458.483 13.6875 458.471 13.7695 458.424 13.8164C458.377 13.8398 458.366 13.8984 458.389 13.9922C458.553 14.1094 458.717 14.2617 458.881 14.4492C459.045 14.6133 459.209 14.7773 459.373 14.9414C459.538 15.1055 459.702 15.2461 459.866 15.3633C460.053 15.457 460.264 15.4922 460.498 15.4688C460.592 15.6562 460.651 15.8672 460.674 16.1016C460.721 16.3125 460.698 16.5352 460.604 16.7695C460.229 17.0273 459.854 17.2969 459.479 17.5781C459.104 17.8359 458.705 18.0703 458.284 18.2812C457.885 18.4922 457.452 18.668 456.983 18.8086C456.538 18.9258 456.034 18.9727 455.471 18.9492C455.354 18.9492 455.26 18.9492 455.19 18.9492C455.143 18.9492 455.073 18.9141 454.979 18.8438C454.791 18.9609 454.522 18.9961 454.17 18.9492C453.842 18.9023 453.584 18.9375 453.397 19.0547C453.139 18.9375 452.823 18.8906 452.448 18.9141C452.096 18.9141 451.78 18.8672 451.498 18.7734C451.123 19.2656 450.784 19.793 450.479 20.3555C450.174 20.918 449.905 21.5156 449.67 22.1484C450.467 22.2656 451.123 22.3125 451.639 22.2891C452.178 22.2656 452.682 22.2305 453.151 22.1836C453.62 22.1133 454.1 22.0547 454.592 22.0078C455.084 21.9375 455.705 21.9141 456.455 21.9375C456.924 21.6797 457.475 21.5156 458.108 21.4453C458.764 21.3516 459.362 21.2109 459.901 21.0234C460.088 21.0938 460.252 21.2227 460.393 21.4102C460.534 21.5742 460.663 21.7383 460.78 21.9023C460.92 22.043 461.061 22.1719 461.202 22.2891C461.342 22.4062 461.518 22.4531 461.729 22.4297C461.823 22.5234 461.881 22.6406 461.905 22.7812C461.952 22.8984 461.987 23.0156 462.01 23.1328C462.034 23.25 462.069 23.3555 462.116 23.4492C462.186 23.5195 462.291 23.543 462.432 23.5195C462.08 24.293 461.67 24.8906 461.202 25.3125C460.756 25.7109 460.241 26.0156 459.655 26.2266C459.069 26.4375 458.413 26.6016 457.686 26.7188C456.983 26.8359 456.198 26.9766 455.33 27.1406C455.12 27.1875 454.944 27.1758 454.803 27.1055C454.663 27.0586 454.498 27.0352 454.311 27.0352C453.772 27.1523 453.127 27.2578 452.377 27.3516C451.627 27.4453 450.866 27.4805 450.092 27.457C449.319 27.4336 448.58 27.3281 447.877 27.1406C447.174 26.9766 446.6 26.6719 446.155 26.2266C445.967 26.0625 445.838 25.875 445.768 25.6641C445.721 25.4297 445.569 25.2539 445.311 25.1367C445.288 24.832 445.241 24.4922 445.17 24.1172C445.1 23.7422 445.03 23.3555 444.959 22.957C444.889 22.5352 444.83 22.125 444.784 21.7266C444.76 21.3281 444.784 20.9648 444.854 20.6367C444.924 20.2852 445.065 19.9688 445.276 19.6875C445.51 19.4062 445.592 19.1016 445.522 18.7734C445.639 18.75 445.709 18.6914 445.733 18.5977C445.756 18.4805 445.85 18.4336 446.014 18.457C446.155 18.0352 446.307 17.6367 446.471 17.2617C446.635 16.8867 446.799 16.5234 446.963 16.1719C447.151 15.8203 447.327 15.4688 447.491 15.1172C447.678 14.7422 447.854 14.332 448.018 13.8867C447.69 13.582 447.444 13.2539 447.28 12.9023C447.139 12.5273 447.034 12.1641 446.963 11.8125C446.893 11.4375 446.834 11.0625 446.788 10.6875C446.741 10.2891 446.659 9.89062 446.541 9.49219C446.776 9.14062 447.057 8.85938 447.385 8.64844C447.737 8.41406 448.112 8.22656 448.51 8.08594C448.909 7.94531 449.342 7.82812 449.811 7.73438C450.28 7.64063 450.772 7.53516 451.288 7.41797C452.225 7.11328 453.057 6.87891 453.784 6.71484C454.534 6.55078 455.26 6.42187 455.963 6.32812C456.69 6.21094 457.44 6.10547 458.213 6.01172C458.987 5.91797 459.866 5.77734 460.85 5.58984C461.061 5.80078 461.26 5.90625 461.448 5.90625C461.541 5.69531 461.647 5.63672 461.764 5.73047C461.905 5.80078 461.963 5.73047 461.94 5.51953C462.174 5.91797 462.467 6.25781 462.819 6.53906C463.194 6.79688 463.604 7.01953 464.049 7.20703ZM474.814 23.3438C474.556 24.2812 474.322 24.9961 474.111 25.4883C473.923 25.957 473.63 26.4492 473.232 26.9648C472.927 26.918 472.716 26.9531 472.599 27.0703C472.482 27.1875 472.353 27.293 472.212 27.3867C472.002 27.4336 471.849 27.4336 471.755 27.3867C471.662 27.3398 471.58 27.2812 471.509 27.2109C471.439 27.1641 471.345 27.1055 471.228 27.0352C471.134 26.9883 470.982 26.9648 470.771 26.9648C470.724 26.7773 470.666 26.6016 470.595 26.4375C470.548 26.2734 470.396 26.2148 470.138 26.2617C470.185 26.0742 470.197 25.9219 470.173 25.8047C470.15 25.6641 470.115 25.5469 470.068 25.4531C470.045 25.3359 470.021 25.2305 469.998 25.1367C469.974 25.0195 469.986 24.8789 470.033 24.7148C469.916 24.7148 469.822 24.6328 469.752 24.4688C469.681 24.3047 469.599 24.1406 469.505 23.9766C469.576 23.5547 469.646 23.1562 469.716 22.7812C469.787 22.4062 469.869 22.0547 469.962 21.7266C470.08 21.3984 470.173 21.0703 470.244 20.7422C470.314 20.4141 470.279 20.0742 470.138 19.7227C470.232 19.793 470.302 19.7812 470.349 19.6875C470.396 19.5703 470.431 19.4297 470.455 19.2656C470.478 19.0781 470.49 18.9023 470.49 18.7383C470.49 18.5508 470.478 18.3984 470.455 18.2812C470.689 17.6719 470.877 17.0508 471.017 16.418C471.181 15.7617 471.322 15.1172 471.439 14.4844C471.58 13.8516 471.72 13.2305 471.861 12.6211C472.002 12.0117 472.189 11.4492 472.423 10.9336C472.681 10.8867 472.962 10.9219 473.267 11.0391C473.595 11.1328 473.795 11.2617 473.865 11.4258C474.474 10.957 475.013 10.3945 475.482 9.73828C475.951 9.05859 476.431 8.40234 476.923 7.76953C477.416 7.13672 477.955 6.57422 478.541 6.08203C479.15 5.58984 479.912 5.29687 480.826 5.20312C481.295 5.55469 481.81 5.91797 482.373 6.29297C482.959 6.64453 483.439 7.11328 483.814 7.69922C484.002 7.79297 484.154 7.89844 484.271 8.01562C484.412 8.10937 484.576 8.21484 484.763 8.33203V8.75391C485.045 9.01172 485.267 9.31641 485.431 9.66797C485.619 9.99609 485.783 10.3594 485.923 10.7578C486.064 11.1328 486.205 11.5195 486.345 11.918C486.486 12.293 486.65 12.6562 486.837 13.0078C486.791 13.125 486.767 13.2305 486.767 13.3242C486.767 13.3945 486.779 13.4766 486.802 13.5703C486.849 13.6641 486.884 13.7578 486.908 13.8516C486.931 13.9453 486.931 14.0742 486.908 14.2383C486.837 15.2695 486.498 16.1016 485.888 16.7344C485.302 17.3672 484.587 17.8945 483.744 18.3164C482.9 18.7148 481.998 19.0547 481.037 19.3359C480.076 19.6172 479.209 19.9219 478.435 20.25C478.435 20.3438 478.47 20.3906 478.541 20.3906C478.634 20.3906 478.67 20.4492 478.646 20.5664C479.209 20.918 479.654 21.1992 479.982 21.4102C480.31 21.6211 480.615 21.7969 480.896 21.9375C481.201 22.0781 481.517 22.207 481.845 22.3242C482.197 22.418 482.677 22.5352 483.287 22.6758C483.896 22.8164 484.365 22.9336 484.693 23.0273C485.045 23.0977 485.361 23.168 485.642 23.2383C485.923 23.2852 486.205 23.332 486.486 23.3789C486.791 23.4023 487.212 23.4375 487.752 23.4844C487.962 23.6953 488.138 23.9531 488.279 24.2578C488.443 24.5391 488.548 24.832 488.595 25.1367C488.642 25.418 488.654 25.6992 488.63 25.9805C488.607 26.2383 488.525 26.4492 488.384 26.6133C488.408 26.6836 488.455 26.7188 488.525 26.7188C488.619 26.6953 488.712 26.6953 488.806 26.7188C488.666 26.8125 488.548 26.9297 488.455 27.0703C488.361 27.2109 488.267 27.3516 488.173 27.4922C488.08 27.6328 487.974 27.75 487.857 27.8438C487.74 27.9609 487.576 28.0312 487.365 28.0547C486.638 28.3359 485.724 28.3477 484.623 28.0898C483.521 27.8555 482.127 27.4102 480.439 26.7539C479.595 26.4258 478.904 26.1445 478.365 25.9102C477.849 25.6523 477.392 25.4062 476.994 25.1719C476.619 24.9141 476.267 24.6445 475.939 24.3633C475.634 24.082 475.259 23.7422 474.814 23.3438ZM479.841 11.2852C479.584 11.6602 479.291 12 478.962 12.3047C478.658 12.6094 478.353 12.9258 478.048 13.2539C477.767 13.5586 477.509 13.9102 477.275 14.3086C477.041 14.6836 476.877 15.1289 476.783 15.6445C477.603 15.5508 478.459 15.3281 479.349 14.9766C480.24 14.6016 481.084 14.25 481.88 13.9219C481.787 13.1953 481.529 12.6094 481.107 12.1641C480.709 11.7188 480.287 11.4258 479.841 11.2852Z" fill="black"/>
</g>
<defs>
<filter id="filter0_d_5_2" x="0.296875" y="0.597656" width="492.509" height="35.8789" filterUnits="userSpaceOnUse" color-interpolation-filters="sRGB">
<feFlood flood-opacity="0" result="BackgroundImageFix"/>
<feColorMatrix in="SourceAlpha" type="matrix" values="0 0 0 0 0 0 0 0 0 0 0 0 0 0 0 0 0 0 127 0" result="hardAlpha"/>
<feOffset dy="4"/>
<feGaussianBlur stdDeviation="2"/>
<feComposite in2="hardAlpha" operator="out"/>
<feColorMatrix type="matrix" values="0 0 0 0 0 0 0 0 0 0 0 0 0 0 0 0 0 0 0.25 0"/>
<feBlend mode="normal" in2="BackgroundImageFix" result="effect1_dropShadow_5_2"/>
<feBlend mode="normal" in="SourceGraphic" in2="effect1_dropShadow_5_2" result="shape"/>
</filter>
</defs>
</svg>
