<svg width="29" height="75" viewBox="0 0 29 75" fill="none" xmlns="http://www.w3.org/2000/svg">
<g style="mix-blend-mode:overlay" filter="url(#filter0_d_9_15)">
<path d="M5.52344 13.6133C5.45833 13.4701 5.39323 13.3333 5.32812 13.2031C5.26302 13.0729 5.19792 12.9557 5.13281 12.8516C4.97656 12.5391 4.83984 12.2591 4.72266 12.0117C4.60547 11.7643 4.49479 11.4779 4.39062 11.1523C4.42969 10.931 4.49479 10.5599 4.58594 10.0391C4.6901 9.51823 4.80729 8.95182 4.9375 8.33984C5.06771 7.71484 5.20443 7.08333 5.34766 6.44531C5.50391 5.80729 5.66016 5.26042 5.81641 4.80469C5.95964 4.40104 6.11589 3.97135 6.28516 3.51562C6.46745 3.0599 6.66276 2.64323 6.87109 2.26562C7.09245 1.875 7.32682 1.54297 7.57422 1.26953C7.82161 0.996094 8.08854 0.833333 8.375 0.78125C8.45312 0.885417 8.53776 0.970052 8.62891 1.03516C8.72005 1.08724 8.80469 1.1263 8.88281 1.15234C9.10417 1.46484 9.31901 1.73177 9.52734 1.95312C9.73568 2.16146 9.98307 2.36979 10.2695 2.57812C10.1914 2.96875 10.0742 3.40495 9.91797 3.88672C9.77474 4.35547 9.61849 4.83073 9.44922 5.3125C9.29297 5.79427 9.13672 6.26302 8.98047 6.71875C8.82422 7.16146 8.70052 7.54557 8.60938 7.87109C8.53125 8.13151 8.45312 8.43099 8.375 8.76953C8.3099 9.05599 8.23828 9.40104 8.16016 9.80469C8.09505 10.2083 8.02995 10.651 7.96484 11.1328C8.14714 11.0807 8.34896 10.9766 8.57031 10.8203C8.80469 10.6641 9.01953 10.5013 9.21484 10.332C9.44922 10.1367 9.67708 9.92839 9.89844 9.70703C10.1979 9.40755 10.4518 9.13411 10.6602 8.88672C10.8685 8.63932 11.0573 8.38542 11.2266 8.125C11.4089 7.85156 11.5911 7.55859 11.7734 7.24609C11.9688 6.92057 12.1966 6.53646 12.457 6.09375C12.6914 5.71615 12.9323 5.3125 13.1797 4.88281C13.4401 4.45312 13.7005 4.04297 13.9609 3.65234C14.2214 3.26172 14.4753 2.90365 14.7227 2.57812C14.9701 2.23958 15.1979 1.97917 15.4062 1.79688C15.5495 1.9401 15.7122 2.08984 15.8945 2.24609C16.0898 2.40234 16.2982 2.51302 16.5195 2.57812C16.6107 2.72135 16.6953 2.85156 16.7734 2.96875C16.8646 3.07292 16.9492 3.17708 17.0273 3.28125C17.1315 3.42448 17.2227 3.55469 17.3008 3.67188C17.3919 3.78906 17.4701 3.91927 17.5352 4.0625C17.5221 4.16667 17.4961 4.30339 17.457 4.47266C17.431 4.64193 17.3984 4.83073 17.3594 5.03906C17.3203 5.23438 17.2747 5.4362 17.2227 5.64453C17.1836 5.85286 17.1445 6.05469 17.1055 6.25C16.9753 6.83594 16.8776 7.27865 16.8125 7.57812C16.7474 7.8776 16.7018 8.11198 16.6758 8.28125C16.6497 8.45052 16.6302 8.59375 16.6172 8.71094C16.6172 8.82812 16.6172 8.99089 16.6172 9.19922C16.6172 9.35547 16.6302 9.51172 16.6562 9.66797C16.6823 9.8112 16.7083 9.96094 16.7344 10.1172C16.7734 10.2604 16.8385 10.3971 16.9297 10.5273L17.8672 9.80469C18.1276 9.60938 18.375 9.33594 18.6094 8.98438C18.8568 8.61979 19.0911 8.20964 19.3125 7.75391C19.5469 7.28516 19.7747 6.78385 19.9961 6.25C20.2174 5.70312 20.4388 5.14323 20.6602 4.57031C20.8164 4.15365 20.9727 3.74349 21.1289 3.33984C21.2982 2.92318 21.4674 2.53255 21.6367 2.16797C21.806 1.79036 21.9688 1.45182 22.125 1.15234C22.2943 0.839844 22.457 0.579427 22.6133 0.371094C22.9648 0.592448 23.2643 0.813802 23.5117 1.03516C23.7721 1.25651 23.9935 1.50391 24.1758 1.77734C24.3711 2.03776 24.5208 2.34375 24.625 2.69531C24.7422 3.03385 24.8268 3.4375 24.8789 3.90625C24.5924 4.45312 24.3255 5.01302 24.0781 5.58594C23.8307 6.15885 23.5833 6.73828 23.3359 7.32422C23.0234 8.07943 22.6979 8.83464 22.3594 9.58984C22.0339 10.332 21.6693 11.0417 21.2656 11.7188C20.862 12.3958 20.4062 13.0208 19.8984 13.5938C19.4036 14.1536 18.8307 14.6289 18.1797 15.0195C17.9974 14.9805 17.8411 14.9609 17.7109 14.9609C17.5677 14.9609 17.444 14.9805 17.3398 15.0195C17.2487 15.0586 17.1641 15.1107 17.0859 15.1758C16.5521 14.9284 16.1224 14.5638 15.7969 14.082C15.4714 13.5872 15.1523 13.0404 14.8398 12.4414C14.8008 12.3503 14.7552 12.2656 14.7031 12.1875C14.6641 12.0964 14.6185 12.0052 14.5664 11.9141L14.2344 11.3086L14.0391 10.9375L13.7656 11.1914L13.3555 11.5625L13.1211 11.7969C12.7174 12.1745 12.3073 12.5456 11.8906 12.9102C11.474 13.2617 11.0378 13.5872 10.582 13.8867C10.1263 14.1732 9.63802 14.4076 9.11719 14.5898C8.60938 14.7721 8.0625 14.8698 7.47656 14.8828C7.3724 14.8307 7.27474 14.7852 7.18359 14.7461C7.10547 14.707 7.02734 14.668 6.94922 14.6289C6.64974 14.4857 6.40234 14.349 6.20703 14.2188C6.01172 14.0885 5.78385 13.8867 5.52344 13.6133ZM8.70703 32.0781C8.13411 32.1562 7.61328 32.1302 7.14453 32C6.67578 31.8698 6.2526 31.668 5.875 31.3945C5.51042 31.1211 5.19141 30.7956 4.91797 30.418C4.65755 30.0404 4.44271 29.6367 4.27344 29.207C4.15625 28.3216 4.1888 27.5208 4.37109 26.8047C4.55339 26.0755 4.82031 25.4049 5.17188 24.793C5.52344 24.181 5.92057 23.6081 6.36328 23.0742C6.81901 22.5404 7.25521 22.026 7.67188 21.5312C7.76302 21.5703 7.83464 21.5703 7.88672 21.5312C7.95182 21.4922 8.00391 21.4401 8.04297 21.375C8.09505 21.3099 8.14714 21.2448 8.19922 21.1797C8.26432 21.1146 8.33594 21.069 8.41406 21.043C8.46615 20.9258 8.53125 20.8281 8.60938 20.75C8.70052 20.6719 8.79167 20.6003 8.88281 20.5352C8.98698 20.457 9.07812 20.3789 9.15625 20.3008C9.2474 20.2227 9.32552 20.125 9.39062 20.0078C9.52083 19.9818 9.63151 19.9362 9.72266 19.8711C9.82682 19.806 9.91797 19.7344 9.99609 19.6562C10.0872 19.5781 10.1784 19.5065 10.2695 19.4414C10.3607 19.3763 10.4714 19.3242 10.6016 19.2852V19.0312C10.888 18.901 11.0964 18.7578 11.2266 18.6016C11.3568 18.4453 11.513 18.2435 11.6953 17.9961C11.8385 17.9831 11.9492 17.9766 12.0273 17.9766C12.1185 17.9766 12.2552 17.9635 12.4375 17.9375C12.5547 17.7161 12.6654 17.5534 12.7695 17.4492C12.8737 17.3451 13.0234 17.2279 13.2188 17.0977C13.4141 17.2018 13.6224 17.2669 13.8438 17.293C14.0651 17.306 14.2669 17.4036 14.4492 17.5859C14.4622 17.7422 14.5078 17.8659 14.5859 17.957C14.6641 18.0352 14.7487 18.1133 14.8398 18.1914C14.931 18.2565 15.0221 18.3281 15.1133 18.4062C15.2044 18.4844 15.263 18.5951 15.2891 18.7383C15.3542 18.7383 15.3932 18.7253 15.4062 18.6992C15.4323 18.6732 15.4779 18.6667 15.543 18.6797C15.569 18.7839 15.5951 18.8685 15.6211 18.9336C15.6471 18.9987 15.6732 19.0573 15.6992 19.1094C15.7383 19.1615 15.7708 19.2201 15.7969 19.2852C15.8359 19.3503 15.8685 19.4284 15.8945 19.5195C15.8294 19.6758 15.7708 19.8451 15.7188 20.0273C15.6667 20.1966 15.5625 20.3138 15.4062 20.3789C15.4062 20.4831 15.4453 20.5417 15.5234 20.5547C15.6016 20.5547 15.6471 20.6003 15.6602 20.6914C15.6732 20.8086 15.6536 20.9062 15.6016 20.9844C15.9661 21.5964 16.2982 22.2409 16.5977 22.918C16.8971 23.582 17.2357 24.2201 17.6133 24.832C17.5872 25.0143 17.5938 25.1966 17.6328 25.3789C17.6849 25.5482 17.7435 25.7174 17.8086 25.8867C17.8867 26.056 17.9583 26.2253 18.0234 26.3945C18.0885 26.5638 18.1341 26.7331 18.1602 26.9023C18.1862 27.1237 18.1862 27.3646 18.1602 27.625C18.1341 27.8724 18.082 28.1133 18.0039 28.3477C17.9258 28.582 17.8216 28.8034 17.6914 29.0117C17.5612 29.207 17.4115 29.3568 17.2422 29.4609C17.0339 29.7214 16.7734 29.9362 16.4609 30.1055C16.1484 30.2617 15.862 30.4505 15.6016 30.6719C15.4193 30.776 15.224 30.8542 15.0156 30.9062C14.8073 30.9453 14.5924 30.9909 14.3711 31.043C14.2018 31.1471 14 31.2513 13.7656 31.3555C13.5312 31.4466 13.2904 31.5312 13.043 31.6094C12.7956 31.6875 12.5482 31.7526 12.3008 31.8047C12.0534 31.8438 11.832 31.8503 11.6367 31.8242C11.168 31.9935 10.7122 32.1107 10.2695 32.1758C9.82682 32.2409 9.30599 32.2083 8.70703 32.0781ZM8.96094 24.9688C8.83073 25.2682 8.67448 25.5417 8.49219 25.7891C8.32292 26.0234 8.15365 26.2643 7.98438 26.5117C7.8151 26.7591 7.66536 27.026 7.53516 27.3125C7.41797 27.5859 7.35286 27.9115 7.33984 28.2891C7.60026 28.5104 7.90625 28.6471 8.25781 28.6992C8.6224 28.7383 8.99349 28.7448 9.37109 28.7188C9.7487 28.6797 10.1263 28.6276 10.5039 28.5625C10.8815 28.4974 11.2201 28.4648 11.5195 28.4648C11.5195 28.3477 11.5716 28.2891 11.6758 28.2891C12.2227 28.237 12.7305 28.0872 13.1992 27.8398C13.668 27.5794 14.1562 27.319 14.6641 27.0586C14.7292 26.9023 14.8138 26.7656 14.918 26.6484C15.0221 26.5312 15.0807 26.362 15.0938 26.1406C15.0286 26.0234 14.9831 25.9258 14.957 25.8477C14.944 25.7695 14.9375 25.6523 14.9375 25.4961C14.599 25.0273 14.306 24.5195 14.0586 23.9727C13.8112 23.4128 13.5247 22.8854 13.1992 22.3906C13.1732 22.4557 13.1211 22.5208 13.043 22.5859C12.9648 22.651 12.8802 22.638 12.7891 22.5469C12.75 22.6771 12.6914 22.7682 12.6133 22.8203C12.5352 22.8594 12.444 22.8789 12.3398 22.8789C12.2487 22.8789 12.151 22.8594 12.0469 22.8203C11.9557 22.7812 11.8711 22.7292 11.793 22.6641C11.3372 23.0286 10.8815 23.3802 10.4258 23.7188C9.98307 24.0573 9.57943 24.4544 9.21484 24.9102C9.14974 24.9492 9.11068 24.9622 9.09766 24.9492C9.08464 24.9362 9.03906 24.9427 8.96094 24.9688ZM4.54688 47.3203C4.48177 47.3333 4.42318 47.2878 4.37109 47.1836C4.31901 47.0664 4.26042 46.9557 4.19531 46.8516H4.41016C4.31901 46.5651 4.29297 46.3047 4.33203 46.0703C4.38411 45.8229 4.44271 45.5885 4.50781 45.3672C4.57292 45.1328 4.625 44.9115 4.66406 44.7031C4.71615 44.4818 4.69661 44.2539 4.60547 44.0195C4.67057 44.0586 4.71615 44.0456 4.74219 43.9805C4.78125 43.9023 4.80729 43.8112 4.82031 43.707C4.84635 43.5898 4.85286 43.4727 4.83984 43.3555C4.83984 43.2253 4.83333 43.1211 4.82031 43.043C4.98958 42.6393 5.11979 42.2227 5.21094 41.793C5.3151 41.3633 5.40625 40.9401 5.48438 40.5234C5.5625 40.0938 5.64714 39.6836 5.73828 39.293C5.84245 38.8893 5.97266 38.5117 6.12891 38.1602C6.3112 38.1341 6.5 38.1602 6.69531 38.2383C6.90365 38.3034 7.04036 38.388 7.10547 38.4922C7.50911 38.1797 7.86719 37.8021 8.17969 37.3594C8.49219 36.9167 8.80469 36.487 9.11719 36.0703C9.44271 35.6406 9.80729 35.263 10.2109 34.9375C10.6146 34.612 11.1159 34.4167 11.7148 34.3516C12.0273 34.5729 12.3789 34.8138 12.7695 35.0742C13.1602 35.3216 13.4792 35.6341 13.7266 36.0117C13.8307 36.0768 13.9284 36.1484 14.0195 36.2266C14.1237 36.2917 14.2279 36.3568 14.332 36.4219V36.7148C14.5143 36.8841 14.6641 37.0859 14.7812 37.3203C14.9115 37.5417 15.0221 37.7826 15.1133 38.043C15.2174 38.2904 15.3151 38.5443 15.4062 38.8047C15.4974 39.0651 15.6016 39.306 15.7188 39.5273C15.6927 39.6055 15.6797 39.6771 15.6797 39.7422C15.6927 39.7943 15.7057 39.8529 15.7188 39.918C15.7448 39.9701 15.7643 40.0352 15.7773 40.1133C15.7904 40.1784 15.7969 40.263 15.7969 40.3672C15.7448 41.0573 15.5169 41.6172 15.1133 42.0469C14.7227 42.4635 14.2409 42.8086 13.668 43.082C13.1081 43.3424 12.5091 43.5703 11.8711 43.7656C11.2331 43.9479 10.6536 44.1497 10.1328 44.3711C10.1328 44.4232 10.1589 44.4492 10.2109 44.4492C10.276 44.4492 10.2956 44.4883 10.2695 44.5664C10.6602 44.8008 10.9596 44.9896 11.168 45.1328C11.3893 45.276 11.5911 45.3997 11.7734 45.5039C11.9688 45.5951 12.1771 45.6732 12.3984 45.7383C12.6328 45.8034 12.9518 45.8815 13.3555 45.9727C13.7591 46.0638 14.0716 46.1419 14.293 46.207C14.5273 46.2591 14.7357 46.3047 14.918 46.3438C15.1003 46.3698 15.2956 46.3958 15.5039 46.4219C15.7122 46.4479 15.9922 46.4805 16.3438 46.5195C16.487 46.6628 16.6042 46.832 16.6953 47.0273C16.7865 47.2227 16.8516 47.418 16.8906 47.6133C16.9297 47.8086 16.9362 47.9974 16.9102 48.1797C16.8971 48.349 16.8451 48.4857 16.7539 48.5898C16.7669 48.6419 16.7995 48.668 16.8516 48.668C16.9167 48.6549 16.9818 48.6549 17.0469 48.668C16.9557 48.7331 16.8776 48.8112 16.8125 48.9023C16.7474 48.9935 16.6823 49.0846 16.6172 49.1758C16.5521 49.2669 16.474 49.3516 16.3828 49.4297C16.3047 49.5078 16.2005 49.5534 16.0703 49.5664C15.6016 49.7487 15.0026 49.7552 14.2734 49.5859C13.5443 49.4167 12.6133 49.1172 11.4805 48.6875C10.9206 48.4792 10.4648 48.2904 10.1133 48.1211C9.76172 47.9518 9.45573 47.7891 9.19531 47.6328C8.9349 47.4635 8.69401 47.2878 8.47266 47.1055C8.2513 46.9102 7.9974 46.6823 7.71094 46.4219C7.67188 46.4349 7.64583 46.4609 7.63281 46.5C7.63281 46.5391 7.61328 46.5651 7.57422 46.5781C7.50911 47.099 7.40495 47.5221 7.26172 47.8477C7.13151 48.1732 6.9362 48.5052 6.67578 48.8438C6.46745 48.8047 6.32422 48.8242 6.24609 48.9023C6.18099 48.9805 6.09635 49.0521 5.99219 49.1172C5.86198 49.1432 5.76432 49.1367 5.69922 49.0977C5.63411 49.0716 5.57552 49.0391 5.52344 49C5.47135 48.9609 5.41276 48.9219 5.34766 48.8828C5.28255 48.8438 5.17839 48.8307 5.03516 48.8438C4.99609 48.7266 4.95703 48.6159 4.91797 48.5117C4.87891 48.3945 4.77474 48.3424 4.60547 48.3555C4.64453 48.2383 4.65755 48.1406 4.64453 48.0625C4.63151 47.9714 4.61198 47.8932 4.58594 47.8281C4.5599 47.75 4.53385 47.6719 4.50781 47.5938C4.49479 47.5156 4.50781 47.4245 4.54688 47.3203ZM11.0703 38.3945C10.901 38.6419 10.7122 38.8698 10.5039 39.0781C10.2956 39.2734 10.0872 39.4818 9.87891 39.7031C9.68359 39.9115 9.50781 40.1458 9.35156 40.4062C9.19531 40.6536 9.08464 40.9531 9.01953 41.3047C9.56641 41.2396 10.1393 41.0898 10.7383 40.8555C11.3372 40.6081 11.9036 40.3737 12.4375 40.1523C12.3724 39.6706 12.2031 39.2865 11.9297 39C11.6562 38.7005 11.3698 38.4987 11.0703 38.3945ZM4.39062 62.4258C4.40365 62.3737 4.41016 62.3346 4.41016 62.3086C4.42318 62.2826 4.40365 62.25 4.35156 62.2109C4.32552 62.1198 4.34505 62.0612 4.41016 62.0352C4.47526 62.0091 4.54036 61.9831 4.60547 61.957C4.67057 61.1758 4.80078 60.4661 4.99609 59.8281C5.20443 59.1771 5.42578 58.5456 5.66016 57.9336C5.90755 57.3216 6.14844 56.7096 6.38281 56.0977C6.63021 55.4727 6.83203 54.7956 6.98828 54.0664C7.15755 53.8971 7.29427 53.6953 7.39844 53.4609C7.51562 53.2266 7.6263 52.9922 7.73047 52.7578C7.84766 52.5104 7.97786 52.276 8.12109 52.0547C8.27734 51.8333 8.48568 51.651 8.74609 51.5078C8.86328 51.5208 8.96745 51.5469 9.05859 51.5859C9.16276 51.612 9.26042 51.6445 9.35156 51.6836C9.44271 51.7227 9.54036 51.7552 9.64453 51.7812C9.7487 51.8073 9.85938 51.8203 9.97656 51.8203C10.0286 51.8854 10.0742 51.9635 10.1133 52.0547C10.1523 52.1328 10.2044 52.2044 10.2695 52.2695L10.6211 52.2109C10.7904 52.3542 10.9401 52.5365 11.0703 52.7578C11.2005 52.9661 11.2917 53.1875 11.3438 53.4219C11.3958 53.6432 11.3893 53.8646 11.3242 54.0859C11.2591 54.2943 11.1094 54.457 10.875 54.5742C10.888 54.6523 10.888 54.7109 10.875 54.75C10.862 54.7891 10.8424 54.8281 10.8164 54.8672C10.8034 54.8932 10.7969 54.9258 10.7969 54.9648C10.7969 54.9909 10.8229 55.0299 10.875 55.082C10.7318 55.1992 10.6016 55.349 10.4844 55.5312C10.3672 55.7005 10.2695 55.8828 10.1914 56.0781C10.1133 56.2734 10.0482 56.4688 9.99609 56.6641C9.95703 56.8594 9.93099 57.0417 9.91797 57.2109C10.2956 56.8203 10.7383 56.4557 11.2461 56.1172C11.7539 55.7786 12.1966 55.4596 12.5742 55.1602C12.8737 54.9518 13.1341 54.7565 13.3555 54.5742C13.5898 54.3789 13.8242 54.2031 14.0586 54.0469C14.293 53.8776 14.5339 53.7214 14.7812 53.5781C15.0417 53.4219 15.3021 53.2526 15.5625 53.0703C15.6927 53.0182 15.7904 53.0052 15.8555 53.0312C15.9336 53.0573 16.0052 53.0898 16.0703 53.1289C16.0833 53.0378 16.0638 52.9857 16.0117 52.9727C15.9596 52.9466 15.9401 52.8815 15.9531 52.7773C16.1745 52.7122 16.3698 52.6341 16.5391 52.543C16.7214 52.4518 16.9102 52.3672 17.1055 52.2891C17.2357 52.4323 17.3659 52.5885 17.4961 52.7578C17.6263 52.9141 17.8021 52.9987 18.0234 53.0117C18.1016 53.181 18.1927 53.3112 18.2969 53.4023C18.4141 53.4805 18.5247 53.5586 18.6289 53.6367C18.7461 53.7148 18.8438 53.8125 18.9219 53.9297C19 54.0339 19.0456 54.2031 19.0586 54.4375C19.0065 54.5417 18.9414 54.6589 18.8633 54.7891C18.7982 54.9062 18.7396 55.056 18.6875 55.2383C18.375 55.5247 18.056 55.7786 17.7305 56C17.418 56.2083 17.0924 56.4102 16.7539 56.6055C16.4284 56.8008 16.0898 57.0026 15.7383 57.2109C15.3997 57.4193 15.0547 57.6602 14.7031 57.9336C14.625 58.0508 14.5273 58.1549 14.4102 58.2461C14.293 58.3372 14.1693 58.4284 14.0391 58.5195C13.9219 58.5977 13.8047 58.6823 13.6875 58.7734C13.5833 58.8646 13.4987 58.9753 13.4336 59.1055C13.3815 59.1055 13.3359 59.112 13.2969 59.125C13.2578 59.125 13.2122 59.1315 13.1602 59.1445C13.1081 59.2487 13.0299 59.3333 12.9258 59.3984C12.8346 59.4635 12.7695 59.5482 12.7305 59.6523C12.9648 60.1602 13.2708 60.5443 13.6484 60.8047C14.026 61.0651 14.4492 61.2539 14.918 61.3711C15.3867 61.4883 15.8945 61.5534 16.4414 61.5664C16.9883 61.5794 17.5547 61.5859 18.1406 61.5859C18.2057 61.5729 18.2318 61.5404 18.2188 61.4883C18.2188 61.4232 18.2578 61.3971 18.3359 61.4102C18.5312 61.4753 18.694 61.5534 18.8242 61.6445C18.9544 61.7357 19.0781 61.8333 19.1953 61.9375C19.3125 62.0417 19.4232 62.1523 19.5273 62.2695C19.6445 62.3737 19.7747 62.4844 19.918 62.6016C19.8919 63.2135 19.7096 63.7148 19.3711 64.1055C19.0456 64.4831 18.6094 64.7891 18.0625 65.0234C17.3073 65.0495 16.6497 65.0299 16.0898 64.9648C15.5299 64.8997 14.9766 64.7565 14.4297 64.5352C14.3906 64.5221 14.3516 64.4831 14.3125 64.418C14.2865 64.3529 14.2604 64.3073 14.2344 64.2812C14.1302 64.2161 14.013 64.1901 13.8828 64.2031C13.7526 64.2161 13.6419 64.2031 13.5508 64.1641C13.4336 64.112 13.2383 63.9948 12.9648 63.8125C12.7044 63.6302 12.4635 63.4609 12.2422 63.3047C11.9688 63.0833 11.7018 62.8685 11.4414 62.6602C11.194 62.4388 10.9727 62.1979 10.7773 61.9375C10.7383 61.8724 10.6797 61.8398 10.6016 61.8398C10.5365 61.8398 10.4714 61.8203 10.4062 61.7812C9.95052 62.0677 9.56641 62.4258 9.25391 62.8555C8.95443 63.2721 8.66146 63.7018 8.375 64.1445C8.08854 64.5742 7.78255 64.9844 7.45703 65.375C7.14453 65.7526 6.7474 66.0456 6.26562 66.2539C6.1224 66.2539 5.9987 66.2279 5.89453 66.1758C5.79036 66.1367 5.69271 66.0781 5.60156 66C5.51042 65.9349 5.41927 65.8698 5.32812 65.8047C5.23698 65.7396 5.13281 65.694 5.01562 65.668C5.01562 65.4857 4.97656 65.3164 4.89844 65.1602C4.83333 64.9909 4.76172 64.8411 4.68359 64.7109C4.61849 64.5677 4.56641 64.431 4.52734 64.3008C4.5013 64.1706 4.54036 64.0404 4.64453 63.9102C4.5013 63.793 4.36458 63.6953 4.23438 63.6172C4.32552 63.526 4.36458 63.4414 4.35156 63.3633C4.35156 63.2852 4.33203 63.207 4.29297 63.1289C4.25391 63.0508 4.22135 62.9727 4.19531 62.8945C4.18229 62.8034 4.20833 62.7057 4.27344 62.6016C4.32552 62.5885 4.34505 62.5625 4.33203 62.5234C4.33203 62.4844 4.35156 62.4518 4.39062 62.4258Z" fill="white"/>
</g>
<defs>
<filter id="filter0_d_9_15" x="0.0976562" y="0.371094" width="28.7812" height="73.8828" filterUnits="userSpaceOnUse" color-interpolation-filters="sRGB">
<feFlood flood-opacity="0" result="BackgroundImageFix"/>
<feColorMatrix in="SourceAlpha" type="matrix" values="0 0 0 0 0 0 0 0 0 0 0 0 0 0 0 0 0 0 127 0" result="hardAlpha"/>
<feOffset dy="4"/>
<feGaussianBlur stdDeviation="2"/>
<feComposite in2="hardAlpha" operator="out"/>
<feColorMatrix type="matrix" values="0 0 0 0 0 0 0 0 0 0 0 0 0 0 0 0 0 0 0.25 0"/>
<feBlend mode="normal" in2="BackgroundImageFix" result="effect1_dropShadow_9_15"/>
<feBlend mode="normal" in="SourceGraphic" in2="effect1_dropShadow_9_15" result="shape"/>
</filter>
</defs>
</svg>
