<svg width="24" height="24" viewBox="0 0 24 24" fill="none" xmlns="http://www.w3.org/2000/svg">
<g clip-path="url(#clip0_38_2)">
<path fill-rule="evenodd" clip-rule="evenodd" d="M17.2697 3.73974L23.2477 2.65174C23.3618 2.63101 23.4794 2.64313 23.5869 2.68669C23.6944 2.73024 23.7873 2.80344 23.8548 2.89775C23.9222 2.99206 23.9615 3.1036 23.9681 3.21939C23.9746 3.33517 23.9481 3.45043 23.8917 3.55174L12.6317 23.6867C12.5787 23.7814 12.5016 23.8603 12.4082 23.9153C12.3147 23.9704 12.2083 23.9996 12.0999 24C11.9914 24.0004 11.8848 23.972 11.7909 23.9176C11.6971 23.8633 11.6193 23.785 11.5657 23.6907L0.0806876 3.55374C0.0228784 3.45261 -0.00487056 3.33709 0.000700528 3.22074C0.00627162 3.10439 0.0449314 2.99204 0.112138 2.8969C0.179345 2.80176 0.272307 2.72778 0.380105 2.68364C0.487902 2.63951 0.606056 2.62705 0.720688 2.64774L8.16069 3.97774L7.77169 10.5477C7.76535 10.6572 7.78132 10.7669 7.81862 10.87C7.85592 10.9731 7.91378 11.0676 7.98869 11.1477C8.08531 11.2501 8.207 11.3255 8.34171 11.3663C8.47642 11.4072 8.61947 11.4122 8.75669 11.3807L10.7837 10.9127L10.1537 13.9927C10.1296 14.1097 10.1319 14.2305 10.1604 14.3464C10.189 14.4623 10.2431 14.5704 10.3187 14.6627C10.4201 14.7865 10.5559 14.8774 10.709 14.924C10.8621 14.9706 11.0255 14.9709 11.1787 14.9247L12.2987 14.5847L11.2697 19.5657C11.2448 19.6823 11.2462 19.8029 11.2739 19.9188C11.3016 20.0348 11.3548 20.143 11.4297 20.2357C11.5067 20.3296 11.6034 20.4053 11.713 20.4575C11.8226 20.5097 11.9423 20.5371 12.0637 20.5377C12.1977 20.5372 12.3295 20.5031 12.4469 20.4384C12.5643 20.3738 12.6636 20.2807 12.7357 20.1677L12.8577 19.9777L12.8727 19.9547L12.8857 19.9297L19.6767 6.37874C19.7387 6.25627 19.7681 6.11991 19.7621 5.98279C19.7562 5.84566 19.715 5.71237 19.6427 5.59574C19.5574 5.45549 19.4311 5.34486 19.2808 5.27885C19.1306 5.21284 18.9636 5.19465 18.8027 5.22674L16.7257 5.62674L17.2697 3.73974Z" fill="#AEB1EE"/>
<path d="M8.27169 10.5777L8.78369 1.92074C8.78776 1.853 8.81424 1.78853 8.85895 1.73748C8.90366 1.68643 8.96408 1.6517 9.03069 1.63874L17.3627 0.00573514C17.4141 -0.00437017 17.4673 -0.0010815 17.5172 0.0152856C17.567 0.0316527 17.6118 0.060549 17.6472 0.0992018C17.6826 0.137855 17.7076 0.184967 17.7195 0.236018C17.7315 0.287069 17.7302 0.340345 17.7157 0.390735L16.1577 5.79374C16.1432 5.84403 16.1419 5.89719 16.1539 5.94814C16.1658 5.99909 16.1906 6.04612 16.2259 6.08474C16.2613 6.12337 16.3059 6.15229 16.3556 6.16874C16.4052 6.1852 16.4583 6.18864 16.5097 6.17874L18.8977 5.71874C18.9539 5.70775 19.012 5.71274 19.0655 5.73316C19.119 5.75357 19.1657 5.78858 19.2003 5.8342C19.2349 5.87983 19.256 5.93424 19.2612 5.99126C19.2663 6.04827 19.2554 6.10561 19.2297 6.15674L12.4397 19.7067L12.3167 19.8967C12.2902 19.9397 12.2532 19.9752 12.209 19.9997C12.1649 20.0243 12.1152 20.037 12.0647 20.0367C11.8877 20.0367 11.7147 19.8847 11.7597 19.6677L12.8547 14.3667C12.8654 14.3148 12.8625 14.261 12.8462 14.2105C12.8299 14.1601 12.8007 14.1147 12.7616 14.0789C12.7225 14.0431 12.6747 14.0181 12.623 14.0064C12.5713 13.9946 12.5175 13.9964 12.4667 14.0117L11.0337 14.4467C10.983 14.4622 10.9291 14.4642 10.8773 14.4526C10.8256 14.4409 10.7778 14.416 10.7385 14.3803C10.6993 14.3446 10.67 14.2994 10.6536 14.2489C10.6371 14.1985 10.6341 14.1447 10.6447 14.0927L11.3347 10.7177C11.3451 10.6673 11.3427 10.6151 11.3277 10.5659C11.3126 10.5167 11.2854 10.4721 11.2485 10.4362C11.2116 10.4003 11.1662 10.3743 11.1166 10.3606C11.067 10.3469 11.0148 10.3459 10.9647 10.3577L8.64469 10.8937C8.59839 10.9044 8.55024 10.9041 8.50407 10.8929C8.4579 10.8817 8.41497 10.8599 8.37868 10.8292C8.34239 10.7986 8.31374 10.7599 8.295 10.7162C8.27625 10.6726 8.26793 10.6252 8.27069 10.5777H8.27169Z" fill="#EDEF7B"/>
</g>
<defs>
<clipPath id="clip0_38_2">
<rect width="24" height="24" fill="white"/>
</clipPath>
</defs>
</svg>
