<svg width="142" height="37" viewBox="0 0 142 37" fill="none" xmlns="http://www.w3.org/2000/svg">
<g filter="url(#filter0_d_5_2)">
<path d="M6.74219 24.5039C6.625 24.2461 6.50781 24 6.39062 23.7656C6.27344 23.5312 6.15625 23.3203 6.03906 23.1328C5.75781 22.5703 5.51172 22.0664 5.30078 21.6211C5.08984 21.1758 4.89062 20.6602 4.70312 20.0742C4.77344 19.6758 4.89062 19.0078 5.05469 18.0703C5.24219 17.1328 5.45312 16.1133 5.6875 15.0117C5.92188 13.8867 6.16797 12.75 6.42578 11.6016C6.70703 10.4531 6.98828 9.46875 7.26953 8.64844C7.52734 7.92188 7.80859 7.14844 8.11328 6.32812C8.44141 5.50781 8.79297 4.75781 9.16797 4.07812C9.56641 3.375 9.98828 2.77734 10.4336 2.28516C10.8789 1.79297 11.3594 1.5 11.875 1.40625C12.0156 1.59375 12.168 1.74609 12.332 1.86328C12.4961 1.95703 12.6484 2.02734 12.7891 2.07422C13.1875 2.63672 13.5742 3.11719 13.9492 3.51562C14.3242 3.89062 14.7695 4.26563 15.2852 4.64062C15.1445 5.34375 14.9336 6.12891 14.6523 6.99609C14.3945 7.83984 14.1133 8.69531 13.8086 9.5625C13.5273 10.4297 13.2461 11.2734 12.9648 12.0938C12.6836 12.8906 12.4609 13.582 12.2969 14.168C12.1562 14.6367 12.0156 15.1758 11.875 15.7852C11.7578 16.3008 11.6289 16.9219 11.4883 17.6484C11.3711 18.375 11.2539 19.1719 11.1367 20.0391C11.4648 19.9453 11.8281 19.7578 12.2266 19.4766C12.6484 19.1953 13.0352 18.9023 13.3867 18.5977C13.8086 18.2461 14.2188 17.8711 14.6172 17.4727C15.1562 16.9336 15.6133 16.4414 15.9883 15.9961C16.3633 15.5508 16.7031 15.0938 17.0078 14.625C17.3359 14.1328 17.6641 13.6055 17.9922 13.043C18.3438 12.457 18.7539 11.7656 19.2227 10.9688C19.6445 10.2891 20.0781 9.5625 20.5234 8.78906C20.9922 8.01562 21.4609 7.27734 21.9297 6.57422C22.3984 5.87109 22.8555 5.22656 23.3008 4.64062C23.7461 4.03125 24.1562 3.5625 24.5312 3.23438C24.7891 3.49219 25.082 3.76172 25.4102 4.04297C25.7617 4.32422 26.1367 4.52344 26.5352 4.64062C26.6992 4.89844 26.8516 5.13281 26.9922 5.34375C27.1562 5.53125 27.3086 5.71875 27.4492 5.90625C27.6367 6.16406 27.8008 6.39844 27.9414 6.60938C28.1055 6.82031 28.2461 7.05469 28.3633 7.3125C28.3398 7.5 28.293 7.74609 28.2227 8.05078C28.1758 8.35547 28.1172 8.69531 28.0469 9.07031C27.9766 9.42188 27.8945 9.78516 27.8008 10.1602C27.7305 10.5352 27.6602 10.8984 27.5898 11.25C27.3555 12.3047 27.1797 13.1016 27.0625 13.6406C26.9453 14.1797 26.8633 14.6016 26.8164 14.9062C26.7695 15.2109 26.7344 15.4688 26.7109 15.6797C26.7109 15.8906 26.7109 16.1836 26.7109 16.5586C26.7109 16.8398 26.7344 17.1211 26.7812 17.4023C26.8281 17.6602 26.875 17.9297 26.9219 18.2109C26.9922 18.4688 27.1094 18.7148 27.2734 18.9492L28.9609 17.6484C29.4297 17.2969 29.875 16.8047 30.2969 16.1719C30.7422 15.5156 31.1641 14.7773 31.5625 13.957C31.9844 13.1133 32.3945 12.2109 32.793 11.25C33.1914 10.2656 33.5898 9.25781 33.9883 8.22656C34.2695 7.47656 34.5508 6.73828 34.832 6.01172C35.1367 5.26172 35.4414 4.55859 35.7461 3.90234C36.0508 3.22266 36.3438 2.61328 36.625 2.07422C36.9297 1.51172 37.2227 1.04297 37.5039 0.667969C38.1367 1.06641 38.6758 1.46484 39.1211 1.86328C39.5898 2.26172 39.9883 2.70703 40.3164 3.19922C40.668 3.66797 40.9375 4.21875 41.125 4.85156C41.3359 5.46094 41.4883 6.1875 41.582 7.03125C41.0664 8.01562 40.5859 9.02344 40.1406 10.0547C39.6953 11.0859 39.25 12.1289 38.8047 13.1836C38.2422 14.543 37.6562 15.9023 37.0469 17.2617C36.4609 18.5977 35.8047 19.875 35.0781 21.0938C34.3516 22.3125 33.5312 23.4375 32.6172 24.4688C31.7266 25.4766 30.6953 26.332 29.5234 27.0352C29.1953 26.9648 28.9141 26.9297 28.6797 26.9297C28.4219 26.9297 28.1992 26.9648 28.0117 27.0352C27.8477 27.1055 27.6953 27.1992 27.5547 27.3164C26.5938 26.8711 25.8203 26.2148 25.2344 25.3477C24.6484 24.457 24.0742 23.4727 23.5117 22.3945C23.4414 22.2305 23.3594 22.0781 23.2656 21.9375C23.1953 21.7734 23.1133 21.6094 23.0195 21.4453L22.4219 20.3555L22.0703 19.6875L21.5781 20.1445L20.8398 20.8125L20.418 21.2344C19.6914 21.9141 18.9531 22.582 18.2031 23.2383C17.4531 23.8711 16.668 24.457 15.8477 24.9961C15.0273 25.5117 14.1484 25.9336 13.2109 26.2617C12.2969 26.5898 11.3125 26.7656 10.2578 26.7891C10.0703 26.6953 9.89453 26.6133 9.73047 26.543C9.58984 26.4727 9.44922 26.4023 9.30859 26.332C8.76953 26.0742 8.32422 25.8281 7.97266 25.5938C7.62109 25.3594 7.21094 24.9961 6.74219 24.5039ZM54.5617 27.1406C53.5305 27.2812 52.593 27.2344 51.7492 27C50.9055 26.7656 50.1437 26.4023 49.4641 25.9102C48.8078 25.418 48.2336 24.832 47.7414 24.1523C47.2727 23.4727 46.8859 22.7461 46.5812 21.9727C46.3703 20.3789 46.4289 18.9375 46.757 17.6484C47.0852 16.3359 47.5656 15.1289 48.1984 14.0273C48.8312 12.9258 49.5461 11.8945 50.343 10.9336C51.1633 9.97266 51.9484 9.04688 52.6984 8.15625C52.8625 8.22656 52.9914 8.22656 53.0852 8.15625C53.2023 8.08594 53.2961 7.99219 53.3664 7.875C53.4602 7.75781 53.5539 7.64063 53.6477 7.52344C53.7648 7.40625 53.8937 7.32422 54.0344 7.27734C54.1281 7.06641 54.2453 6.89062 54.3859 6.75C54.55 6.60938 54.7141 6.48047 54.8781 6.36328C55.0656 6.22266 55.2297 6.08203 55.3703 5.94141C55.5344 5.80078 55.675 5.625 55.7922 5.41406C56.0266 5.36719 56.2258 5.28516 56.3898 5.16797C56.5773 5.05078 56.7414 4.92188 56.882 4.78125C57.0461 4.64062 57.2102 4.51172 57.3742 4.39453C57.5383 4.27734 57.7375 4.18359 57.9719 4.11328V3.65625C58.4875 3.42188 58.8625 3.16406 59.0969 2.88281C59.3312 2.60156 59.6125 2.23828 59.9406 1.79297C60.1984 1.76953 60.3977 1.75781 60.5383 1.75781C60.7023 1.75781 60.9484 1.73438 61.2766 1.6875C61.4875 1.28906 61.6867 0.996094 61.8742 0.808594C62.0617 0.621094 62.3312 0.410156 62.6828 0.175781C63.0344 0.363281 63.4094 0.480469 63.8078 0.527344C64.2062 0.550781 64.5695 0.726562 64.8977 1.05469C64.9211 1.33594 65.0031 1.55859 65.1437 1.72266C65.2844 1.86328 65.4367 2.00391 65.6008 2.14453C65.7648 2.26172 65.9289 2.39062 66.093 2.53125C66.257 2.67188 66.3625 2.87109 66.4094 3.12891C66.5266 3.12891 66.5969 3.10547 66.6203 3.05859C66.6672 3.01172 66.7492 3 66.8664 3.02344C66.9133 3.21094 66.9602 3.36328 67.007 3.48047C67.0539 3.59766 67.1008 3.70313 67.1477 3.79688C67.218 3.89062 67.2766 3.99609 67.3234 4.11328C67.3937 4.23047 67.4523 4.37109 67.4992 4.53516C67.382 4.81641 67.2766 5.12109 67.1828 5.44922C67.0891 5.75391 66.9016 5.96484 66.6203 6.08203C66.6203 6.26953 66.6906 6.375 66.8312 6.39844C66.9719 6.39844 67.0539 6.48047 67.0773 6.64453C67.1008 6.85547 67.0656 7.03125 66.9719 7.17188C67.6281 8.27344 68.2258 9.43359 68.7648 10.6523C69.3039 11.8477 69.9133 12.9961 70.593 14.0977C70.5461 14.4258 70.5578 14.7539 70.6281 15.082C70.7219 15.3867 70.8273 15.6914 70.9445 15.9961C71.0852 16.3008 71.2141 16.6055 71.3312 16.9102C71.4484 17.2148 71.5305 17.5195 71.5773 17.8242C71.6242 18.2227 71.6242 18.6562 71.5773 19.125C71.5305 19.5703 71.4367 20.0039 71.2961 20.4258C71.1555 20.8477 70.968 21.2461 70.7336 21.6211C70.4992 21.9727 70.2297 22.2422 69.925 22.4297C69.55 22.8984 69.0812 23.2852 68.5187 23.5898C67.9562 23.8711 67.4406 24.2109 66.9719 24.6094C66.6437 24.7969 66.2922 24.9375 65.9172 25.0312C65.5422 25.1016 65.1555 25.1836 64.757 25.2773C64.4523 25.4648 64.0891 25.6523 63.6672 25.8398C63.2453 26.0039 62.8117 26.1562 62.3664 26.2969C61.9211 26.4375 61.4758 26.5547 61.0305 26.6484C60.5852 26.7188 60.1867 26.7305 59.8352 26.6836C58.9914 26.9883 58.1711 27.1992 57.3742 27.3164C56.5773 27.4336 55.6398 27.375 54.5617 27.1406ZM55.0187 14.3438C54.7844 14.8828 54.5031 15.375 54.175 15.8203C53.8703 16.2422 53.5656 16.6758 53.2609 17.1211C52.9562 17.5664 52.6867 18.0469 52.4523 18.5625C52.2414 19.0547 52.1242 19.6406 52.1008 20.3203C52.5695 20.7188 53.1203 20.9648 53.7531 21.0586C54.4094 21.1289 55.0773 21.1406 55.757 21.0938C56.4367 21.0234 57.1164 20.9297 57.7961 20.8125C58.4758 20.6953 59.0852 20.6367 59.6242 20.6367C59.6242 20.4258 59.718 20.3203 59.9055 20.3203C60.8898 20.2266 61.8039 19.957 62.6477 19.5117C63.4914 19.043 64.3703 18.5742 65.2844 18.1055C65.4016 17.8242 65.5539 17.5781 65.7414 17.3672C65.9289 17.1562 66.0344 16.8516 66.0578 16.4531C65.9406 16.2422 65.8586 16.0664 65.8117 15.9258C65.7883 15.7852 65.7766 15.5742 65.7766 15.293C65.1672 14.4492 64.6398 13.5352 64.1945 12.5508C63.7492 11.543 63.2336 10.5938 62.6477 9.70312C62.6008 9.82031 62.507 9.9375 62.3664 10.0547C62.2258 10.1719 62.0734 10.1484 61.9094 9.98438C61.8391 10.2188 61.7336 10.3828 61.593 10.4766C61.4523 10.5469 61.2883 10.582 61.1008 10.582C60.9367 10.582 60.7609 10.5469 60.5734 10.4766C60.4094 10.4062 60.257 10.3125 60.1164 10.1953C59.2961 10.8516 58.4758 11.4844 57.6555 12.0938C56.8586 12.7031 56.132 13.418 55.4758 14.2383C55.3586 14.3086 55.2883 14.332 55.2648 14.3086C55.2414 14.2852 55.1594 14.2969 55.0187 14.3438ZM80.1625 23.9766C80.0453 24 79.9398 23.918 79.8461 23.7305C79.7523 23.5195 79.6469 23.3203 79.5297 23.1328H79.9164C79.7523 22.6172 79.7055 22.1484 79.7758 21.7266C79.8695 21.2812 79.975 20.8594 80.0922 20.4609C80.2094 20.0391 80.3031 19.6406 80.3734 19.2656C80.4672 18.8672 80.432 18.457 80.268 18.0352C80.3852 18.1055 80.4672 18.082 80.5141 17.9648C80.5844 17.8242 80.6312 17.6602 80.6547 17.4727C80.7016 17.2617 80.7133 17.0508 80.6898 16.8398C80.6898 16.6055 80.6781 16.418 80.6547 16.2773C80.9594 15.5508 81.1937 14.8008 81.3578 14.0273C81.5453 13.2539 81.7094 12.4922 81.85 11.7422C81.9906 10.9688 82.143 10.2305 82.307 9.52734C82.4945 8.80078 82.7289 8.12109 83.0102 7.48828C83.3383 7.44141 83.6781 7.48828 84.0297 7.62891C84.4047 7.74609 84.6508 7.89844 84.768 8.08594C85.4945 7.52344 86.1391 6.84375 86.7016 6.04688C87.2641 5.25 87.8266 4.47656 88.3891 3.72656C88.975 2.95312 89.6312 2.27344 90.3578 1.6875C91.0844 1.10156 91.9867 0.75 93.0648 0.632812C93.6273 1.03125 94.2602 1.46484 94.9633 1.93359C95.6664 2.37891 96.2406 2.94141 96.6859 3.62109C96.8734 3.73828 97.0492 3.86719 97.2133 4.00781C97.4008 4.125 97.5883 4.24219 97.7758 4.35938V4.88672C98.1039 5.19141 98.3734 5.55469 98.5844 5.97656C98.8187 6.375 99.018 6.80859 99.182 7.27734C99.3695 7.72266 99.5453 8.17969 99.7094 8.64844C99.8734 9.11719 100.061 9.55078 100.272 9.94922C100.225 10.0898 100.202 10.2188 100.202 10.3359C100.225 10.4297 100.248 10.5352 100.272 10.6523C100.319 10.7461 100.354 10.8633 100.377 11.0039C100.401 11.1211 100.412 11.2734 100.412 11.4609C100.319 12.7031 99.9086 13.7109 99.182 14.4844C98.4789 15.2344 97.6117 15.8555 96.5805 16.3477C95.5727 16.8164 94.4945 17.2266 93.3461 17.5781C92.1977 17.9062 91.1547 18.2695 90.2172 18.668C90.2172 18.7617 90.2641 18.8086 90.3578 18.8086C90.475 18.8086 90.5102 18.8789 90.4633 19.0195C91.1664 19.4414 91.7055 19.7812 92.0805 20.0391C92.4789 20.2969 92.8422 20.5195 93.1703 20.707C93.5219 20.8711 93.8969 21.0117 94.2953 21.1289C94.7172 21.2461 95.2914 21.3867 96.018 21.5508C96.7445 21.7148 97.307 21.8555 97.7055 21.9727C98.1273 22.0664 98.5023 22.1484 98.8305 22.2188C99.1586 22.2656 99.5102 22.3125 99.8852 22.3594C100.26 22.4062 100.764 22.4648 101.397 22.5352C101.655 22.793 101.866 23.0977 102.03 23.4492C102.194 23.8008 102.311 24.1523 102.381 24.5039C102.452 24.8555 102.463 25.1953 102.416 25.5234C102.393 25.8281 102.299 26.0742 102.135 26.2617C102.159 26.3555 102.217 26.4023 102.311 26.4023C102.428 26.3789 102.545 26.3789 102.662 26.4023C102.498 26.5195 102.358 26.6602 102.241 26.8242C102.123 26.9883 102.006 27.1523 101.889 27.3164C101.772 27.4805 101.631 27.6328 101.467 27.7734C101.327 27.9141 101.139 27.9961 100.905 28.0195C100.061 28.3477 98.9828 28.3594 97.6703 28.0547C96.3578 27.75 94.682 27.2109 92.643 26.4375C91.6352 26.0625 90.8148 25.7227 90.182 25.418C89.5492 25.1133 88.9984 24.8203 88.5297 24.5391C88.0609 24.2344 87.6273 23.918 87.2289 23.5898C86.8305 23.2383 86.3734 22.8281 85.8578 22.3594C85.7875 22.3828 85.7406 22.4297 85.7172 22.5C85.7172 22.5703 85.682 22.6172 85.6117 22.6406C85.4945 23.5781 85.307 24.3398 85.0492 24.9258C84.8148 25.5117 84.4633 26.1094 83.9945 26.7188C83.6195 26.6484 83.3617 26.6836 83.2211 26.8242C83.1039 26.9648 82.9516 27.0938 82.7641 27.2109C82.5297 27.2578 82.3539 27.2461 82.2367 27.1758C82.1195 27.1289 82.0141 27.0703 81.9203 27C81.8266 26.9297 81.7211 26.8594 81.6039 26.7891C81.4867 26.7188 81.2992 26.6953 81.0414 26.7188C80.9711 26.5078 80.9008 26.3086 80.8305 26.1211C80.7602 25.9102 80.5727 25.8164 80.268 25.8398C80.3383 25.6289 80.3617 25.4531 80.3383 25.3125C80.3148 25.1484 80.2797 25.0078 80.2328 24.8906C80.1859 24.75 80.1391 24.6094 80.0922 24.4688C80.0687 24.3281 80.0922 24.1641 80.1625 23.9766ZM91.9047 7.91016C91.6 8.35547 91.2602 8.76563 90.8852 9.14062C90.5102 9.49219 90.1352 9.86719 89.7602 10.2656C89.4086 10.6406 89.0922 11.0625 88.8109 11.5312C88.5297 11.9766 88.3305 12.5156 88.2133 13.1484C89.1977 13.0312 90.2289 12.7617 91.307 12.3398C92.3852 11.8945 93.4047 11.4727 94.3656 11.0742C94.2484 10.207 93.9437 9.51562 93.4516 9C92.9594 8.46094 92.4437 8.09766 91.9047 7.91016ZM109.455 20.5664C109.478 20.4727 109.49 20.4023 109.49 20.3555C109.513 20.3086 109.478 20.25 109.384 20.1797C109.338 20.0156 109.373 19.9102 109.49 19.8633C109.607 19.8164 109.724 19.7695 109.841 19.7227C109.959 18.3164 110.193 17.0391 110.545 15.8906C110.92 14.7188 111.318 13.582 111.74 12.4805C112.185 11.3789 112.619 10.2773 113.041 9.17578C113.486 8.05078 113.849 6.83203 114.13 5.51953C114.435 5.21484 114.681 4.85156 114.869 4.42969C115.08 4.00781 115.279 3.58594 115.466 3.16406C115.677 2.71875 115.912 2.29688 116.17 1.89844C116.451 1.5 116.826 1.17188 117.295 0.914062C117.505 0.9375 117.693 0.984375 117.857 1.05469C118.045 1.10156 118.22 1.16016 118.384 1.23047C118.548 1.30078 118.724 1.35937 118.912 1.40625C119.099 1.45313 119.298 1.47656 119.509 1.47656C119.603 1.59375 119.685 1.73438 119.755 1.89844C119.826 2.03906 119.92 2.16797 120.037 2.28516L120.67 2.17969C120.974 2.4375 121.244 2.76562 121.478 3.16406C121.713 3.53906 121.877 3.9375 121.97 4.35938C122.064 4.75781 122.052 5.15625 121.935 5.55469C121.818 5.92969 121.548 6.22266 121.127 6.43359C121.15 6.57422 121.15 6.67969 121.127 6.75C121.103 6.82031 121.068 6.89062 121.021 6.96094C120.998 7.00781 120.986 7.06641 120.986 7.13672C120.986 7.18359 121.033 7.25391 121.127 7.34766C120.869 7.55859 120.634 7.82812 120.423 8.15625C120.213 8.46094 120.037 8.78906 119.896 9.14062C119.755 9.49219 119.638 9.84375 119.545 10.1953C119.474 10.5469 119.427 10.875 119.404 11.1797C120.084 10.4766 120.88 9.82031 121.795 9.21094C122.709 8.60156 123.505 8.02734 124.185 7.48828C124.724 7.11328 125.193 6.76172 125.591 6.43359C126.013 6.08203 126.435 5.76562 126.857 5.48438C127.279 5.17969 127.713 4.89844 128.158 4.64062C128.627 4.35938 129.095 4.05469 129.564 3.72656C129.798 3.63281 129.974 3.60937 130.091 3.65625C130.232 3.70313 130.361 3.76172 130.478 3.83203C130.502 3.66797 130.466 3.57422 130.373 3.55078C130.279 3.50391 130.244 3.38672 130.267 3.19922C130.666 3.08203 131.017 2.94141 131.322 2.77734C131.65 2.61328 131.99 2.46094 132.341 2.32031C132.576 2.57813 132.81 2.85938 133.045 3.16406C133.279 3.44531 133.595 3.59766 133.994 3.62109C134.134 3.92578 134.298 4.16016 134.486 4.32422C134.697 4.46484 134.896 4.60547 135.084 4.74609C135.295 4.88672 135.47 5.0625 135.611 5.27344C135.752 5.46094 135.834 5.76562 135.857 6.1875C135.763 6.375 135.646 6.58594 135.505 6.82031C135.388 7.03125 135.283 7.30078 135.189 7.62891C134.627 8.14453 134.052 8.60156 133.466 9C132.904 9.375 132.318 9.73828 131.709 10.0898C131.123 10.4414 130.513 10.8047 129.88 11.1797C129.271 11.5547 128.65 11.9883 128.017 12.4805C127.877 12.6914 127.701 12.8789 127.49 13.043C127.279 13.207 127.056 13.3711 126.822 13.5352C126.611 13.6758 126.4 13.8281 126.189 13.9922C126.002 14.1562 125.849 14.3555 125.732 14.5898C125.638 14.5898 125.556 14.6016 125.486 14.625C125.416 14.625 125.334 14.6367 125.24 14.6602C125.146 14.8477 125.005 15 124.818 15.1172C124.654 15.2344 124.537 15.3867 124.466 15.5742C124.888 16.4883 125.439 17.1797 126.119 17.6484C126.798 18.1172 127.56 18.457 128.404 18.668C129.248 18.8789 130.162 18.9961 131.146 19.0195C132.13 19.043 133.15 19.0547 134.205 19.0547C134.322 19.0312 134.369 18.9727 134.345 18.8789C134.345 18.7617 134.416 18.7148 134.556 18.7383C134.908 18.8555 135.201 18.9961 135.435 19.1602C135.67 19.3242 135.892 19.5 136.103 19.6875C136.314 19.875 136.513 20.0742 136.701 20.2852C136.912 20.4727 137.146 20.6719 137.404 20.8828C137.357 21.9844 137.029 22.8867 136.42 23.5898C135.834 24.2695 135.048 24.8203 134.064 25.2422C132.705 25.2891 131.521 25.2539 130.513 25.1367C129.505 25.0195 128.509 24.7617 127.525 24.3633C127.455 24.3398 127.384 24.2695 127.314 24.1523C127.267 24.0352 127.22 23.9531 127.173 23.9062C126.986 23.7891 126.775 23.7422 126.541 23.7656C126.306 23.7891 126.107 23.7656 125.943 23.6953C125.732 23.6016 125.38 23.3906 124.888 23.0625C124.42 22.7344 123.986 22.4297 123.588 22.1484C123.095 21.75 122.615 21.3633 122.146 20.9883C121.701 20.5898 121.302 20.1562 120.951 19.6875C120.88 19.5703 120.775 19.5117 120.634 19.5117C120.517 19.5117 120.4 19.4766 120.283 19.4062C119.463 19.9219 118.771 20.5664 118.209 21.3398C117.67 22.0898 117.142 22.8633 116.627 23.6602C116.111 24.4336 115.56 25.1719 114.974 25.875C114.412 26.5547 113.697 27.082 112.83 27.457C112.572 27.457 112.349 27.4102 112.162 27.3164C111.974 27.2461 111.798 27.1406 111.634 27C111.47 26.8828 111.306 26.7656 111.142 26.6484C110.978 26.5312 110.791 26.4492 110.58 26.4023C110.58 26.0742 110.509 25.7695 110.369 25.4883C110.252 25.1836 110.123 24.9141 109.982 24.6797C109.865 24.4219 109.771 24.1758 109.701 23.9414C109.654 23.707 109.724 23.4727 109.912 23.2383C109.654 23.0273 109.408 22.8516 109.173 22.7109C109.338 22.5469 109.408 22.3945 109.384 22.2539C109.384 22.1133 109.349 21.9727 109.279 21.832C109.209 21.6914 109.15 21.5508 109.103 21.4102C109.08 21.2461 109.127 21.0703 109.244 20.8828C109.338 20.8594 109.373 20.8125 109.349 20.7422C109.349 20.6719 109.384 20.6133 109.455 20.5664Z" fill="black"/>
</g>
<defs>
<filter id="filter0_d_5_2" x="0.703125" y="0.175781" width="140.701" height="36.3359" filterUnits="userSpaceOnUse" color-interpolation-filters="sRGB">
<feFlood flood-opacity="0" result="BackgroundImageFix"/>
<feColorMatrix in="SourceAlpha" type="matrix" values="0 0 0 0 0 0 0 0 0 0 0 0 0 0 0 0 0 0 127 0" result="hardAlpha"/>
<feOffset dy="4"/>
<feGaussianBlur stdDeviation="2"/>
<feComposite in2="hardAlpha" operator="out"/>
<feColorMatrix type="matrix" values="0 0 0 0 0 0 0 0 0 0 0 0 0 0 0 0 0 0 0.25 0"/>
<feBlend mode="normal" in2="BackgroundImageFix" result="effect1_dropShadow_5_2"/>
<feBlend mode="normal" in="SourceGraphic" in2="effect1_dropShadow_5_2" result="shape"/>
</filter>
</defs>
</svg>
